  0
SECTION
  2
HEADER
  9
$ANGBASE
  50
0.0
  9
$ANGDIR
  70
1
  9
$MEASUREMENT
  70
0
  0
ENDSEC
  0
SECTION
  2
TABLES
  0
TABLE
  2
LTYPE
  70
4
  0
LTYPE
  5
40F
  2
CONTINUOUS
  70
0
  3
Solid line
  72
65
  73
0
  40
0.0
  0
LTYPE
  5
410
  2
DASHDOT
 70
0
  3
Dash Dot ____ _ ____ _
 72
65
 73
4
 40
2.0
 49
1.25
 49
-0.25
 49
0.25
 49
-0.25
  0
LTYPE
  5
411
  2
DASHED
 70
0
  3
Dashed __ __ __ __ __
 72
65
 73
2
 40
0.75
 49
0.5
 49
-0.25
  0
LTYPE
  5
43B
  2
DOTTED
 70
0
  3
Dotted .  .  .  .
 72
65
 73
2
 40
0.2
 49
0.0
 49
-0.2
  0
ENDTAB
  0
TABLE
  2
STYLE
  70
4
  0
STYLE
  2
KICAD
  70
0
  40
0
  41
1
  42
1
  50
0
  71
0
  3
isocp.shx
  0
STYLE
  2
KICADB
  70
0
  40
0
  41
1
  42
1
  50
0
  71
0
  3
isocp.shx
  0
STYLE
  2
KICADI
  70
0
  40
0
  41
1
  42
1
  50
15
  71
0
  3
isocp.shx
  0
STYLE
  2
KICADBI
  70
0
  40
0
  41
1
  42
1
  50
15
  71
0
  3
isocp.shx
  0
ENDTAB
  0
TABLE
  2
LAYER
  70
1
  0
LAYER
  2
BLACK
  70
0
  62
7
  6
CONTINUOUS
  0
ENDTAB
  0
ENDSEC
  0
SECTION
  2
ENTITIES
0
ARC
8
BLACK
10
17.0866
20
-5.03937
40
0.11811
50
-90
51
-0
0
ARC
8
BLACK
10
0.19685
20
-5.03937
40
0.11811
50
-180
51
-90
0
LINE
8
BLACK
6
CONTINUOUS
10
0.19685
20
-5.15748
11
9.37008
21
-5.15748
0
LINE
8
BLACK
6
CONTINUOUS
10
17.2047
20
-5.03937
11
17.2047
21
-0.433071
0
LINE
8
BLACK
6
CONTINUOUS
10
0.0787402
20
-0.433071
11
0.0787402
21
-5.03937
0
LINE
8
BLACK
6
CONTINUOUS
10
17.0866
20
-0.314961
11
0.19685
21
-0.314961
0
ARC
8
BLACK
10
9.37008
20
-5
40
0.15748
50
-90
51
-0
0
ARC
8
BLACK
10
10.2756
20
-4.76378
40
0.15748
50
-0
51
90
0
LINE
8
BLACK
6
CONTINUOUS
10
9.52756
20
-5
11
9.52756
21
-4.76378
0
ARC
8
BLACK
10
0.196194
20
-0.432415
40
0.117456
50
-270.32
51
-179.68
0
LINE
8
BLACK
6
CONTINUOUS
10
10.4331
20
-4.76378
11
10.4331
21
-5
0
ARC
8
BLACK
10
17.0866
20
-0.433071
40
0.11811
50
-0
51
90
0
ARC
8
BLACK
10
9.68504
20
-4.76378
40
0.15748
50
90
51
180
0
LINE
8
BLACK
6
CONTINUOUS
10
9.68504
20
-4.6063
11
10.2756
21
-4.6063
0
CIRCLE
8
BLACK
10
8.68508
20
-1.35433
40
0.216535
0
LINE
8
BLACK
6
CONTINUOUS
10
10.5906
20
-5.15748
11
17.0866
21
-5.15748
0
ARC
8
BLACK
10
10.5906
20
-5
40
0.15748
50
-180
51
-90
0
LINE
8
BLACK
6
CONTINUOUS
10
0.196457
20
-0.759449
11
0.265354
21
-0.828346
0
LINE
8
BLACK
6
CONTINUOUS
10
0.265354
20
-0.759449
11
0.196457
21
-0.828346
0
LINE
8
BLACK
6
CONTINUOUS
10
0.196457
20
-3.37756
11
0.265354
21
-3.44646
0
LINE
8
BLACK
6
CONTINUOUS
10
0.265354
20
-3.37756
11
0.196457
21
-3.44646
0
LINE
8
BLACK
6
CONTINUOUS
10
0.289961
20
-1.8815
11
0.358858
21
-1.95039
0
LINE
8
BLACK
6
CONTINUOUS
10
0.358858
20
-1.8815
11
0.289961
21
-1.95039
0
LINE
8
BLACK
6
CONTINUOUS
10
0.476969
20
-2.62953
11
0.545866
21
-2.69843
0
LINE
8
BLACK
6
CONTINUOUS
10
0.545866
20
-2.62953
11
0.476969
21
-2.69843
0
LINE
8
BLACK
6
CONTINUOUS
10
0.570472
20
-4.87362
11
0.63937
21
-4.94252
0
LINE
8
BLACK
6
CONTINUOUS
10
0.63937
20
-4.87362
11
0.570472
21
-4.94252
0
LINE
8
BLACK
6
CONTINUOUS
10
0.596457
20
-0.759449
11
0.665354
21
-0.828346
0
LINE
8
BLACK
6
CONTINUOUS
10
0.665354
20
-0.759449
11
0.596457
21
-0.828346
0
LINE
8
BLACK
6
CONTINUOUS
10
0.596457
20
-3.37756
11
0.665354
21
-3.44646
0
LINE
8
BLACK
6
CONTINUOUS
10
0.665354
20
-3.37756
11
0.596457
21
-3.44646
0
LINE
8
BLACK
6
CONTINUOUS
10
0.63937
20
-4.12559
11
0.708268
21
-4.19449
0
LINE
8
BLACK
6
CONTINUOUS
10
0.708268
20
-4.12559
11
0.63937
21
-4.19449
0
LINE
8
BLACK
6
CONTINUOUS
10
0.689961
20
-1.8815
11
0.758858
21
-1.95039
0
LINE
8
BLACK
6
CONTINUOUS
10
0.758858
20
-1.8815
11
0.689961
21
-1.95039
0
LINE
8
BLACK
6
CONTINUOUS
10
0.876969
20
-2.62953
11
0.945866
21
-2.69843
0
LINE
8
BLACK
6
CONTINUOUS
10
0.945866
20
-2.62953
11
0.876969
21
-2.69843
0
LINE
8
BLACK
6
CONTINUOUS
10
0.944488
20
-3.37756
11
1.01339
21
-3.44646
0
LINE
8
BLACK
6
CONTINUOUS
10
1.01339
20
-3.37756
11
0.944488
21
-3.44646
0
LINE
8
BLACK
6
CONTINUOUS
10
0.970472
20
-4.87362
11
1.03937
21
-4.94252
0
LINE
8
BLACK
6
CONTINUOUS
10
1.03937
20
-4.87362
11
0.970472
21
-4.94252
0
LINE
8
BLACK
6
CONTINUOUS
10
1.03937
20
-4.12559
11
1.10827
21
-4.19449
0
LINE
8
BLACK
6
CONTINUOUS
10
1.10827
20
-4.12559
11
1.03937
21
-4.19449
0
LINE
8
BLACK
6
CONTINUOUS
10
1.1315
20
-0.759449
11
1.20039
21
-0.828346
0
LINE
8
BLACK
6
CONTINUOUS
10
1.20039
20
-0.759449
11
1.1315
21
-0.828346
0
LINE
8
BLACK
6
CONTINUOUS
10
1.1315
20
-1.8815
11
1.20039
21
-1.95039
0
LINE
8
BLACK
6
CONTINUOUS
10
1.20039
20
-1.8815
11
1.1315
21
-1.95039
0
LINE
8
BLACK
6
CONTINUOUS
10
1.3185
20
-4.87362
11
1.3874
21
-4.94252
0
LINE
8
BLACK
6
CONTINUOUS
10
1.3874
20
-4.87362
11
1.3185
21
-4.94252
0
LINE
8
BLACK
6
CONTINUOUS
10
1.34449
20
-3.37756
11
1.41339
21
-3.44646
0
LINE
8
BLACK
6
CONTINUOUS
10
1.41339
20
-3.37756
11
1.34449
21
-3.44646
0
LINE
8
BLACK
6
CONTINUOUS
10
1.41201
20
-2.62953
11
1.48091
21
-2.69843
0
LINE
8
BLACK
6
CONTINUOUS
10
1.48091
20
-2.62953
11
1.41201
21
-2.69843
0
LINE
8
BLACK
6
CONTINUOUS
10
1.5315
20
-0.759449
11
1.60039
21
-0.828346
0
LINE
8
BLACK
6
CONTINUOUS
10
1.60039
20
-0.759449
11
1.5315
21
-0.828346
0
LINE
8
BLACK
6
CONTINUOUS
10
1.5315
20
-1.8815
11
1.60039
21
-1.95039
0
LINE
8
BLACK
6
CONTINUOUS
10
1.60039
20
-1.8815
11
1.5315
21
-1.95039
0
LINE
8
BLACK
6
CONTINUOUS
10
1.69252
20
-3.37756
11
1.76142
21
-3.44646
0
LINE
8
BLACK
6
CONTINUOUS
10
1.76142
20
-3.37756
11
1.69252
21
-3.44646
0
LINE
8
BLACK
6
CONTINUOUS
10
1.7185
20
-4.87362
11
1.7874
21
-4.94252
0
LINE
8
BLACK
6
CONTINUOUS
10
1.7874
20
-4.87362
11
1.7185
21
-4.94252
0
LINE
8
BLACK
6
CONTINUOUS
10
1.81201
20
-2.62953
11
1.88091
21
-2.69843
0
LINE
8
BLACK
6
CONTINUOUS
10
1.88091
20
-2.62953
11
1.81201
21
-2.69843
0
LINE
8
BLACK
6
CONTINUOUS
10
1.87953
20
-1.8815
11
1.94843
21
-1.95039
0
LINE
8
BLACK
6
CONTINUOUS
10
1.94843
20
-1.8815
11
1.87953
21
-1.95039
0
LINE
8
BLACK
6
CONTINUOUS
10
2.06654
20
-4.12559
11
2.13543
21
-4.19449
0
LINE
8
BLACK
6
CONTINUOUS
10
2.13543
20
-4.12559
11
2.06654
21
-4.19449
0
LINE
8
BLACK
6
CONTINUOUS
10
2.06654
20
-4.87362
11
2.13543
21
-4.94252
0
LINE
8
BLACK
6
CONTINUOUS
10
2.13543
20
-4.87362
11
2.06654
21
-4.94252
0
LINE
8
BLACK
6
CONTINUOUS
10
2.09252
20
-3.37756
11
2.16142
21
-3.44646
0
LINE
8
BLACK
6
CONTINUOUS
10
2.16142
20
-3.37756
11
2.09252
21
-3.44646
0
LINE
8
BLACK
6
CONTINUOUS
10
2.16004
20
-2.62953
11
2.22894
21
-2.69843
0
LINE
8
BLACK
6
CONTINUOUS
10
2.22894
20
-2.62953
11
2.16004
21
-2.69843
0
LINE
8
BLACK
6
CONTINUOUS
10
2.25354
20
-0.759449
11
2.32244
21
-0.828346
0
LINE
8
BLACK
6
CONTINUOUS
10
2.32244
20
-0.759449
11
2.25354
21
-0.828346
0
LINE
8
BLACK
6
CONTINUOUS
10
2.27953
20
-1.8815
11
2.34843
21
-1.95039
0
LINE
8
BLACK
6
CONTINUOUS
10
2.34843
20
-1.8815
11
2.27953
21
-1.95039
0
LINE
8
BLACK
6
CONTINUOUS
10
2.44055
20
-3.37756
11
2.50945
21
-3.44646
0
LINE
8
BLACK
6
CONTINUOUS
10
2.50945
20
-3.37756
11
2.44055
21
-3.44646
0
LINE
8
BLACK
6
CONTINUOUS
10
2.46654
20
-4.12559
11
2.53543
21
-4.19449
0
LINE
8
BLACK
6
CONTINUOUS
10
2.53543
20
-4.12559
11
2.46654
21
-4.19449
0
LINE
8
BLACK
6
CONTINUOUS
10
2.46654
20
-4.87362
11
2.53543
21
-4.94252
0
LINE
8
BLACK
6
CONTINUOUS
10
2.53543
20
-4.87362
11
2.46654
21
-4.94252
0
LINE
8
BLACK
6
CONTINUOUS
10
2.56004
20
-2.62953
11
2.62894
21
-2.69843
0
LINE
8
BLACK
6
CONTINUOUS
10
2.62894
20
-2.62953
11
2.56004
21
-2.69843
0
LINE
8
BLACK
6
CONTINUOUS
10
2.62756
20
-1.8815
11
2.69646
21
-1.95039
0
LINE
8
BLACK
6
CONTINUOUS
10
2.69646
20
-1.8815
11
2.62756
21
-1.95039
0
LINE
8
BLACK
6
CONTINUOUS
10
2.65354
20
-0.759449
11
2.72244
21
-0.828346
0
LINE
8
BLACK
6
CONTINUOUS
10
2.72244
20
-0.759449
11
2.65354
21
-0.828346
0
LINE
8
BLACK
6
CONTINUOUS
10
2.81457
20
-4.12559
11
2.88346
21
-4.19449
0
LINE
8
BLACK
6
CONTINUOUS
10
2.88346
20
-4.12559
11
2.81457
21
-4.19449
0
LINE
8
BLACK
6
CONTINUOUS
10
2.84055
20
-3.37756
11
2.90945
21
-3.44646
0
LINE
8
BLACK
6
CONTINUOUS
10
2.90945
20
-3.37756
11
2.84055
21
-3.44646
0
LINE
8
BLACK
6
CONTINUOUS
10
2.90807
20
-2.62953
11
2.97697
21
-2.69843
0
LINE
8
BLACK
6
CONTINUOUS
10
2.97697
20
-2.62953
11
2.90807
21
-2.69843
0
LINE
8
BLACK
6
CONTINUOUS
10
3.02756
20
-1.8815
11
3.09646
21
-1.95039
0
LINE
8
BLACK
6
CONTINUOUS
10
3.09646
20
-1.8815
11
3.02756
21
-1.95039
0
LINE
8
BLACK
6
CONTINUOUS
10
3.18858
20
-0.759449
11
3.25748
21
-0.828346
0
LINE
8
BLACK
6
CONTINUOUS
10
3.25748
20
-0.759449
11
3.18858
21
-0.828346
0
LINE
8
BLACK
6
CONTINUOUS
10
3.18858
20
-3.37756
11
3.25748
21
-3.44646
0
LINE
8
BLACK
6
CONTINUOUS
10
3.25748
20
-3.37756
11
3.18858
21
-3.44646
0
LINE
8
BLACK
6
CONTINUOUS
10
3.18858
20
-4.87362
11
3.25748
21
-4.94252
0
LINE
8
BLACK
6
CONTINUOUS
10
3.25748
20
-4.87362
11
3.18858
21
-4.94252
0
LINE
8
BLACK
6
CONTINUOUS
10
3.21457
20
-4.12559
11
3.28346
21
-4.19449
0
LINE
8
BLACK
6
CONTINUOUS
10
3.28346
20
-4.12559
11
3.21457
21
-4.19449
0
LINE
8
BLACK
6
CONTINUOUS
10
3.30807
20
-2.62953
11
3.37697
21
-2.69843
0
LINE
8
BLACK
6
CONTINUOUS
10
3.37697
20
-2.62953
11
3.30807
21
-2.69843
0
LINE
8
BLACK
6
CONTINUOUS
10
3.37559
20
-1.8815
11
3.44449
21
-1.95039
0
LINE
8
BLACK
6
CONTINUOUS
10
3.44449
20
-1.8815
11
3.37559
21
-1.95039
0
LINE
8
BLACK
6
CONTINUOUS
10
3.5626
20
-4.12559
11
3.6315
21
-4.19449
0
LINE
8
BLACK
6
CONTINUOUS
10
3.6315
20
-4.12559
11
3.5626
21
-4.19449
0
LINE
8
BLACK
6
CONTINUOUS
10
3.58858
20
-0.759449
11
3.65748
21
-0.828346
0
LINE
8
BLACK
6
CONTINUOUS
10
3.65748
20
-0.759449
11
3.58858
21
-0.828346
0
LINE
8
BLACK
6
CONTINUOUS
10
3.58858
20
-3.37756
11
3.65748
21
-3.44646
0
LINE
8
BLACK
6
CONTINUOUS
10
3.65748
20
-3.37756
11
3.58858
21
-3.44646
0
LINE
8
BLACK
6
CONTINUOUS
10
3.58858
20
-4.87362
11
3.65748
21
-4.94252
0
LINE
8
BLACK
6
CONTINUOUS
10
3.65748
20
-4.87362
11
3.58858
21
-4.94252
0
LINE
8
BLACK
6
CONTINUOUS
10
3.6561
20
-2.62953
11
3.725
21
-2.69843
0
LINE
8
BLACK
6
CONTINUOUS
10
3.725
20
-2.62953
11
3.6561
21
-2.69843
0
LINE
8
BLACK
6
CONTINUOUS
10
3.77559
20
-1.8815
11
3.84449
21
-1.95039
0
LINE
8
BLACK
6
CONTINUOUS
10
3.84449
20
-1.8815
11
3.77559
21
-1.95039
0
LINE
8
BLACK
6
CONTINUOUS
10
3.93661
20
-3.37756
11
4.00551
21
-3.44646
0
LINE
8
BLACK
6
CONTINUOUS
10
4.00551
20
-3.37756
11
3.93661
21
-3.44646
0
LINE
8
BLACK
6
CONTINUOUS
10
3.9626
20
-4.12559
11
4.0315
21
-4.19449
0
LINE
8
BLACK
6
CONTINUOUS
10
4.0315
20
-4.12559
11
3.9626
21
-4.19449
0
LINE
8
BLACK
6
CONTINUOUS
10
4.0561
20
-2.62953
11
4.125
21
-2.69843
0
LINE
8
BLACK
6
CONTINUOUS
10
4.125
20
-2.62953
11
4.0561
21
-2.69843
0
LINE
8
BLACK
6
CONTINUOUS
10
4.12362
20
-0.759449
11
4.19252
21
-0.828346
0
LINE
8
BLACK
6
CONTINUOUS
10
4.19252
20
-0.759449
11
4.12362
21
-0.828346
0
LINE
8
BLACK
6
CONTINUOUS
10
4.12362
20
-1.8815
11
4.19252
21
-1.95039
0
LINE
8
BLACK
6
CONTINUOUS
10
4.19252
20
-1.8815
11
4.12362
21
-1.95039
0
LINE
8
BLACK
6
CONTINUOUS
10
4.31063
20
-4.12559
11
4.37953
21
-4.19449
0
LINE
8
BLACK
6
CONTINUOUS
10
4.37953
20
-4.12559
11
4.31063
21
-4.19449
0
LINE
8
BLACK
6
CONTINUOUS
10
4.33661
20
-3.37756
11
4.40551
21
-3.44646
0
LINE
8
BLACK
6
CONTINUOUS
10
4.40551
20
-3.37756
11
4.33661
21
-3.44646
0
LINE
8
BLACK
6
CONTINUOUS
10
4.40413
20
-2.62953
11
4.47303
21
-2.69843
0
LINE
8
BLACK
6
CONTINUOUS
10
4.47303
20
-2.62953
11
4.40413
21
-2.69843
0
LINE
8
BLACK
6
CONTINUOUS
10
4.52362
20
-0.759449
11
4.59252
21
-0.828346
0
LINE
8
BLACK
6
CONTINUOUS
10
4.59252
20
-0.759449
11
4.52362
21
-0.828346
0
LINE
8
BLACK
6
CONTINUOUS
10
4.52362
20
-1.8815
11
4.59252
21
-1.95039
0
LINE
8
BLACK
6
CONTINUOUS
10
4.59252
20
-1.8815
11
4.52362
21
-1.95039
0
LINE
8
BLACK
6
CONTINUOUS
10
4.68465
20
-3.37756
11
4.75354
21
-3.44646
0
LINE
8
BLACK
6
CONTINUOUS
10
4.75354
20
-3.37756
11
4.68465
21
-3.44646
0
LINE
8
BLACK
6
CONTINUOUS
10
4.71063
20
-4.12559
11
4.77953
21
-4.19449
0
LINE
8
BLACK
6
CONTINUOUS
10
4.77953
20
-4.12559
11
4.71063
21
-4.19449
0
LINE
8
BLACK
6
CONTINUOUS
10
4.80413
20
-2.62953
11
4.87303
21
-2.69843
0
LINE
8
BLACK
6
CONTINUOUS
10
4.87303
20
-2.62953
11
4.80413
21
-2.69843
0
LINE
8
BLACK
6
CONTINUOUS
10
4.87165
20
-1.8815
11
4.94055
21
-1.95039
0
LINE
8
BLACK
6
CONTINUOUS
10
4.94055
20
-1.8815
11
4.87165
21
-1.95039
0
LINE
8
BLACK
6
CONTINUOUS
10
4.87165
20
-4.87362
11
4.94055
21
-4.94252
0
LINE
8
BLACK
6
CONTINUOUS
10
4.94055
20
-4.87362
11
4.87165
21
-4.94252
0
LINE
8
BLACK
6
CONTINUOUS
10
5.05866
20
-0.759449
11
5.12756
21
-0.828346
0
LINE
8
BLACK
6
CONTINUOUS
10
5.12756
20
-0.759449
11
5.05866
21
-0.828346
0
LINE
8
BLACK
6
CONTINUOUS
10
5.05866
20
-4.12559
11
5.12756
21
-4.19449
0
LINE
8
BLACK
6
CONTINUOUS
10
5.12756
20
-4.12559
11
5.05866
21
-4.19449
0
LINE
8
BLACK
6
CONTINUOUS
10
5.08465
20
-3.37756
11
5.15354
21
-3.44646
0
LINE
8
BLACK
6
CONTINUOUS
10
5.15354
20
-3.37756
11
5.08465
21
-3.44646
0
LINE
8
BLACK
6
CONTINUOUS
10
5.15217
20
-2.62953
11
5.22106
21
-2.69843
0
LINE
8
BLACK
6
CONTINUOUS
10
5.22106
20
-2.62953
11
5.15217
21
-2.69843
0
LINE
8
BLACK
6
CONTINUOUS
10
5.27165
20
-1.8815
11
5.34055
21
-1.95039
0
LINE
8
BLACK
6
CONTINUOUS
10
5.34055
20
-1.8815
11
5.27165
21
-1.95039
0
LINE
8
BLACK
6
CONTINUOUS
10
5.27165
20
-4.87362
11
5.34055
21
-4.94252
0
LINE
8
BLACK
6
CONTINUOUS
10
5.34055
20
-4.87362
11
5.27165
21
-4.94252
0
LINE
8
BLACK
6
CONTINUOUS
10
5.43268
20
-3.37756
11
5.50157
21
-3.44646
0
LINE
8
BLACK
6
CONTINUOUS
10
5.50157
20
-3.37756
11
5.43268
21
-3.44646
0
LINE
8
BLACK
6
CONTINUOUS
10
5.45866
20
-0.759449
11
5.52756
21
-0.828346
0
LINE
8
BLACK
6
CONTINUOUS
10
5.52756
20
-0.759449
11
5.45866
21
-0.828346
0
LINE
8
BLACK
6
CONTINUOUS
10
5.45866
20
-4.12559
11
5.52756
21
-4.19449
0
LINE
8
BLACK
6
CONTINUOUS
10
5.52756
20
-4.12559
11
5.45866
21
-4.19449
0
LINE
8
BLACK
6
CONTINUOUS
10
5.55217
20
-2.62953
11
5.62106
21
-2.69843
0
LINE
8
BLACK
6
CONTINUOUS
10
5.62106
20
-2.62953
11
5.55217
21
-2.69843
0
LINE
8
BLACK
6
CONTINUOUS
10
5.61969
20
-1.8815
11
5.68858
21
-1.95039
0
LINE
8
BLACK
6
CONTINUOUS
10
5.68858
20
-1.8815
11
5.61969
21
-1.95039
0
LINE
8
BLACK
6
CONTINUOUS
10
5.80669
20
-4.12559
11
5.87559
21
-4.19449
0
LINE
8
BLACK
6
CONTINUOUS
10
5.87559
20
-4.12559
11
5.80669
21
-4.19449
0
LINE
8
BLACK
6
CONTINUOUS
10
5.83268
20
-3.37756
11
5.90157
21
-3.44646
0
LINE
8
BLACK
6
CONTINUOUS
10
5.90157
20
-3.37756
11
5.83268
21
-3.44646
0
LINE
8
BLACK
6
CONTINUOUS
10
5.9002
20
-2.62953
11
5.96909
21
-2.69843
0
LINE
8
BLACK
6
CONTINUOUS
10
5.96909
20
-2.62953
11
5.9002
21
-2.69843
0
LINE
8
BLACK
6
CONTINUOUS
10
5.9937
20
-0.759449
11
6.0626
21
-0.828346
0
LINE
8
BLACK
6
CONTINUOUS
10
6.0626
20
-0.759449
11
5.9937
21
-0.828346
0
LINE
8
BLACK
6
CONTINUOUS
10
6.01969
20
-1.8815
11
6.08858
21
-1.95039
0
LINE
8
BLACK
6
CONTINUOUS
10
6.08858
20
-1.8815
11
6.01969
21
-1.95039
0
LINE
8
BLACK
6
CONTINUOUS
10
6.18071
20
-3.37756
11
6.24961
21
-3.44646
0
LINE
8
BLACK
6
CONTINUOUS
10
6.24961
20
-3.37756
11
6.18071
21
-3.44646
0
LINE
8
BLACK
6
CONTINUOUS
10
6.20669
20
-4.12559
11
6.27559
21
-4.19449
0
LINE
8
BLACK
6
CONTINUOUS
10
6.27559
20
-4.12559
11
6.20669
21
-4.19449
0
LINE
8
BLACK
6
CONTINUOUS
10
6.3002
20
-2.62953
11
6.36909
21
-2.69843
0
LINE
8
BLACK
6
CONTINUOUS
10
6.36909
20
-2.62953
11
6.3002
21
-2.69843
0
LINE
8
BLACK
6
CONTINUOUS
10
6.36772
20
-1.8815
11
6.43661
21
-1.95039
0
LINE
8
BLACK
6
CONTINUOUS
10
6.43661
20
-1.8815
11
6.36772
21
-1.95039
0
LINE
8
BLACK
6
CONTINUOUS
10
6.3937
20
-0.759449
11
6.4626
21
-0.828346
0
LINE
8
BLACK
6
CONTINUOUS
10
6.4626
20
-0.759449
11
6.3937
21
-0.828346
0
LINE
8
BLACK
6
CONTINUOUS
10
6.55472
20
-4.12559
11
6.62362
21
-4.19449
0
LINE
8
BLACK
6
CONTINUOUS
10
6.62362
20
-4.12559
11
6.55472
21
-4.19449
0
LINE
8
BLACK
6
CONTINUOUS
10
6.58071
20
-3.37756
11
6.64961
21
-3.44646
0
LINE
8
BLACK
6
CONTINUOUS
10
6.64961
20
-3.37756
11
6.58071
21
-3.44646
0
LINE
8
BLACK
6
CONTINUOUS
10
6.64823
20
-2.62953
11
6.71713
21
-2.69843
0
LINE
8
BLACK
6
CONTINUOUS
10
6.71713
20
-2.62953
11
6.64823
21
-2.69843
0
LINE
8
BLACK
6
CONTINUOUS
10
6.74173
20
-4.87362
11
6.81063
21
-4.94252
0
LINE
8
BLACK
6
CONTINUOUS
10
6.81063
20
-4.87362
11
6.74173
21
-4.94252
0
LINE
8
BLACK
6
CONTINUOUS
10
6.76772
20
-1.8815
11
6.83661
21
-1.95039
0
LINE
8
BLACK
6
CONTINUOUS
10
6.83661
20
-1.8815
11
6.76772
21
-1.95039
0
LINE
8
BLACK
6
CONTINUOUS
10
6.92874
20
-3.37756
11
6.99764
21
-3.44646
0
LINE
8
BLACK
6
CONTINUOUS
10
6.99764
20
-3.37756
11
6.92874
21
-3.44646
0
LINE
8
BLACK
6
CONTINUOUS
10
6.95472
20
-4.12559
11
7.02362
21
-4.19449
0
LINE
8
BLACK
6
CONTINUOUS
10
7.02362
20
-4.12559
11
6.95472
21
-4.19449
0
LINE
8
BLACK
6
CONTINUOUS
10
7.04823
20
-2.62953
11
7.11713
21
-2.69843
0
LINE
8
BLACK
6
CONTINUOUS
10
7.11713
20
-2.62953
11
7.04823
21
-2.69843
0
LINE
8
BLACK
6
CONTINUOUS
10
7.11575
20
-1.8815
11
7.18465
21
-1.95039
0
LINE
8
BLACK
6
CONTINUOUS
10
7.18465
20
-1.8815
11
7.11575
21
-1.95039
0
LINE
8
BLACK
6
CONTINUOUS
10
7.14173
20
-4.87362
11
7.21063
21
-4.94252
0
LINE
8
BLACK
6
CONTINUOUS
10
7.21063
20
-4.87362
11
7.14173
21
-4.94252
0
LINE
8
BLACK
6
CONTINUOUS
10
7.20925
20
-0.759449
11
7.27815
21
-0.828346
0
LINE
8
BLACK
6
CONTINUOUS
10
7.27815
20
-0.759449
11
7.20925
21
-0.828346
0
LINE
8
BLACK
6
CONTINUOUS
10
7.30276
20
-4.12559
11
7.37165
21
-4.19449
0
LINE
8
BLACK
6
CONTINUOUS
10
7.37165
20
-4.12559
11
7.30276
21
-4.19449
0
LINE
8
BLACK
6
CONTINUOUS
10
7.32874
20
-3.37756
11
7.39764
21
-3.44646
0
LINE
8
BLACK
6
CONTINUOUS
10
7.39764
20
-3.37756
11
7.32874
21
-3.44646
0
LINE
8
BLACK
6
CONTINUOUS
10
7.39626
20
-2.62953
11
7.46516
21
-2.69843
0
LINE
8
BLACK
6
CONTINUOUS
10
7.46516
20
-2.62953
11
7.39626
21
-2.69843
0
LINE
8
BLACK
6
CONTINUOUS
10
7.51575
20
-1.8815
11
7.58465
21
-1.95039
0
LINE
8
BLACK
6
CONTINUOUS
10
7.58465
20
-1.8815
11
7.51575
21
-1.95039
0
LINE
8
BLACK
6
CONTINUOUS
10
7.60925
20
-0.759449
11
7.67815
21
-0.828346
0
LINE
8
BLACK
6
CONTINUOUS
10
7.67815
20
-0.759449
11
7.60925
21
-0.828346
0
LINE
8
BLACK
6
CONTINUOUS
10
7.67677
20
-3.37756
11
7.74567
21
-3.44646
0
LINE
8
BLACK
6
CONTINUOUS
10
7.74567
20
-3.37756
11
7.67677
21
-3.44646
0
LINE
8
BLACK
6
CONTINUOUS
10
7.70276
20
-4.12559
11
7.77165
21
-4.19449
0
LINE
8
BLACK
6
CONTINUOUS
10
7.77165
20
-4.12559
11
7.70276
21
-4.19449
0
LINE
8
BLACK
6
CONTINUOUS
10
7.79626
20
-2.62953
11
7.86516
21
-2.69843
0
LINE
8
BLACK
6
CONTINUOUS
10
7.86516
20
-2.62953
11
7.79626
21
-2.69843
0
LINE
8
BLACK
6
CONTINUOUS
10
7.86378
20
-1.8815
11
7.93268
21
-1.95039
0
LINE
8
BLACK
6
CONTINUOUS
10
7.93268
20
-1.8815
11
7.86378
21
-1.95039
0
LINE
8
BLACK
6
CONTINUOUS
10
8.05079
20
-4.12559
11
8.11969
21
-4.19449
0
LINE
8
BLACK
6
CONTINUOUS
10
8.11969
20
-4.12559
11
8.05079
21
-4.19449
0
LINE
8
BLACK
6
CONTINUOUS
10
8.05079
20
-4.87362
11
8.11969
21
-4.94252
0
LINE
8
BLACK
6
CONTINUOUS
10
8.11969
20
-4.87362
11
8.05079
21
-4.94252
0
LINE
8
BLACK
6
CONTINUOUS
10
8.07677
20
-3.37756
11
8.14567
21
-3.44646
0
LINE
8
BLACK
6
CONTINUOUS
10
8.14567
20
-3.37756
11
8.07677
21
-3.44646
0
LINE
8
BLACK
6
CONTINUOUS
10
8.14429
20
-0.759449
11
8.21319
21
-0.828346
0
LINE
8
BLACK
6
CONTINUOUS
10
8.21319
20
-0.759449
11
8.14429
21
-0.828346
0
LINE
8
BLACK
6
CONTINUOUS
10
8.14429
20
-2.62953
11
8.21319
21
-2.69843
0
LINE
8
BLACK
6
CONTINUOUS
10
8.21319
20
-2.62953
11
8.14429
21
-2.69843
0
LINE
8
BLACK
6
CONTINUOUS
10
8.26378
20
-1.8815
11
8.33268
21
-1.95039
0
LINE
8
BLACK
6
CONTINUOUS
10
8.33268
20
-1.8815
11
8.26378
21
-1.95039
0
LINE
8
BLACK
6
CONTINUOUS
10
8.4248
20
-3.37756
11
8.4937
21
-3.44646
0
LINE
8
BLACK
6
CONTINUOUS
10
8.4937
20
-3.37756
11
8.4248
21
-3.44646
0
LINE
8
BLACK
6
CONTINUOUS
10
8.45079
20
-4.12559
11
8.51969
21
-4.19449
0
LINE
8
BLACK
6
CONTINUOUS
10
8.51969
20
-4.12559
11
8.45079
21
-4.19449
0
LINE
8
BLACK
6
CONTINUOUS
10
8.45079
20
-4.87362
11
8.51969
21
-4.94252
0
LINE
8
BLACK
6
CONTINUOUS
10
8.51969
20
-4.87362
11
8.45079
21
-4.94252
0
LINE
8
BLACK
6
CONTINUOUS
10
8.54429
20
-0.759449
11
8.61319
21
-0.828346
0
LINE
8
BLACK
6
CONTINUOUS
10
8.61319
20
-0.759449
11
8.54429
21
-0.828346
0
LINE
8
BLACK
6
CONTINUOUS
10
8.54429
20
-2.62953
11
8.61319
21
-2.69843
0
LINE
8
BLACK
6
CONTINUOUS
10
8.61319
20
-2.62953
11
8.54429
21
-2.69843
0
LINE
8
BLACK
6
CONTINUOUS
10
8.61181
20
-1.8815
11
8.68071
21
-1.95039
0
LINE
8
BLACK
6
CONTINUOUS
10
8.68071
20
-1.8815
11
8.61181
21
-1.95039
0
LINE
8
BLACK
6
CONTINUOUS
10
8.79882
20
-4.12559
11
8.86772
21
-4.19449
0
LINE
8
BLACK
6
CONTINUOUS
10
8.86772
20
-4.12559
11
8.79882
21
-4.19449
0
LINE
8
BLACK
6
CONTINUOUS
10
8.79882
20
-4.87362
11
8.86772
21
-4.94252
0
LINE
8
BLACK
6
CONTINUOUS
10
8.86772
20
-4.87362
11
8.79882
21
-4.94252
0
LINE
8
BLACK
6
CONTINUOUS
10
8.8248
20
-3.37756
11
8.8937
21
-3.44646
0
LINE
8
BLACK
6
CONTINUOUS
10
8.8937
20
-3.37756
11
8.8248
21
-3.44646
0
LINE
8
BLACK
6
CONTINUOUS
10
8.89232
20
-2.62953
11
8.96122
21
-2.69843
0
LINE
8
BLACK
6
CONTINUOUS
10
8.96122
20
-2.62953
11
8.89232
21
-2.69843
0
LINE
8
BLACK
6
CONTINUOUS
10
9.01181
20
-1.8815
11
9.08071
21
-1.95039
0
LINE
8
BLACK
6
CONTINUOUS
10
9.08071
20
-1.8815
11
9.01181
21
-1.95039
0
LINE
8
BLACK
6
CONTINUOUS
10
9.07933
20
-0.759449
11
9.14823
21
-0.828346
0
LINE
8
BLACK
6
CONTINUOUS
10
9.14823
20
-0.759449
11
9.07933
21
-0.828346
0
LINE
8
BLACK
6
CONTINUOUS
10
9.17283
20
-3.37756
11
9.24173
21
-3.44646
0
LINE
8
BLACK
6
CONTINUOUS
10
9.24173
20
-3.37756
11
9.17283
21
-3.44646
0
LINE
8
BLACK
6
CONTINUOUS
10
9.19882
20
-4.12559
11
9.26772
21
-4.19449
0
LINE
8
BLACK
6
CONTINUOUS
10
9.26772
20
-4.12559
11
9.19882
21
-4.19449
0
LINE
8
BLACK
6
CONTINUOUS
10
9.19882
20
-4.87362
11
9.26772
21
-4.94252
0
LINE
8
BLACK
6
CONTINUOUS
10
9.26772
20
-4.87362
11
9.19882
21
-4.94252
0
LINE
8
BLACK
6
CONTINUOUS
10
9.29232
20
-2.62953
11
9.36122
21
-2.69843
0
LINE
8
BLACK
6
CONTINUOUS
10
9.36122
20
-2.62953
11
9.29232
21
-2.69843
0
LINE
8
BLACK
6
CONTINUOUS
10
9.35984
20
-1.8815
11
9.42874
21
-1.95039
0
LINE
8
BLACK
6
CONTINUOUS
10
9.42874
20
-1.8815
11
9.35984
21
-1.95039
0
LINE
8
BLACK
6
CONTINUOUS
10
9.47933
20
-0.759449
11
9.54823
21
-0.828346
0
LINE
8
BLACK
6
CONTINUOUS
10
9.54823
20
-0.759449
11
9.47933
21
-0.828346
0
LINE
8
BLACK
6
CONTINUOUS
10
9.54685
20
-4.12559
11
9.61575
21
-4.19449
0
LINE
8
BLACK
6
CONTINUOUS
10
9.61575
20
-4.12559
11
9.54685
21
-4.19449
0
LINE
8
BLACK
6
CONTINUOUS
10
9.57283
20
-3.37756
11
9.64173
21
-3.44646
0
LINE
8
BLACK
6
CONTINUOUS
10
9.64173
20
-3.37756
11
9.57283
21
-3.44646
0
LINE
8
BLACK
6
CONTINUOUS
10
9.64035
20
-2.62953
11
9.70925
21
-2.69843
0
LINE
8
BLACK
6
CONTINUOUS
10
9.70925
20
-2.62953
11
9.64035
21
-2.69843
0
LINE
8
BLACK
6
CONTINUOUS
10
9.75984
20
-1.8815
11
9.82874
21
-1.95039
0
LINE
8
BLACK
6
CONTINUOUS
10
9.82874
20
-1.8815
11
9.75984
21
-1.95039
0
LINE
8
BLACK
6
CONTINUOUS
10
9.92087
20
-3.37756
11
9.98976
21
-3.44646
0
LINE
8
BLACK
6
CONTINUOUS
10
9.98976
20
-3.37756
11
9.92087
21
-3.44646
0
LINE
8
BLACK
6
CONTINUOUS
10
9.94685
20
-4.12559
11
10.0157
21
-4.19449
0
LINE
8
BLACK
6
CONTINUOUS
10
10.0157
20
-4.12559
11
9.94685
21
-4.19449
0
LINE
8
BLACK
6
CONTINUOUS
10
10.0144
20
-0.759449
11
10.0833
21
-0.828346
0
LINE
8
BLACK
6
CONTINUOUS
10
10.0833
20
-0.759449
11
10.0144
21
-0.828346
0
LINE
8
BLACK
6
CONTINUOUS
10
10.0404
20
-2.62953
11
10.1093
21
-2.69843
0
LINE
8
BLACK
6
CONTINUOUS
10
10.1093
20
-2.62953
11
10.0404
21
-2.69843
0
LINE
8
BLACK
6
CONTINUOUS
10
10.1079
20
-1.8815
11
10.1768
21
-1.95039
0
LINE
8
BLACK
6
CONTINUOUS
10
10.1768
20
-1.8815
11
10.1079
21
-1.95039
0
LINE
8
BLACK
6
CONTINUOUS
10
10.3209
20
-3.37756
11
10.3898
21
-3.44646
0
LINE
8
BLACK
6
CONTINUOUS
10
10.3898
20
-3.37756
11
10.3209
21
-3.44646
0
LINE
8
BLACK
6
CONTINUOUS
10
10.4144
20
-0.759449
11
10.4833
21
-0.828346
0
LINE
8
BLACK
6
CONTINUOUS
10
10.4833
20
-0.759449
11
10.4144
21
-0.828346
0
LINE
8
BLACK
6
CONTINUOUS
10
10.5079
20
-1.8815
11
10.5768
21
-1.95039
0
LINE
8
BLACK
6
CONTINUOUS
10
10.5768
20
-1.8815
11
10.5079
21
-1.95039
0
LINE
8
BLACK
6
CONTINUOUS
10
10.6689
20
-4.12559
11
10.7378
21
-4.19449
0
LINE
8
BLACK
6
CONTINUOUS
10
10.7378
20
-4.12559
11
10.6689
21
-4.19449
0
LINE
8
BLACK
6
CONTINUOUS
10
10.6689
20
-4.87362
11
10.7378
21
-4.94252
0
LINE
8
BLACK
6
CONTINUOUS
10
10.7378
20
-4.87362
11
10.6689
21
-4.94252
0
LINE
8
BLACK
6
CONTINUOUS
10
10.9494
20
-0.759449
11
11.0183
21
-0.828346
0
LINE
8
BLACK
6
CONTINUOUS
10
11.0183
20
-0.759449
11
10.9494
21
-0.828346
0
LINE
8
BLACK
6
CONTINUOUS
10
10.9494
20
-1.8815
11
11.0183
21
-1.95039
0
LINE
8
BLACK
6
CONTINUOUS
10
11.0183
20
-1.8815
11
10.9494
21
-1.95039
0
LINE
8
BLACK
6
CONTINUOUS
10
10.9801
20
-2.80354
11
11.049
21
-2.87244
0
LINE
8
BLACK
6
CONTINUOUS
10
11.049
20
-2.80354
11
10.9801
21
-2.87244
0
LINE
8
BLACK
6
CONTINUOUS
10
10.9801
20
-3.20354
11
11.049
21
-3.27244
0
LINE
8
BLACK
6
CONTINUOUS
10
11.049
20
-3.20354
11
10.9801
21
-3.27244
0
LINE
8
BLACK
6
CONTINUOUS
10
11.0689
20
-4.12559
11
11.1378
21
-4.19449
0
LINE
8
BLACK
6
CONTINUOUS
10
11.1378
20
-4.12559
11
11.0689
21
-4.19449
0
LINE
8
BLACK
6
CONTINUOUS
10
11.0689
20
-4.87362
11
11.1378
21
-4.94252
0
LINE
8
BLACK
6
CONTINUOUS
10
11.1378
20
-4.87362
11
11.0689
21
-4.94252
0
LINE
8
BLACK
6
CONTINUOUS
10
11.3494
20
-0.759449
11
11.4183
21
-0.828346
0
LINE
8
BLACK
6
CONTINUOUS
10
11.4183
20
-0.759449
11
11.3494
21
-0.828346
0
LINE
8
BLACK
6
CONTINUOUS
10
11.3494
20
-1.8815
11
11.4183
21
-1.95039
0
LINE
8
BLACK
6
CONTINUOUS
10
11.4183
20
-1.8815
11
11.3494
21
-1.95039
0
LINE
8
BLACK
6
CONTINUOUS
10
11.978
20
-4.12559
11
12.0469
21
-4.19449
0
LINE
8
BLACK
6
CONTINUOUS
10
12.0469
20
-4.12559
11
11.978
21
-4.19449
0
LINE
8
BLACK
6
CONTINUOUS
10
11.978
20
-4.87362
11
12.0469
21
-4.94252
0
LINE
8
BLACK
6
CONTINUOUS
10
12.0469
20
-4.87362
11
11.978
21
-4.94252
0
LINE
8
BLACK
6
CONTINUOUS
10
12.352
20
-0.759449
11
12.4209
21
-0.828346
0
LINE
8
BLACK
6
CONTINUOUS
10
12.4209
20
-0.759449
11
12.352
21
-0.828346
0
LINE
8
BLACK
6
CONTINUOUS
10
12.352
20
-1.8815
11
12.4209
21
-1.95039
0
LINE
8
BLACK
6
CONTINUOUS
10
12.4209
20
-1.8815
11
12.352
21
-1.95039
0
LINE
8
BLACK
6
CONTINUOUS
10
12.378
20
-4.12559
11
12.4469
21
-4.19449
0
LINE
8
BLACK
6
CONTINUOUS
10
12.4469
20
-4.12559
11
12.378
21
-4.19449
0
LINE
8
BLACK
6
CONTINUOUS
10
12.378
20
-4.87362
11
12.4469
21
-4.94252
0
LINE
8
BLACK
6
CONTINUOUS
10
12.4469
20
-4.87362
11
12.378
21
-4.94252
0
LINE
8
BLACK
6
CONTINUOUS
10
12.726
20
-3.37756
11
12.7949
21
-3.44646
0
LINE
8
BLACK
6
CONTINUOUS
10
12.7949
20
-3.37756
11
12.726
21
-3.44646
0
LINE
8
BLACK
6
CONTINUOUS
10
12.726
20
-4.12559
11
12.7949
21
-4.19449
0
LINE
8
BLACK
6
CONTINUOUS
10
12.7949
20
-4.12559
11
12.726
21
-4.19449
0
LINE
8
BLACK
6
CONTINUOUS
10
12.726
20
-4.87362
11
12.7949
21
-4.94252
0
LINE
8
BLACK
6
CONTINUOUS
10
12.7949
20
-4.87362
11
12.726
21
-4.94252
0
LINE
8
BLACK
6
CONTINUOUS
10
12.752
20
-0.759449
11
12.8209
21
-0.828346
0
LINE
8
BLACK
6
CONTINUOUS
10
12.8209
20
-0.759449
11
12.752
21
-0.828346
0
LINE
8
BLACK
6
CONTINUOUS
10
12.752
20
-1.8815
11
12.8209
21
-1.95039
0
LINE
8
BLACK
6
CONTINUOUS
10
12.8209
20
-1.8815
11
12.752
21
-1.95039
0
LINE
8
BLACK
6
CONTINUOUS
10
13.1
20
-0.759449
11
13.1689
21
-0.828346
0
LINE
8
BLACK
6
CONTINUOUS
10
13.1689
20
-0.759449
11
13.1
21
-0.828346
0
LINE
8
BLACK
6
CONTINUOUS
10
13.1
20
-1.8815
11
13.1689
21
-1.95039
0
LINE
8
BLACK
6
CONTINUOUS
10
13.1689
20
-1.8815
11
13.1
21
-1.95039
0
LINE
8
BLACK
6
CONTINUOUS
10
13.126
20
-3.37756
11
13.1949
21
-3.44646
0
LINE
8
BLACK
6
CONTINUOUS
10
13.1949
20
-3.37756
11
13.126
21
-3.44646
0
LINE
8
BLACK
6
CONTINUOUS
10
13.126
20
-4.12559
11
13.1949
21
-4.19449
0
LINE
8
BLACK
6
CONTINUOUS
10
13.1949
20
-4.12559
11
13.126
21
-4.19449
0
LINE
8
BLACK
6
CONTINUOUS
10
13.126
20
-4.87362
11
13.1949
21
-4.94252
0
LINE
8
BLACK
6
CONTINUOUS
10
13.1949
20
-4.87362
11
13.126
21
-4.94252
0
LINE
8
BLACK
6
CONTINUOUS
10
13.474
20
-3.37756
11
13.5429
21
-3.44646
0
LINE
8
BLACK
6
CONTINUOUS
10
13.5429
20
-3.37756
11
13.474
21
-3.44646
0
LINE
8
BLACK
6
CONTINUOUS
10
13.474
20
-4.12559
11
13.5429
21
-4.19449
0
LINE
8
BLACK
6
CONTINUOUS
10
13.5429
20
-4.12559
11
13.474
21
-4.19449
0
LINE
8
BLACK
6
CONTINUOUS
10
13.474
20
-4.87362
11
13.5429
21
-4.94252
0
LINE
8
BLACK
6
CONTINUOUS
10
13.5429
20
-4.87362
11
13.474
21
-4.94252
0
LINE
8
BLACK
6
CONTINUOUS
10
13.5
20
-0.759449
11
13.5689
21
-0.828346
0
LINE
8
BLACK
6
CONTINUOUS
10
13.5689
20
-0.759449
11
13.5
21
-0.828346
0
LINE
8
BLACK
6
CONTINUOUS
10
13.5
20
-1.8815
11
13.5689
21
-1.95039
0
LINE
8
BLACK
6
CONTINUOUS
10
13.5689
20
-1.8815
11
13.5
21
-1.95039
0
LINE
8
BLACK
6
CONTINUOUS
10
13.874
20
-3.37756
11
13.9429
21
-3.44646
0
LINE
8
BLACK
6
CONTINUOUS
10
13.9429
20
-3.37756
11
13.874
21
-3.44646
0
LINE
8
BLACK
6
CONTINUOUS
10
13.874
20
-4.12559
11
13.9429
21
-4.19449
0
LINE
8
BLACK
6
CONTINUOUS
10
13.9429
20
-4.12559
11
13.874
21
-4.19449
0
LINE
8
BLACK
6
CONTINUOUS
10
13.874
20
-4.87362
11
13.9429
21
-4.94252
0
LINE
8
BLACK
6
CONTINUOUS
10
13.9429
20
-4.87362
11
13.874
21
-4.94252
0
LINE
8
BLACK
6
CONTINUOUS
10
14.4091
20
-1.8815
11
14.478
21
-1.95039
0
LINE
8
BLACK
6
CONTINUOUS
10
14.478
20
-1.8815
11
14.4091
21
-1.95039
0
LINE
8
BLACK
6
CONTINUOUS
10
14.4091
20
-2.62953
11
14.478
21
-2.69843
0
LINE
8
BLACK
6
CONTINUOUS
10
14.478
20
-2.62953
11
14.4091
21
-2.69843
0
LINE
8
BLACK
6
CONTINUOUS
10
14.4091
20
-3.37756
11
14.478
21
-3.44646
0
LINE
8
BLACK
6
CONTINUOUS
10
14.478
20
-3.37756
11
14.4091
21
-3.44646
0
LINE
8
BLACK
6
CONTINUOUS
10
14.4091
20
-4.12559
11
14.478
21
-4.19449
0
LINE
8
BLACK
6
CONTINUOUS
10
14.478
20
-4.12559
11
14.4091
21
-4.19449
0
LINE
8
BLACK
6
CONTINUOUS
10
14.4091
20
-4.87362
11
14.478
21
-4.94252
0
LINE
8
BLACK
6
CONTINUOUS
10
14.478
20
-4.87362
11
14.4091
21
-4.94252
0
LINE
8
BLACK
6
CONTINUOUS
10
14.8091
20
-1.8815
11
14.878
21
-1.95039
0
LINE
8
BLACK
6
CONTINUOUS
10
14.878
20
-1.8815
11
14.8091
21
-1.95039
0
LINE
8
BLACK
6
CONTINUOUS
10
14.8091
20
-2.62953
11
14.878
21
-2.69843
0
LINE
8
BLACK
6
CONTINUOUS
10
14.878
20
-2.62953
11
14.8091
21
-2.69843
0
LINE
8
BLACK
6
CONTINUOUS
10
14.8091
20
-3.37756
11
14.878
21
-3.44646
0
LINE
8
BLACK
6
CONTINUOUS
10
14.878
20
-3.37756
11
14.8091
21
-3.44646
0
LINE
8
BLACK
6
CONTINUOUS
10
14.8091
20
-4.12559
11
14.878
21
-4.19449
0
LINE
8
BLACK
6
CONTINUOUS
10
14.878
20
-4.12559
11
14.8091
21
-4.19449
0
LINE
8
BLACK
6
CONTINUOUS
10
14.8091
20
-4.87362
11
14.878
21
-4.94252
0
LINE
8
BLACK
6
CONTINUOUS
10
14.878
20
-4.87362
11
14.8091
21
-4.94252
0
LINE
8
BLACK
6
CONTINUOUS
10
15.1571
20
-1.8815
11
15.226
21
-1.95039
0
LINE
8
BLACK
6
CONTINUOUS
10
15.226
20
-1.8815
11
15.1571
21
-1.95039
0
LINE
8
BLACK
6
CONTINUOUS
10
15.1571
20
-2.62953
11
15.226
21
-2.69843
0
LINE
8
BLACK
6
CONTINUOUS
10
15.226
20
-2.62953
11
15.1571
21
-2.69843
0
LINE
8
BLACK
6
CONTINUOUS
10
15.1571
20
-3.37756
11
15.226
21
-3.44646
0
LINE
8
BLACK
6
CONTINUOUS
10
15.226
20
-3.37756
11
15.1571
21
-3.44646
0
LINE
8
BLACK
6
CONTINUOUS
10
15.1571
20
-4.12559
11
15.226
21
-4.19449
0
LINE
8
BLACK
6
CONTINUOUS
10
15.226
20
-4.12559
11
15.1571
21
-4.19449
0
LINE
8
BLACK
6
CONTINUOUS
10
15.1571
20
-4.87362
11
15.226
21
-4.94252
0
LINE
8
BLACK
6
CONTINUOUS
10
15.226
20
-4.87362
11
15.1571
21
-4.94252
0
LINE
8
BLACK
6
CONTINUOUS
10
15.5571
20
-1.8815
11
15.626
21
-1.95039
0
LINE
8
BLACK
6
CONTINUOUS
10
15.626
20
-1.8815
11
15.5571
21
-1.95039
0
LINE
8
BLACK
6
CONTINUOUS
10
15.5571
20
-2.62953
11
15.626
21
-2.69843
0
LINE
8
BLACK
6
CONTINUOUS
10
15.626
20
-2.62953
11
15.5571
21
-2.69843
0
LINE
8
BLACK
6
CONTINUOUS
10
15.5571
20
-3.37756
11
15.626
21
-3.44646
0
LINE
8
BLACK
6
CONTINUOUS
10
15.626
20
-3.37756
11
15.5571
21
-3.44646
0
LINE
8
BLACK
6
CONTINUOUS
10
15.5571
20
-4.12559
11
15.626
21
-4.19449
0
LINE
8
BLACK
6
CONTINUOUS
10
15.626
20
-4.12559
11
15.5571
21
-4.19449
0
LINE
8
BLACK
6
CONTINUOUS
10
15.5571
20
-4.87362
11
15.626
21
-4.94252
0
LINE
8
BLACK
6
CONTINUOUS
10
15.626
20
-4.87362
11
15.5571
21
-4.94252
0
LINE
8
BLACK
6
CONTINUOUS
10
15.9051
20
-1.8815
11
15.974
21
-1.95039
0
LINE
8
BLACK
6
CONTINUOUS
10
15.974
20
-1.8815
11
15.9051
21
-1.95039
0
LINE
8
BLACK
6
CONTINUOUS
10
15.9051
20
-2.62953
11
15.974
21
-2.69843
0
LINE
8
BLACK
6
CONTINUOUS
10
15.974
20
-2.62953
11
15.9051
21
-2.69843
0
LINE
8
BLACK
6
CONTINUOUS
10
15.9051
20
-3.37756
11
15.974
21
-3.44646
0
LINE
8
BLACK
6
CONTINUOUS
10
15.974
20
-3.37756
11
15.9051
21
-3.44646
0
LINE
8
BLACK
6
CONTINUOUS
10
15.9051
20
-4.12559
11
15.974
21
-4.19449
0
LINE
8
BLACK
6
CONTINUOUS
10
15.974
20
-4.12559
11
15.9051
21
-4.19449
0
LINE
8
BLACK
6
CONTINUOUS
10
15.9051
20
-4.87362
11
15.974
21
-4.94252
0
LINE
8
BLACK
6
CONTINUOUS
10
15.974
20
-4.87362
11
15.9051
21
-4.94252
0
LINE
8
BLACK
6
CONTINUOUS
10
16.3051
20
-1.8815
11
16.374
21
-1.95039
0
LINE
8
BLACK
6
CONTINUOUS
10
16.374
20
-1.8815
11
16.3051
21
-1.95039
0
LINE
8
BLACK
6
CONTINUOUS
10
16.3051
20
-2.62953
11
16.374
21
-2.69843
0
LINE
8
BLACK
6
CONTINUOUS
10
16.374
20
-2.62953
11
16.3051
21
-2.69843
0
LINE
8
BLACK
6
CONTINUOUS
10
16.3051
20
-3.37756
11
16.374
21
-3.44646
0
LINE
8
BLACK
6
CONTINUOUS
10
16.374
20
-3.37756
11
16.3051
21
-3.44646
0
LINE
8
BLACK
6
CONTINUOUS
10
16.3051
20
-4.12559
11
16.374
21
-4.19449
0
LINE
8
BLACK
6
CONTINUOUS
10
16.374
20
-4.12559
11
16.3051
21
-4.19449
0
LINE
8
BLACK
6
CONTINUOUS
10
16.3051
20
-4.87362
11
16.374
21
-4.94252
0
LINE
8
BLACK
6
CONTINUOUS
10
16.374
20
-4.87362
11
16.3051
21
-4.94252
0
LINE
8
BLACK
6
CONTINUOUS
10
16.6531
20
-1.8815
11
16.722
21
-1.95039
0
LINE
8
BLACK
6
CONTINUOUS
10
16.722
20
-1.8815
11
16.6531
21
-1.95039
0
LINE
8
BLACK
6
CONTINUOUS
10
16.6531
20
-2.62953
11
16.722
21
-2.69843
0
LINE
8
BLACK
6
CONTINUOUS
10
16.722
20
-2.62953
11
16.6531
21
-2.69843
0
LINE
8
BLACK
6
CONTINUOUS
10
16.6531
20
-3.37756
11
16.722
21
-3.44646
0
LINE
8
BLACK
6
CONTINUOUS
10
16.722
20
-3.37756
11
16.6531
21
-3.44646
0
LINE
8
BLACK
6
CONTINUOUS
10
16.6531
20
-4.12559
11
16.722
21
-4.19449
0
LINE
8
BLACK
6
CONTINUOUS
10
16.722
20
-4.12559
11
16.6531
21
-4.19449
0
LINE
8
BLACK
6
CONTINUOUS
10
16.6531
20
-4.87362
11
16.722
21
-4.94252
0
LINE
8
BLACK
6
CONTINUOUS
10
16.722
20
-4.87362
11
16.6531
21
-4.94252
0
LINE
8
BLACK
6
CONTINUOUS
10
17.0531
20
-1.8815
11
17.122
21
-1.95039
0
LINE
8
BLACK
6
CONTINUOUS
10
17.122
20
-1.8815
11
17.0531
21
-1.95039
0
LINE
8
BLACK
6
CONTINUOUS
10
17.0531
20
-2.62953
11
17.122
21
-2.69843
0
LINE
8
BLACK
6
CONTINUOUS
10
17.122
20
-2.62953
11
17.0531
21
-2.69843
0
LINE
8
BLACK
6
CONTINUOUS
10
17.0531
20
-3.37756
11
17.122
21
-3.44646
0
LINE
8
BLACK
6
CONTINUOUS
10
17.122
20
-3.37756
11
17.0531
21
-3.44646
0
LINE
8
BLACK
6
CONTINUOUS
10
17.0531
20
-4.12559
11
17.122
21
-4.19449
0
LINE
8
BLACK
6
CONTINUOUS
10
17.122
20
-4.12559
11
17.0531
21
-4.19449
0
LINE
8
BLACK
6
CONTINUOUS
10
17.0531
20
-4.87362
11
17.122
21
-4.94252
0
LINE
8
BLACK
6
CONTINUOUS
10
17.122
20
-4.87362
11
17.0531
21
-4.94252
0
CIRCLE
8
BLACK
10
0.430906
20
-0.793898
40
0.0785
0
CIRCLE
8
BLACK
10
0.430906
20
-3.41201
40
0.0785
0
CIRCLE
8
BLACK
10
0.524409
20
-1.91594
40
0.0785
0
CIRCLE
8
BLACK
10
0.711417
20
-2.66398
40
0.0785
0
CIRCLE
8
BLACK
10
0.804921
20
-4.90807
40
0.0785
0
CIRCLE
8
BLACK
10
0.873819
20
-4.16004
40
0.0785
0
CIRCLE
8
BLACK
10
1.17894
20
-3.41201
40
0.0785
0
CIRCLE
8
BLACK
10
1.36594
20
-0.793898
40
0.0785
0
CIRCLE
8
BLACK
10
1.36594
20
-1.91594
40
0.0785
0
CIRCLE
8
BLACK
10
1.55295
20
-4.90807
40
0.0785
0
CIRCLE
8
BLACK
10
1.64646
20
-2.66398
40
0.0785
0
CIRCLE
8
BLACK
10
1.92697
20
-3.41201
40
0.0785
0
CIRCLE
8
BLACK
10
2.11398
20
-1.91594
40
0.0785
0
CIRCLE
8
BLACK
10
2.30098
20
-4.16004
40
0.0785
0
CIRCLE
8
BLACK
10
2.30098
20
-4.90807
40
0.0785
0
CIRCLE
8
BLACK
10
2.39449
20
-2.66398
40
0.0785
0
CIRCLE
8
BLACK
10
2.48799
20
-0.793898
40
0.0785
0
CIRCLE
8
BLACK
10
2.675
20
-3.41201
40
0.0785
0
CIRCLE
8
BLACK
10
2.86201
20
-1.91594
40
0.0785
0
CIRCLE
8
BLACK
10
3.04902
20
-4.16004
40
0.0785
0
CIRCLE
8
BLACK
10
3.14252
20
-2.66398
40
0.0785
0
CIRCLE
8
BLACK
10
3.42303
20
-0.793898
40
0.0785
0
CIRCLE
8
BLACK
10
3.42303
20
-3.41201
40
0.0785
0
CIRCLE
8
BLACK
10
3.42303
20
-4.90807
40
0.0785
0
CIRCLE
8
BLACK
10
3.61004
20
-1.91594
40
0.0785
0
CIRCLE
8
BLACK
10
3.79705
20
-4.16004
40
0.0785
0
CIRCLE
8
BLACK
10
3.89055
20
-2.66398
40
0.0785
0
CIRCLE
8
BLACK
10
4.17106
20
-3.41201
40
0.0785
0
CIRCLE
8
BLACK
10
4.35807
20
-0.793898
40
0.0785
0
CIRCLE
8
BLACK
10
4.35807
20
-1.91594
40
0.0785
0
CIRCLE
8
BLACK
10
4.54508
20
-4.16004
40
0.0785
0
CIRCLE
8
BLACK
10
4.63858
20
-2.66398
40
0.0785
0
CIRCLE
8
BLACK
10
4.91909
20
-3.41201
40
0.0785
0
CIRCLE
8
BLACK
10
5.1061
20
-1.91594
40
0.0785
0
CIRCLE
8
BLACK
10
5.1061
20
-4.90807
40
0.0785
0
CIRCLE
8
BLACK
10
5.29311
20
-0.793898
40
0.0785
0
CIRCLE
8
BLACK
10
5.29311
20
-4.16004
40
0.0785
0
CIRCLE
8
BLACK
10
5.38661
20
-2.66398
40
0.0785
0
CIRCLE
8
BLACK
10
5.66713
20
-3.41201
40
0.0785
0
CIRCLE
8
BLACK
10
5.85413
20
-1.91594
40
0.0785
0
CIRCLE
8
BLACK
10
6.04114
20
-4.16004
40
0.0785
0
CIRCLE
8
BLACK
10
6.13465
20
-2.66398
40
0.0785
0
CIRCLE
8
BLACK
10
6.22815
20
-0.793898
40
0.0785
0
CIRCLE
8
BLACK
10
6.41516
20
-3.41201
40
0.0785
0
CIRCLE
8
BLACK
10
6.60217
20
-1.91594
40
0.0785
0
CIRCLE
8
BLACK
10
6.78917
20
-4.16004
40
0.0785
0
CIRCLE
8
BLACK
10
6.88268
20
-2.66398
40
0.0785
0
CIRCLE
8
BLACK
10
6.97618
20
-4.90807
40
0.0785
0
CIRCLE
8
BLACK
10
7.16319
20
-3.41201
40
0.0785
0
CIRCLE
8
BLACK
10
7.3502
20
-1.91594
40
0.0785
0
CIRCLE
8
BLACK
10
7.4437
20
-0.793898
40
0.0785
0
CIRCLE
8
BLACK
10
7.5372
20
-4.16004
40
0.0785
0
CIRCLE
8
BLACK
10
7.63071
20
-2.66398
40
0.0785
0
CIRCLE
8
BLACK
10
7.91122
20
-3.41201
40
0.0785
0
CIRCLE
8
BLACK
10
8.09823
20
-1.91594
40
0.0785
0
CIRCLE
8
BLACK
10
8.28524
20
-4.16004
40
0.0785
0
CIRCLE
8
BLACK
10
8.28524
20
-4.90807
40
0.0785
0
CIRCLE
8
BLACK
10
8.37874
20
-0.793898
40
0.0785
0
CIRCLE
8
BLACK
10
8.37874
20
-2.66398
40
0.0785
0
CIRCLE
8
BLACK
10
8.65925
20
-3.41201
40
0.0785
0
CIRCLE
8
BLACK
10
8.84626
20
-1.91594
40
0.0785
0
CIRCLE
8
BLACK
10
9.03327
20
-4.16004
40
0.0785
0
CIRCLE
8
BLACK
10
9.03327
20
-4.90807
40
0.0785
0
CIRCLE
8
BLACK
10
9.12677
20
-2.66398
40
0.0785
0
CIRCLE
8
BLACK
10
9.31378
20
-0.793898
40
0.0785
0
CIRCLE
8
BLACK
10
9.40728
20
-3.41201
40
0.0785
0
CIRCLE
8
BLACK
10
9.59429
20
-1.91594
40
0.0785
0
CIRCLE
8
BLACK
10
9.7813
20
-4.16004
40
0.0785
0
CIRCLE
8
BLACK
10
9.8748
20
-2.66398
40
0.0785
0
CIRCLE
8
BLACK
10
10.1553
20
-3.41201
40
0.0785
0
CIRCLE
8
BLACK
10
10.2488
20
-0.793898
40
0.0785
0
CIRCLE
8
BLACK
10
10.3423
20
-1.91594
40
0.0785
0
CIRCLE
8
BLACK
10
10.9033
20
-4.16004
40
0.0785
0
CIRCLE
8
BLACK
10
10.9033
20
-4.90807
40
0.0785
0
CIRCLE
8
BLACK
10
11.0146
20
-3.03799
40
0.0785
0
CIRCLE
8
BLACK
10
11.1839
20
-0.793898
40
0.0785
0
CIRCLE
8
BLACK
10
11.1839
20
-1.91594
40
0.0785
0
CIRCLE
8
BLACK
10
12.2124
20
-4.16004
40
0.0785
0
CIRCLE
8
BLACK
10
12.2124
20
-4.90807
40
0.0785
0
CIRCLE
8
BLACK
10
12.5864
20
-0.793898
40
0.0785
0
CIRCLE
8
BLACK
10
12.5864
20
-1.91594
40
0.0785
0
CIRCLE
8
BLACK
10
12.9604
20
-3.41201
40
0.0785
0
CIRCLE
8
BLACK
10
12.9604
20
-4.16004
40
0.0785
0
CIRCLE
8
BLACK
10
12.9604
20
-4.90807
40
0.0785
0
CIRCLE
8
BLACK
10
13.3344
20
-0.793898
40
0.0785
0
CIRCLE
8
BLACK
10
13.3344
20
-1.91594
40
0.0785
0
CIRCLE
8
BLACK
10
13.7085
20
-3.41201
40
0.0785
0
CIRCLE
8
BLACK
10
13.7085
20
-4.16004
40
0.0785
0
CIRCLE
8
BLACK
10
13.7085
20
-4.90807
40
0.0785
0
CIRCLE
8
BLACK
10
14.6435
20
-1.91594
40
0.0785
0
CIRCLE
8
BLACK
10
14.6435
20
-2.66398
40
0.0785
0
CIRCLE
8
BLACK
10
14.6435
20
-3.41201
40
0.0785
0
CIRCLE
8
BLACK
10
14.6435
20
-4.16004
40
0.0785
0
CIRCLE
8
BLACK
10
14.6435
20
-4.90807
40
0.0785
0
CIRCLE
8
BLACK
10
15.3915
20
-1.91594
40
0.0785
0
CIRCLE
8
BLACK
10
15.3915
20
-2.66398
40
0.0785
0
CIRCLE
8
BLACK
10
15.3915
20
-3.41201
40
0.0785
0
CIRCLE
8
BLACK
10
15.3915
20
-4.16004
40
0.0785
0
CIRCLE
8
BLACK
10
15.3915
20
-4.90807
40
0.0785
0
CIRCLE
8
BLACK
10
16.1396
20
-1.91594
40
0.0785
0
CIRCLE
8
BLACK
10
16.1396
20
-2.66398
40
0.0785
0
CIRCLE
8
BLACK
10
16.1396
20
-3.41201
40
0.0785
0
CIRCLE
8
BLACK
10
16.1396
20
-4.16004
40
0.0785
0
CIRCLE
8
BLACK
10
16.1396
20
-4.90807
40
0.0785
0
CIRCLE
8
BLACK
10
16.8876
20
-1.91594
40
0.0785
0
CIRCLE
8
BLACK
10
16.8876
20
-2.66398
40
0.0785
0
CIRCLE
8
BLACK
10
16.8876
20
-3.41201
40
0.0785
0
CIRCLE
8
BLACK
10
16.8876
20
-4.16004
40
0.0785
0
CIRCLE
8
BLACK
10
16.8876
20
-4.90807
40
0.0785
0
LINE
8
BLACK
6
CONTINUOUS
10
0.173273
20
-5.27696
11
0.173273
21
-5.19822
0
LINE
8
BLACK
6
CONTINUOUS
10
0.173273
20
-5.19822
11
0.192021
21
-5.19822
0
LINE
8
BLACK
6
CONTINUOUS
10
0.192021
20
-5.19822
11
0.20327
21
-5.20197
0
LINE
8
BLACK
6
CONTINUOUS
10
0.20327
20
-5.20197
11
0.210769
21
-5.20947
0
LINE
8
BLACK
6
CONTINUOUS
10
0.210769
20
-5.20947
11
0.214518
21
-5.21697
0
LINE
8
BLACK
6
CONTINUOUS
10
0.214518
20
-5.21697
11
0.218268
21
-5.23196
0
LINE
8
BLACK
6
CONTINUOUS
10
0.218268
20
-5.23196
11
0.218268
21
-5.24321
0
LINE
8
BLACK
6
CONTINUOUS
10
0.218268
20
-5.24321
11
0.214518
21
-5.25821
0
LINE
8
BLACK
6
CONTINUOUS
10
0.214518
20
-5.25821
11
0.210769
21
-5.26571
0
LINE
8
BLACK
6
CONTINUOUS
10
0.210769
20
-5.26571
11
0.20327
21
-5.27321
0
LINE
8
BLACK
6
CONTINUOUS
10
0.20327
20
-5.27321
11
0.192021
21
-5.27696
0
LINE
8
BLACK
6
CONTINUOUS
10
0.192021
20
-5.27696
11
0.173273
21
-5.27696
0
LINE
8
BLACK
6
CONTINUOUS
10
0.252014
20
-5.27696
11
0.252014
21
-5.22447
0
LINE
8
BLACK
6
CONTINUOUS
10
0.252014
20
-5.23946
11
0.255763
21
-5.23196
0
LINE
8
BLACK
6
CONTINUOUS
10
0.255763
20
-5.23196
11
0.259513
21
-5.22822
0
LINE
8
BLACK
6
CONTINUOUS
10
0.259513
20
-5.22822
11
0.267012
21
-5.22447
0
LINE
8
BLACK
6
CONTINUOUS
10
0.267012
20
-5.22447
11
0.274511
21
-5.22447
0
LINE
8
BLACK
6
CONTINUOUS
10
0.300757
20
-5.27696
11
0.300757
21
-5.22447
0
LINE
8
BLACK
6
CONTINUOUS
10
0.300757
20
-5.19822
11
0.297008
21
-5.20197
0
LINE
8
BLACK
6
CONTINUOUS
10
0.297008
20
-5.20197
11
0.300757
21
-5.20572
0
LINE
8
BLACK
6
CONTINUOUS
10
0.300757
20
-5.20572
11
0.304507
21
-5.20197
0
LINE
8
BLACK
6
CONTINUOUS
10
0.304507
20
-5.20197
11
0.300757
21
-5.19822
0
LINE
8
BLACK
6
CONTINUOUS
10
0.300757
20
-5.19822
11
0.300757
21
-5.20572
0
LINE
8
BLACK
6
CONTINUOUS
10
0.349501
20
-5.27696
11
0.342002
21
-5.27321
0
LINE
8
BLACK
6
CONTINUOUS
10
0.342002
20
-5.27321
11
0.338253
21
-5.26571
0
LINE
8
BLACK
6
CONTINUOUS
10
0.338253
20
-5.26571
11
0.338253
21
-5.19822
0
LINE
8
BLACK
6
CONTINUOUS
10
0.390746
20
-5.27696
11
0.383247
21
-5.27321
0
LINE
8
BLACK
6
CONTINUOUS
10
0.383247
20
-5.27321
11
0.379498
21
-5.26571
0
LINE
8
BLACK
6
CONTINUOUS
10
0.379498
20
-5.26571
11
0.379498
21
-5.19822
0
LINE
8
BLACK
6
CONTINUOUS
10
0.467986
20
-5.27696
11
0.467986
21
-5.19822
0
LINE
8
BLACK
6
CONTINUOUS
10
0.467986
20
-5.19822
11
0.494233
21
-5.25446
0
LINE
8
BLACK
6
CONTINUOUS
10
0.494233
20
-5.25446
11
0.52048
21
-5.19822
0
LINE
8
BLACK
6
CONTINUOUS
10
0.52048
20
-5.19822
11
0.52048
21
-5.27696
0
LINE
8
BLACK
6
CONTINUOUS
10
0.591721
20
-5.27696
11
0.591721
21
-5.23571
0
LINE
8
BLACK
6
CONTINUOUS
10
0.591721
20
-5.23571
11
0.587971
21
-5.22822
0
LINE
8
BLACK
6
CONTINUOUS
10
0.587971
20
-5.22822
11
0.580472
21
-5.22447
0
LINE
8
BLACK
6
CONTINUOUS
10
0.580472
20
-5.22447
11
0.565474
21
-5.22447
0
LINE
8
BLACK
6
CONTINUOUS
10
0.565474
20
-5.22447
11
0.557975
21
-5.22822
0
LINE
8
BLACK
6
CONTINUOUS
10
0.591721
20
-5.27321
11
0.584222
21
-5.27696
0
LINE
8
BLACK
6
CONTINUOUS
10
0.584222
20
-5.27696
11
0.565474
21
-5.27696
0
LINE
8
BLACK
6
CONTINUOUS
10
0.565474
20
-5.27696
11
0.557975
21
-5.27321
0
LINE
8
BLACK
6
CONTINUOUS
10
0.557975
20
-5.27321
11
0.554226
21
-5.26571
0
LINE
8
BLACK
6
CONTINUOUS
10
0.554226
20
-5.26571
11
0.554226
21
-5.25821
0
LINE
8
BLACK
6
CONTINUOUS
10
0.554226
20
-5.25821
11
0.557975
21
-5.25071
0
LINE
8
BLACK
6
CONTINUOUS
10
0.557975
20
-5.25071
11
0.565474
21
-5.24696
0
LINE
8
BLACK
6
CONTINUOUS
10
0.565474
20
-5.24696
11
0.584222
21
-5.24696
0
LINE
8
BLACK
6
CONTINUOUS
10
0.584222
20
-5.24696
11
0.591721
21
-5.24321
0
LINE
8
BLACK
6
CONTINUOUS
10
0.629216
20
-5.22447
11
0.629216
21
-5.30321
0
LINE
8
BLACK
6
CONTINUOUS
10
0.629216
20
-5.22822
11
0.636715
21
-5.22447
0
LINE
8
BLACK
6
CONTINUOUS
10
0.636715
20
-5.22447
11
0.651714
21
-5.22447
0
LINE
8
BLACK
6
CONTINUOUS
10
0.651714
20
-5.22447
11
0.659213
21
-5.22822
0
LINE
8
BLACK
6
CONTINUOUS
10
0.659213
20
-5.22822
11
0.662962
21
-5.23196
0
LINE
8
BLACK
6
CONTINUOUS
10
0.662962
20
-5.23196
11
0.666712
21
-5.23946
0
LINE
8
BLACK
6
CONTINUOUS
10
0.666712
20
-5.23946
11
0.666712
21
-5.26196
0
LINE
8
BLACK
6
CONTINUOUS
10
0.666712
20
-5.26196
11
0.662962
21
-5.26946
0
LINE
8
BLACK
6
CONTINUOUS
10
0.662962
20
-5.26946
11
0.659213
21
-5.27321
0
LINE
8
BLACK
6
CONTINUOUS
10
0.659213
20
-5.27321
11
0.651714
21
-5.27696
0
LINE
8
BLACK
6
CONTINUOUS
10
0.651714
20
-5.27696
11
0.636715
21
-5.27696
0
LINE
8
BLACK
6
CONTINUOUS
10
0.636715
20
-5.27696
11
0.629216
21
-5.27321
0
LINE
8
BLACK
6
CONTINUOUS
10
0.700457
20
-5.26946
11
0.704207
21
-5.27321
0
LINE
8
BLACK
6
CONTINUOUS
10
0.704207
20
-5.27321
11
0.700457
21
-5.27696
0
LINE
8
BLACK
6
CONTINUOUS
10
0.700457
20
-5.27696
11
0.696708
21
-5.27321
0
LINE
8
BLACK
6
CONTINUOUS
10
0.696708
20
-5.27321
11
0.700457
21
-5.26946
0
LINE
8
BLACK
6
CONTINUOUS
10
0.700457
20
-5.26946
11
0.700457
21
-5.27696
0
LINE
8
BLACK
6
CONTINUOUS
10
0.700457
20
-5.22822
11
0.704207
21
-5.23196
0
LINE
8
BLACK
6
CONTINUOUS
10
0.704207
20
-5.23196
11
0.700457
21
-5.23571
0
LINE
8
BLACK
6
CONTINUOUS
10
0.700457
20
-5.23571
11
0.696708
21
-5.23196
0
LINE
8
BLACK
6
CONTINUOUS
10
0.696708
20
-5.23196
11
0.700457
21
-5.22822
0
LINE
8
BLACK
6
CONTINUOUS
10
0.700457
20
-5.22822
11
0.700457
21
-5.23571
0
LINE
8
BLACK
6
CONTINUOUS
10
0.00688791
20
-5.37894
11
0.0757856
21
-5.44783
0
LINE
8
BLACK
6
CONTINUOUS
10
0.0757856
20
-5.37894
11
0.00688791
21
-5.44783
0
LINE
8
BLACK
6
CONTINUOUS
10
0.214518
20
-5.44231
11
0.169524
21
-5.44231
0
LINE
8
BLACK
6
CONTINUOUS
10
0.192021
20
-5.44231
11
0.192021
21
-5.36357
0
LINE
8
BLACK
6
CONTINUOUS
10
0.192021
20
-5.36357
11
0.184522
21
-5.37482
0
LINE
8
BLACK
6
CONTINUOUS
10
0.184522
20
-5.37482
11
0.177023
21
-5.38232
0
LINE
8
BLACK
6
CONTINUOUS
10
0.177023
20
-5.38232
11
0.169524
21
-5.38607
0
LINE
8
BLACK
6
CONTINUOUS
10
0.248264
20
-5.43481
11
0.252014
21
-5.43856
0
LINE
8
BLACK
6
CONTINUOUS
10
0.252014
20
-5.43856
11
0.248264
21
-5.44231
0
LINE
8
BLACK
6
CONTINUOUS
10
0.248264
20
-5.44231
11
0.244514
21
-5.43856
0
LINE
8
BLACK
6
CONTINUOUS
10
0.244514
20
-5.43856
11
0.248264
21
-5.43481
0
LINE
8
BLACK
6
CONTINUOUS
10
0.248264
20
-5.43481
11
0.248264
21
-5.44231
0
LINE
8
BLACK
6
CONTINUOUS
10
0.27826
20
-5.36357
11
0.330754
21
-5.36357
0
LINE
8
BLACK
6
CONTINUOUS
10
0.330754
20
-5.36357
11
0.297008
21
-5.44231
0
LINE
8
BLACK
6
CONTINUOUS
10
0.398245
20
-5.36357
11
0.36075
21
-5.36357
0
LINE
8
BLACK
6
CONTINUOUS
10
0.36075
20
-5.36357
11
0.357
21
-5.40107
0
LINE
8
BLACK
6
CONTINUOUS
10
0.357
20
-5.40107
11
0.36075
21
-5.39732
0
LINE
8
BLACK
6
CONTINUOUS
10
0.36075
20
-5.39732
11
0.368249
21
-5.39357
0
LINE
8
BLACK
6
CONTINUOUS
10
0.368249
20
-5.39357
11
0.386997
21
-5.39357
0
LINE
8
BLACK
6
CONTINUOUS
10
0.386997
20
-5.39357
11
0.394496
21
-5.39732
0
LINE
8
BLACK
6
CONTINUOUS
10
0.394496
20
-5.39732
11
0.398245
21
-5.40107
0
LINE
8
BLACK
6
CONTINUOUS
10
0.398245
20
-5.40107
11
0.401995
21
-5.40857
0
LINE
8
BLACK
6
CONTINUOUS
10
0.401995
20
-5.40857
11
0.401995
21
-5.42732
0
LINE
8
BLACK
6
CONTINUOUS
10
0.401995
20
-5.42732
11
0.398245
21
-5.43481
0
LINE
8
BLACK
6
CONTINUOUS
10
0.398245
20
-5.43481
11
0.394496
21
-5.43856
0
LINE
8
BLACK
6
CONTINUOUS
10
0.394496
20
-5.43856
11
0.386997
21
-5.44231
0
LINE
8
BLACK
6
CONTINUOUS
10
0.386997
20
-5.44231
11
0.368249
21
-5.44231
0
LINE
8
BLACK
6
CONTINUOUS
10
0.368249
20
-5.44231
11
0.36075
21
-5.43856
0
LINE
8
BLACK
6
CONTINUOUS
10
0.36075
20
-5.43856
11
0.357
21
-5.43481
0
LINE
8
BLACK
6
CONTINUOUS
10
0.450739
20
-5.36357
11
0.458238
21
-5.36357
0
LINE
8
BLACK
6
CONTINUOUS
10
0.458238
20
-5.36357
11
0.465737
21
-5.36732
0
LINE
8
BLACK
6
CONTINUOUS
10
0.465737
20
-5.36732
11
0.469486
21
-5.37107
0
LINE
8
BLACK
6
CONTINUOUS
10
0.469486
20
-5.37107
11
0.473236
21
-5.37857
0
LINE
8
BLACK
6
CONTINUOUS
10
0.473236
20
-5.37857
11
0.476985
21
-5.39357
0
LINE
8
BLACK
6
CONTINUOUS
10
0.476985
20
-5.39357
11
0.476985
21
-5.41232
0
LINE
8
BLACK
6
CONTINUOUS
10
0.476985
20
-5.41232
11
0.473236
21
-5.42732
0
LINE
8
BLACK
6
CONTINUOUS
10
0.473236
20
-5.42732
11
0.469486
21
-5.43481
0
LINE
8
BLACK
6
CONTINUOUS
10
0.469486
20
-5.43481
11
0.465737
21
-5.43856
0
LINE
8
BLACK
6
CONTINUOUS
10
0.465737
20
-5.43856
11
0.458238
21
-5.44231
0
LINE
8
BLACK
6
CONTINUOUS
10
0.458238
20
-5.44231
11
0.450739
21
-5.44231
0
LINE
8
BLACK
6
CONTINUOUS
10
0.450739
20
-5.44231
11
0.44324
21
-5.43856
0
LINE
8
BLACK
6
CONTINUOUS
10
0.44324
20
-5.43856
11
0.43949
21
-5.43481
0
LINE
8
BLACK
6
CONTINUOUS
10
0.43949
20
-5.43481
11
0.435741
21
-5.42732
0
LINE
8
BLACK
6
CONTINUOUS
10
0.435741
20
-5.42732
11
0.431991
21
-5.41232
0
LINE
8
BLACK
6
CONTINUOUS
10
0.431991
20
-5.41232
11
0.431991
21
-5.39357
0
LINE
8
BLACK
6
CONTINUOUS
10
0.431991
20
-5.39357
11
0.435741
21
-5.37857
0
LINE
8
BLACK
6
CONTINUOUS
10
0.435741
20
-5.37857
11
0.43949
21
-5.37107
0
LINE
8
BLACK
6
CONTINUOUS
10
0.43949
20
-5.37107
11
0.44324
21
-5.36732
0
LINE
8
BLACK
6
CONTINUOUS
10
0.44324
20
-5.36732
11
0.450739
21
-5.36357
0
LINE
8
BLACK
6
CONTINUOUS
10
0.510731
20
-5.44231
11
0.510731
21
-5.38982
0
LINE
8
BLACK
6
CONTINUOUS
10
0.510731
20
-5.39732
11
0.514481
21
-5.39357
0
LINE
8
BLACK
6
CONTINUOUS
10
0.514481
20
-5.39357
11
0.52198
21
-5.38982
0
LINE
8
BLACK
6
CONTINUOUS
10
0.52198
20
-5.38982
11
0.533228
21
-5.38982
0
LINE
8
BLACK
6
CONTINUOUS
10
0.533228
20
-5.38982
11
0.540727
21
-5.39357
0
LINE
8
BLACK
6
CONTINUOUS
10
0.540727
20
-5.39357
11
0.544477
21
-5.40107
0
LINE
8
BLACK
6
CONTINUOUS
10
0.544477
20
-5.40107
11
0.544477
21
-5.44231
0
LINE
8
BLACK
6
CONTINUOUS
10
0.544477
20
-5.40107
11
0.548226
21
-5.39357
0
LINE
8
BLACK
6
CONTINUOUS
10
0.548226
20
-5.39357
11
0.555726
21
-5.38982
0
LINE
8
BLACK
6
CONTINUOUS
10
0.555726
20
-5.38982
11
0.566974
21
-5.38982
0
LINE
8
BLACK
6
CONTINUOUS
10
0.566974
20
-5.38982
11
0.574473
21
-5.39357
0
LINE
8
BLACK
6
CONTINUOUS
10
0.574473
20
-5.39357
11
0.578223
21
-5.40107
0
LINE
8
BLACK
6
CONTINUOUS
10
0.578223
20
-5.40107
11
0.578223
21
-5.44231
0
LINE
8
BLACK
6
CONTINUOUS
10
0.615718
20
-5.44231
11
0.615718
21
-5.38982
0
LINE
8
BLACK
6
CONTINUOUS
10
0.615718
20
-5.39732
11
0.619468
21
-5.39357
0
LINE
8
BLACK
6
CONTINUOUS
10
0.619468
20
-5.39357
11
0.626967
21
-5.38982
0
LINE
8
BLACK
6
CONTINUOUS
10
0.626967
20
-5.38982
11
0.638215
21
-5.38982
0
LINE
8
BLACK
6
CONTINUOUS
10
0.638215
20
-5.38982
11
0.645714
21
-5.39357
0
LINE
8
BLACK
6
CONTINUOUS
10
0.645714
20
-5.39357
11
0.649464
21
-5.40107
0
LINE
8
BLACK
6
CONTINUOUS
10
0.649464
20
-5.40107
11
0.649464
21
-5.44231
0
LINE
8
BLACK
6
CONTINUOUS
10
0.649464
20
-5.40107
11
0.653213
21
-5.39357
0
LINE
8
BLACK
6
CONTINUOUS
10
0.653213
20
-5.39357
11
0.660712
21
-5.38982
0
LINE
8
BLACK
6
CONTINUOUS
10
0.660712
20
-5.38982
11
0.671961
21
-5.38982
0
LINE
8
BLACK
6
CONTINUOUS
10
0.671961
20
-5.38982
11
0.67946
21
-5.39357
0
LINE
8
BLACK
6
CONTINUOUS
10
0.67946
20
-5.39357
11
0.68321
21
-5.40107
0
LINE
8
BLACK
6
CONTINUOUS
10
0.68321
20
-5.40107
11
0.68321
21
-5.44231
0
LINE
8
BLACK
6
CONTINUOUS
10
0.824192
20
-5.35982
11
0.7567
21
-5.46106
0
LINE
8
BLACK
6
CONTINUOUS
10
0.912681
20
-5.36357
11
0.92018
21
-5.36357
0
LINE
8
BLACK
6
CONTINUOUS
10
0.92018
20
-5.36357
11
0.927679
21
-5.36732
0
LINE
8
BLACK
6
CONTINUOUS
10
0.927679
20
-5.36732
11
0.931429
21
-5.37107
0
LINE
8
BLACK
6
CONTINUOUS
10
0.931429
20
-5.37107
11
0.935178
21
-5.37857
0
LINE
8
BLACK
6
CONTINUOUS
10
0.935178
20
-5.37857
11
0.938928
21
-5.39357
0
LINE
8
BLACK
6
CONTINUOUS
10
0.938928
20
-5.39357
11
0.938928
21
-5.41232
0
LINE
8
BLACK
6
CONTINUOUS
10
0.938928
20
-5.41232
11
0.935178
21
-5.42732
0
LINE
8
BLACK
6
CONTINUOUS
10
0.935178
20
-5.42732
11
0.931429
21
-5.43481
0
LINE
8
BLACK
6
CONTINUOUS
10
0.931429
20
-5.43481
11
0.927679
21
-5.43856
0
LINE
8
BLACK
6
CONTINUOUS
10
0.927679
20
-5.43856
11
0.92018
21
-5.44231
0
LINE
8
BLACK
6
CONTINUOUS
10
0.92018
20
-5.44231
11
0.912681
21
-5.44231
0
LINE
8
BLACK
6
CONTINUOUS
10
0.912681
20
-5.44231
11
0.905182
21
-5.43856
0
LINE
8
BLACK
6
CONTINUOUS
10
0.905182
20
-5.43856
11
0.901432
21
-5.43481
0
LINE
8
BLACK
6
CONTINUOUS
10
0.901432
20
-5.43481
11
0.897683
21
-5.42732
0
LINE
8
BLACK
6
CONTINUOUS
10
0.897683
20
-5.42732
11
0.893933
21
-5.41232
0
LINE
8
BLACK
6
CONTINUOUS
10
0.893933
20
-5.41232
11
0.893933
21
-5.39357
0
LINE
8
BLACK
6
CONTINUOUS
10
0.893933
20
-5.39357
11
0.897683
21
-5.37857
0
LINE
8
BLACK
6
CONTINUOUS
10
0.897683
20
-5.37857
11
0.901432
21
-5.37107
0
LINE
8
BLACK
6
CONTINUOUS
10
0.901432
20
-5.37107
11
0.905182
21
-5.36732
0
LINE
8
BLACK
6
CONTINUOUS
10
0.905182
20
-5.36732
11
0.912681
21
-5.36357
0
LINE
8
BLACK
6
CONTINUOUS
10
0.972673
20
-5.43481
11
0.976423
21
-5.43856
0
LINE
8
BLACK
6
CONTINUOUS
10
0.976423
20
-5.43856
11
0.972673
21
-5.44231
0
LINE
8
BLACK
6
CONTINUOUS
10
0.972673
20
-5.44231
11
0.968924
21
-5.43856
0
LINE
8
BLACK
6
CONTINUOUS
10
0.968924
20
-5.43856
11
0.972673
21
-5.43481
0
LINE
8
BLACK
6
CONTINUOUS
10
0.972673
20
-5.43481
11
0.972673
21
-5.44231
0
LINE
8
BLACK
6
CONTINUOUS
10
1.02517
20
-5.36357
11
1.03267
21
-5.36357
0
LINE
8
BLACK
6
CONTINUOUS
10
1.03267
20
-5.36357
11
1.04017
21
-5.36732
0
LINE
8
BLACK
6
CONTINUOUS
10
1.04017
20
-5.36732
11
1.04391
21
-5.37107
0
LINE
8
BLACK
6
CONTINUOUS
10
1.04391
20
-5.37107
11
1.04766
21
-5.37857
0
LINE
8
BLACK
6
CONTINUOUS
10
1.04766
20
-5.37857
11
1.05141
21
-5.39357
0
LINE
8
BLACK
6
CONTINUOUS
10
1.05141
20
-5.39357
11
1.05141
21
-5.41232
0
LINE
8
BLACK
6
CONTINUOUS
10
1.05141
20
-5.41232
11
1.04766
21
-5.42732
0
LINE
8
BLACK
6
CONTINUOUS
10
1.04766
20
-5.42732
11
1.04391
21
-5.43481
0
LINE
8
BLACK
6
CONTINUOUS
10
1.04391
20
-5.43481
11
1.04017
21
-5.43856
0
LINE
8
BLACK
6
CONTINUOUS
10
1.04017
20
-5.43856
11
1.03267
21
-5.44231
0
LINE
8
BLACK
6
CONTINUOUS
10
1.03267
20
-5.44231
11
1.02517
21
-5.44231
0
LINE
8
BLACK
6
CONTINUOUS
10
1.02517
20
-5.44231
11
1.01767
21
-5.43856
0
LINE
8
BLACK
6
CONTINUOUS
10
1.01767
20
-5.43856
11
1.01392
21
-5.43481
0
LINE
8
BLACK
6
CONTINUOUS
10
1.01392
20
-5.43481
11
1.01017
21
-5.42732
0
LINE
8
BLACK
6
CONTINUOUS
10
1.01017
20
-5.42732
11
1.00642
21
-5.41232
0
LINE
8
BLACK
6
CONTINUOUS
10
1.00642
20
-5.41232
11
1.00642
21
-5.39357
0
LINE
8
BLACK
6
CONTINUOUS
10
1.00642
20
-5.39357
11
1.01017
21
-5.37857
0
LINE
8
BLACK
6
CONTINUOUS
10
1.01017
20
-5.37857
11
1.01392
21
-5.37107
0
LINE
8
BLACK
6
CONTINUOUS
10
1.01392
20
-5.37107
11
1.01767
21
-5.36732
0
LINE
8
BLACK
6
CONTINUOUS
10
1.01767
20
-5.36732
11
1.02517
21
-5.36357
0
LINE
8
BLACK
6
CONTINUOUS
10
1.11891
20
-5.36357
11
1.10391
21
-5.36357
0
LINE
8
BLACK
6
CONTINUOUS
10
1.10391
20
-5.36357
11
1.09641
21
-5.36732
0
LINE
8
BLACK
6
CONTINUOUS
10
1.09641
20
-5.36732
11
1.09266
21
-5.37107
0
LINE
8
BLACK
6
CONTINUOUS
10
1.09266
20
-5.37107
11
1.08516
21
-5.38232
0
LINE
8
BLACK
6
CONTINUOUS
10
1.08516
20
-5.38232
11
1.08141
21
-5.39732
0
LINE
8
BLACK
6
CONTINUOUS
10
1.08141
20
-5.39732
11
1.08141
21
-5.42732
0
LINE
8
BLACK
6
CONTINUOUS
10
1.08141
20
-5.42732
11
1.08516
21
-5.43481
0
LINE
8
BLACK
6
CONTINUOUS
10
1.08516
20
-5.43481
11
1.08891
21
-5.43856
0
LINE
8
BLACK
6
CONTINUOUS
10
1.08891
20
-5.43856
11
1.09641
21
-5.44231
0
LINE
8
BLACK
6
CONTINUOUS
10
1.09641
20
-5.44231
11
1.11141
21
-5.44231
0
LINE
8
BLACK
6
CONTINUOUS
10
1.11141
20
-5.44231
11
1.11891
21
-5.43856
0
LINE
8
BLACK
6
CONTINUOUS
10
1.11891
20
-5.43856
11
1.12265
21
-5.43481
0
LINE
8
BLACK
6
CONTINUOUS
10
1.12265
20
-5.43481
11
1.1264
21
-5.42732
0
LINE
8
BLACK
6
CONTINUOUS
10
1.1264
20
-5.42732
11
1.1264
21
-5.40857
0
LINE
8
BLACK
6
CONTINUOUS
10
1.1264
20
-5.40857
11
1.12265
21
-5.40107
0
LINE
8
BLACK
6
CONTINUOUS
10
1.12265
20
-5.40107
11
1.11891
21
-5.39732
0
LINE
8
BLACK
6
CONTINUOUS
10
1.11891
20
-5.39732
11
1.11141
21
-5.39357
0
LINE
8
BLACK
6
CONTINUOUS
10
1.11141
20
-5.39357
11
1.09641
21
-5.39357
0
LINE
8
BLACK
6
CONTINUOUS
10
1.09641
20
-5.39357
11
1.08891
21
-5.39732
0
LINE
8
BLACK
6
CONTINUOUS
10
1.08891
20
-5.39732
11
1.08516
21
-5.40107
0
LINE
8
BLACK
6
CONTINUOUS
10
1.08516
20
-5.40107
11
1.08141
21
-5.40857
0
LINE
8
BLACK
6
CONTINUOUS
10
1.1714
20
-5.39732
11
1.1639
21
-5.39357
0
LINE
8
BLACK
6
CONTINUOUS
10
1.1639
20
-5.39357
11
1.16015
21
-5.38982
0
LINE
8
BLACK
6
CONTINUOUS
10
1.16015
20
-5.38982
11
1.1564
21
-5.38232
0
LINE
8
BLACK
6
CONTINUOUS
10
1.1564
20
-5.38232
11
1.1564
21
-5.37857
0
LINE
8
BLACK
6
CONTINUOUS
10
1.1564
20
-5.37857
11
1.16015
21
-5.37107
0
LINE
8
BLACK
6
CONTINUOUS
10
1.16015
20
-5.37107
11
1.1639
21
-5.36732
0
LINE
8
BLACK
6
CONTINUOUS
10
1.1639
20
-5.36732
11
1.1714
21
-5.36357
0
LINE
8
BLACK
6
CONTINUOUS
10
1.1714
20
-5.36357
11
1.1864
21
-5.36357
0
LINE
8
BLACK
6
CONTINUOUS
10
1.1864
20
-5.36357
11
1.1939
21
-5.36732
0
LINE
8
BLACK
6
CONTINUOUS
10
1.1939
20
-5.36732
11
1.19765
21
-5.37107
0
LINE
8
BLACK
6
CONTINUOUS
10
1.19765
20
-5.37107
11
1.20139
21
-5.37857
0
LINE
8
BLACK
6
CONTINUOUS
10
1.20139
20
-5.37857
11
1.20139
21
-5.38232
0
LINE
8
BLACK
6
CONTINUOUS
10
1.20139
20
-5.38232
11
1.19765
21
-5.38982
0
LINE
8
BLACK
6
CONTINUOUS
10
1.19765
20
-5.38982
11
1.1939
21
-5.39357
0
LINE
8
BLACK
6
CONTINUOUS
10
1.1939
20
-5.39357
11
1.1864
21
-5.39732
0
LINE
8
BLACK
6
CONTINUOUS
10
1.1864
20
-5.39732
11
1.1714
21
-5.39732
0
LINE
8
BLACK
6
CONTINUOUS
10
1.1714
20
-5.39732
11
1.1639
21
-5.40107
0
LINE
8
BLACK
6
CONTINUOUS
10
1.1639
20
-5.40107
11
1.16015
21
-5.40482
0
LINE
8
BLACK
6
CONTINUOUS
10
1.16015
20
-5.40482
11
1.1564
21
-5.41232
0
LINE
8
BLACK
6
CONTINUOUS
10
1.1564
20
-5.41232
11
1.1564
21
-5.42732
0
LINE
8
BLACK
6
CONTINUOUS
10
1.1564
20
-5.42732
11
1.16015
21
-5.43481
0
LINE
8
BLACK
6
CONTINUOUS
10
1.16015
20
-5.43481
11
1.1639
21
-5.43856
0
LINE
8
BLACK
6
CONTINUOUS
10
1.1639
20
-5.43856
11
1.1714
21
-5.44231
0
LINE
8
BLACK
6
CONTINUOUS
10
1.1714
20
-5.44231
11
1.1864
21
-5.44231
0
LINE
8
BLACK
6
CONTINUOUS
10
1.1864
20
-5.44231
11
1.1939
21
-5.43856
0
LINE
8
BLACK
6
CONTINUOUS
10
1.1939
20
-5.43856
11
1.19765
21
-5.43481
0
LINE
8
BLACK
6
CONTINUOUS
10
1.19765
20
-5.43481
11
1.20139
21
-5.42732
0
LINE
8
BLACK
6
CONTINUOUS
10
1.20139
20
-5.42732
11
1.20139
21
-5.41232
0
LINE
8
BLACK
6
CONTINUOUS
10
1.20139
20
-5.41232
11
1.19765
21
-5.40482
0
LINE
8
BLACK
6
CONTINUOUS
10
1.19765
20
-5.40482
11
1.1939
21
-5.40107
0
LINE
8
BLACK
6
CONTINUOUS
10
1.1939
20
-5.40107
11
1.1864
21
-5.39732
0
LINE
8
BLACK
6
CONTINUOUS
10
1.23889
20
-5.44231
11
1.25389
21
-5.44231
0
LINE
8
BLACK
6
CONTINUOUS
10
1.25389
20
-5.44231
11
1.26139
21
-5.43856
0
LINE
8
BLACK
6
CONTINUOUS
10
1.26139
20
-5.43856
11
1.26514
21
-5.43481
0
LINE
8
BLACK
6
CONTINUOUS
10
1.26514
20
-5.43481
11
1.27264
21
-5.42357
0
LINE
8
BLACK
6
CONTINUOUS
10
1.27264
20
-5.42357
11
1.27639
21
-5.40857
0
LINE
8
BLACK
6
CONTINUOUS
10
1.27639
20
-5.40857
11
1.27639
21
-5.37857
0
LINE
8
BLACK
6
CONTINUOUS
10
1.27639
20
-5.37857
11
1.27264
21
-5.37107
0
LINE
8
BLACK
6
CONTINUOUS
10
1.27264
20
-5.37107
11
1.26889
21
-5.36732
0
LINE
8
BLACK
6
CONTINUOUS
10
1.26889
20
-5.36732
11
1.26139
21
-5.36357
0
LINE
8
BLACK
6
CONTINUOUS
10
1.26139
20
-5.36357
11
1.24639
21
-5.36357
0
LINE
8
BLACK
6
CONTINUOUS
10
1.24639
20
-5.36357
11
1.23889
21
-5.36732
0
LINE
8
BLACK
6
CONTINUOUS
10
1.23889
20
-5.36732
11
1.23514
21
-5.37107
0
LINE
8
BLACK
6
CONTINUOUS
10
1.23514
20
-5.37107
11
1.23139
21
-5.37857
0
LINE
8
BLACK
6
CONTINUOUS
10
1.23139
20
-5.37857
11
1.23139
21
-5.39732
0
LINE
8
BLACK
6
CONTINUOUS
10
1.23139
20
-5.39732
11
1.23514
21
-5.40482
0
LINE
8
BLACK
6
CONTINUOUS
10
1.23514
20
-5.40482
11
1.23889
21
-5.40857
0
LINE
8
BLACK
6
CONTINUOUS
10
1.23889
20
-5.40857
11
1.24639
21
-5.41232
0
LINE
8
BLACK
6
CONTINUOUS
10
1.24639
20
-5.41232
11
1.26139
21
-5.41232
0
LINE
8
BLACK
6
CONTINUOUS
10
1.26139
20
-5.41232
11
1.26889
21
-5.40857
0
LINE
8
BLACK
6
CONTINUOUS
10
1.26889
20
-5.40857
11
1.27264
21
-5.40482
0
LINE
8
BLACK
6
CONTINUOUS
10
1.27264
20
-5.40482
11
1.27639
21
-5.39732
0
LINE
8
BLACK
6
CONTINUOUS
10
1.30638
20
-5.36357
11
1.30638
21
-5.37857
0
LINE
8
BLACK
6
CONTINUOUS
10
1.33638
20
-5.36357
11
1.33638
21
-5.37857
0
LINE
8
BLACK
6
CONTINUOUS
10
1.43987
20
-5.47231
11
1.43612
21
-5.46856
0
LINE
8
BLACK
6
CONTINUOUS
10
1.43612
20
-5.46856
11
1.42862
21
-5.45731
0
LINE
8
BLACK
6
CONTINUOUS
10
1.42862
20
-5.45731
11
1.42487
21
-5.44981
0
LINE
8
BLACK
6
CONTINUOUS
10
1.42487
20
-5.44981
11
1.42112
21
-5.43856
0
LINE
8
BLACK
6
CONTINUOUS
10
1.42112
20
-5.43856
11
1.41737
21
-5.41982
0
LINE
8
BLACK
6
CONTINUOUS
10
1.41737
20
-5.41982
11
1.41737
21
-5.40482
0
LINE
8
BLACK
6
CONTINUOUS
10
1.41737
20
-5.40482
11
1.42112
21
-5.38607
0
LINE
8
BLACK
6
CONTINUOUS
10
1.42112
20
-5.38607
11
1.42487
21
-5.37482
0
LINE
8
BLACK
6
CONTINUOUS
10
1.42487
20
-5.37482
11
1.42862
21
-5.36732
0
LINE
8
BLACK
6
CONTINUOUS
10
1.42862
20
-5.36732
11
1.43612
21
-5.35607
0
LINE
8
BLACK
6
CONTINUOUS
10
1.43612
20
-5.35607
11
1.43987
21
-5.35232
0
LINE
8
BLACK
6
CONTINUOUS
10
1.46611
20
-5.37107
11
1.46986
21
-5.36732
0
LINE
8
BLACK
6
CONTINUOUS
10
1.46986
20
-5.36732
11
1.47736
21
-5.36357
0
LINE
8
BLACK
6
CONTINUOUS
10
1.47736
20
-5.36357
11
1.49611
21
-5.36357
0
LINE
8
BLACK
6
CONTINUOUS
10
1.49611
20
-5.36357
11
1.50361
21
-5.36732
0
LINE
8
BLACK
6
CONTINUOUS
10
1.50361
20
-5.36732
11
1.50736
21
-5.37107
0
LINE
8
BLACK
6
CONTINUOUS
10
1.50736
20
-5.37107
11
1.51111
21
-5.37857
0
LINE
8
BLACK
6
CONTINUOUS
10
1.51111
20
-5.37857
11
1.51111
21
-5.38607
0
LINE
8
BLACK
6
CONTINUOUS
10
1.51111
20
-5.38607
11
1.50736
21
-5.39732
0
LINE
8
BLACK
6
CONTINUOUS
10
1.50736
20
-5.39732
11
1.46236
21
-5.44231
0
LINE
8
BLACK
6
CONTINUOUS
10
1.46236
20
-5.44231
11
1.51111
21
-5.44231
0
LINE
8
BLACK
6
CONTINUOUS
10
1.5861
20
-5.44231
11
1.5411
21
-5.44231
0
LINE
8
BLACK
6
CONTINUOUS
10
1.5636
20
-5.44231
11
1.5636
21
-5.36357
0
LINE
8
BLACK
6
CONTINUOUS
10
1.5636
20
-5.36357
11
1.5561
21
-5.37482
0
LINE
8
BLACK
6
CONTINUOUS
10
1.5561
20
-5.37482
11
1.5486
21
-5.38232
0
LINE
8
BLACK
6
CONTINUOUS
10
1.5486
20
-5.38232
11
1.5411
21
-5.38607
0
LINE
8
BLACK
6
CONTINUOUS
10
1.63109
20
-5.39732
11
1.62359
21
-5.39357
0
LINE
8
BLACK
6
CONTINUOUS
10
1.62359
20
-5.39357
11
1.61984
21
-5.38982
0
LINE
8
BLACK
6
CONTINUOUS
10
1.61984
20
-5.38982
11
1.61609
21
-5.38232
0
LINE
8
BLACK
6
CONTINUOUS
10
1.61609
20
-5.38232
11
1.61609
21
-5.37857
0
LINE
8
BLACK
6
CONTINUOUS
10
1.61609
20
-5.37857
11
1.61984
21
-5.37107
0
LINE
8
BLACK
6
CONTINUOUS
10
1.61984
20
-5.37107
11
1.62359
21
-5.36732
0
LINE
8
BLACK
6
CONTINUOUS
10
1.62359
20
-5.36732
11
1.63109
21
-5.36357
0
LINE
8
BLACK
6
CONTINUOUS
10
1.63109
20
-5.36357
11
1.64609
21
-5.36357
0
LINE
8
BLACK
6
CONTINUOUS
10
1.64609
20
-5.36357
11
1.65359
21
-5.36732
0
LINE
8
BLACK
6
CONTINUOUS
10
1.65359
20
-5.36732
11
1.65734
21
-5.37107
0
LINE
8
BLACK
6
CONTINUOUS
10
1.65734
20
-5.37107
11
1.66109
21
-5.37857
0
LINE
8
BLACK
6
CONTINUOUS
10
1.66109
20
-5.37857
11
1.66109
21
-5.38232
0
LINE
8
BLACK
6
CONTINUOUS
10
1.66109
20
-5.38232
11
1.65734
21
-5.38982
0
LINE
8
BLACK
6
CONTINUOUS
10
1.65734
20
-5.38982
11
1.65359
21
-5.39357
0
LINE
8
BLACK
6
CONTINUOUS
10
1.65359
20
-5.39357
11
1.64609
21
-5.39732
0
LINE
8
BLACK
6
CONTINUOUS
10
1.64609
20
-5.39732
11
1.63109
21
-5.39732
0
LINE
8
BLACK
6
CONTINUOUS
10
1.63109
20
-5.39732
11
1.62359
21
-5.40107
0
LINE
8
BLACK
6
CONTINUOUS
10
1.62359
20
-5.40107
11
1.61984
21
-5.40482
0
LINE
8
BLACK
6
CONTINUOUS
10
1.61984
20
-5.40482
11
1.61609
21
-5.41232
0
LINE
8
BLACK
6
CONTINUOUS
10
1.61609
20
-5.41232
11
1.61609
21
-5.42732
0
LINE
8
BLACK
6
CONTINUOUS
10
1.61609
20
-5.42732
11
1.61984
21
-5.43481
0
LINE
8
BLACK
6
CONTINUOUS
10
1.61984
20
-5.43481
11
1.62359
21
-5.43856
0
LINE
8
BLACK
6
CONTINUOUS
10
1.62359
20
-5.43856
11
1.63109
21
-5.44231
0
LINE
8
BLACK
6
CONTINUOUS
10
1.63109
20
-5.44231
11
1.64609
21
-5.44231
0
LINE
8
BLACK
6
CONTINUOUS
10
1.64609
20
-5.44231
11
1.65359
21
-5.43856
0
LINE
8
BLACK
6
CONTINUOUS
10
1.65359
20
-5.43856
11
1.65734
21
-5.43481
0
LINE
8
BLACK
6
CONTINUOUS
10
1.65734
20
-5.43481
11
1.66109
21
-5.42732
0
LINE
8
BLACK
6
CONTINUOUS
10
1.66109
20
-5.42732
11
1.66109
21
-5.41232
0
LINE
8
BLACK
6
CONTINUOUS
10
1.66109
20
-5.41232
11
1.65734
21
-5.40482
0
LINE
8
BLACK
6
CONTINUOUS
10
1.65734
20
-5.40482
11
1.65359
21
-5.40107
0
LINE
8
BLACK
6
CONTINUOUS
10
1.65359
20
-5.40107
11
1.64609
21
-5.39732
0
LINE
8
BLACK
6
CONTINUOUS
10
1.74208
20
-5.44231
11
1.74208
21
-5.36357
0
LINE
8
BLACK
6
CONTINUOUS
10
1.77582
20
-5.44231
11
1.77582
21
-5.40107
0
LINE
8
BLACK
6
CONTINUOUS
10
1.77582
20
-5.40107
11
1.77207
21
-5.39357
0
LINE
8
BLACK
6
CONTINUOUS
10
1.77207
20
-5.39357
11
1.76457
21
-5.38982
0
LINE
8
BLACK
6
CONTINUOUS
10
1.76457
20
-5.38982
11
1.75333
21
-5.38982
0
LINE
8
BLACK
6
CONTINUOUS
10
1.75333
20
-5.38982
11
1.74583
21
-5.39357
0
LINE
8
BLACK
6
CONTINUOUS
10
1.74583
20
-5.39357
11
1.74208
21
-5.39732
0
LINE
8
BLACK
6
CONTINUOUS
10
1.82457
20
-5.44231
11
1.81707
21
-5.43856
0
LINE
8
BLACK
6
CONTINUOUS
10
1.81707
20
-5.43856
11
1.81332
21
-5.43481
0
LINE
8
BLACK
6
CONTINUOUS
10
1.81332
20
-5.43481
11
1.80957
21
-5.42732
0
LINE
8
BLACK
6
CONTINUOUS
10
1.80957
20
-5.42732
11
1.80957
21
-5.40482
0
LINE
8
BLACK
6
CONTINUOUS
10
1.80957
20
-5.40482
11
1.81332
21
-5.39732
0
LINE
8
BLACK
6
CONTINUOUS
10
1.81332
20
-5.39732
11
1.81707
21
-5.39357
0
LINE
8
BLACK
6
CONTINUOUS
10
1.81707
20
-5.39357
11
1.82457
21
-5.38982
0
LINE
8
BLACK
6
CONTINUOUS
10
1.82457
20
-5.38982
11
1.83582
21
-5.38982
0
LINE
8
BLACK
6
CONTINUOUS
10
1.83582
20
-5.38982
11
1.84331
21
-5.39357
0
LINE
8
BLACK
6
CONTINUOUS
10
1.84331
20
-5.39357
11
1.84706
21
-5.39732
0
LINE
8
BLACK
6
CONTINUOUS
10
1.84706
20
-5.39732
11
1.85081
21
-5.40482
0
LINE
8
BLACK
6
CONTINUOUS
10
1.85081
20
-5.40482
11
1.85081
21
-5.42732
0
LINE
8
BLACK
6
CONTINUOUS
10
1.85081
20
-5.42732
11
1.84706
21
-5.43481
0
LINE
8
BLACK
6
CONTINUOUS
10
1.84706
20
-5.43481
11
1.84331
21
-5.43856
0
LINE
8
BLACK
6
CONTINUOUS
10
1.84331
20
-5.43856
11
1.83582
21
-5.44231
0
LINE
8
BLACK
6
CONTINUOUS
10
1.83582
20
-5.44231
11
1.82457
21
-5.44231
0
LINE
8
BLACK
6
CONTINUOUS
10
1.89581
20
-5.44231
11
1.88831
21
-5.43856
0
LINE
8
BLACK
6
CONTINUOUS
10
1.88831
20
-5.43856
11
1.88456
21
-5.43106
0
LINE
8
BLACK
6
CONTINUOUS
10
1.88456
20
-5.43106
11
1.88456
21
-5.36357
0
LINE
8
BLACK
6
CONTINUOUS
10
1.9558
20
-5.43856
11
1.9483
21
-5.44231
0
LINE
8
BLACK
6
CONTINUOUS
10
1.9483
20
-5.44231
11
1.9333
21
-5.44231
0
LINE
8
BLACK
6
CONTINUOUS
10
1.9333
20
-5.44231
11
1.9258
21
-5.43856
0
LINE
8
BLACK
6
CONTINUOUS
10
1.9258
20
-5.43856
11
1.92205
21
-5.43106
0
LINE
8
BLACK
6
CONTINUOUS
10
1.92205
20
-5.43106
11
1.92205
21
-5.40107
0
LINE
8
BLACK
6
CONTINUOUS
10
1.92205
20
-5.40107
11
1.9258
21
-5.39357
0
LINE
8
BLACK
6
CONTINUOUS
10
1.9258
20
-5.39357
11
1.9333
21
-5.38982
0
LINE
8
BLACK
6
CONTINUOUS
10
1.9333
20
-5.38982
11
1.9483
21
-5.38982
0
LINE
8
BLACK
6
CONTINUOUS
10
1.9483
20
-5.38982
11
1.9558
21
-5.39357
0
LINE
8
BLACK
6
CONTINUOUS
10
1.9558
20
-5.39357
11
1.95955
21
-5.40107
0
LINE
8
BLACK
6
CONTINUOUS
10
1.95955
20
-5.40107
11
1.95955
21
-5.40857
0
LINE
8
BLACK
6
CONTINUOUS
10
1.95955
20
-5.40857
11
1.92205
21
-5.41607
0
LINE
8
BLACK
6
CONTINUOUS
10
1.98955
20
-5.43856
11
1.99705
21
-5.44231
0
LINE
8
BLACK
6
CONTINUOUS
10
1.99705
20
-5.44231
11
2.01204
21
-5.44231
0
LINE
8
BLACK
6
CONTINUOUS
10
2.01204
20
-5.44231
11
2.01954
21
-5.43856
0
LINE
8
BLACK
6
CONTINUOUS
10
2.01954
20
-5.43856
11
2.02329
21
-5.43106
0
LINE
8
BLACK
6
CONTINUOUS
10
2.02329
20
-5.43106
11
2.02329
21
-5.42732
0
LINE
8
BLACK
6
CONTINUOUS
10
2.02329
20
-5.42732
11
2.01954
21
-5.41982
0
LINE
8
BLACK
6
CONTINUOUS
10
2.01954
20
-5.41982
11
2.01204
21
-5.41607
0
LINE
8
BLACK
6
CONTINUOUS
10
2.01204
20
-5.41607
11
2.0008
21
-5.41607
0
LINE
8
BLACK
6
CONTINUOUS
10
2.0008
20
-5.41607
11
1.9933
21
-5.41232
0
LINE
8
BLACK
6
CONTINUOUS
10
1.9933
20
-5.41232
11
1.98955
21
-5.40482
0
LINE
8
BLACK
6
CONTINUOUS
10
1.98955
20
-5.40482
11
1.98955
21
-5.40107
0
LINE
8
BLACK
6
CONTINUOUS
10
1.98955
20
-5.40107
11
1.9933
21
-5.39357
0
LINE
8
BLACK
6
CONTINUOUS
10
1.9933
20
-5.39357
11
2.0008
21
-5.38982
0
LINE
8
BLACK
6
CONTINUOUS
10
2.0008
20
-5.38982
11
2.01204
21
-5.38982
0
LINE
8
BLACK
6
CONTINUOUS
10
2.01204
20
-5.38982
11
2.01954
21
-5.39357
0
LINE
8
BLACK
6
CONTINUOUS
10
2.04954
20
-5.47231
11
2.05329
21
-5.46856
0
LINE
8
BLACK
6
CONTINUOUS
10
2.05329
20
-5.46856
11
2.06079
21
-5.45731
0
LINE
8
BLACK
6
CONTINUOUS
10
2.06079
20
-5.45731
11
2.06454
21
-5.44981
0
LINE
8
BLACK
6
CONTINUOUS
10
2.06454
20
-5.44981
11
2.06829
21
-5.43856
0
LINE
8
BLACK
6
CONTINUOUS
10
2.06829
20
-5.43856
11
2.07204
21
-5.41982
0
LINE
8
BLACK
6
CONTINUOUS
10
2.07204
20
-5.41982
11
2.07204
21
-5.40482
0
LINE
8
BLACK
6
CONTINUOUS
10
2.07204
20
-5.40482
11
2.06829
21
-5.38607
0
LINE
8
BLACK
6
CONTINUOUS
10
2.06829
20
-5.38607
11
2.06454
21
-5.37482
0
LINE
8
BLACK
6
CONTINUOUS
10
2.06454
20
-5.37482
11
2.06079
21
-5.36732
0
LINE
8
BLACK
6
CONTINUOUS
10
2.06079
20
-5.36732
11
2.05329
21
-5.35607
0
LINE
8
BLACK
6
CONTINUOUS
10
2.05329
20
-5.35607
11
2.04954
21
-5.35232
0
LINE
8
BLACK
6
CONTINUOUS
10
2.17927
20
-5.47231
11
2.17552
21
-5.46856
0
LINE
8
BLACK
6
CONTINUOUS
10
2.17552
20
-5.46856
11
2.16802
21
-5.45731
0
LINE
8
BLACK
6
CONTINUOUS
10
2.16802
20
-5.45731
11
2.16427
21
-5.44981
0
LINE
8
BLACK
6
CONTINUOUS
10
2.16427
20
-5.44981
11
2.16053
21
-5.43856
0
LINE
8
BLACK
6
CONTINUOUS
10
2.16053
20
-5.43856
11
2.15678
21
-5.41982
0
LINE
8
BLACK
6
CONTINUOUS
10
2.15678
20
-5.41982
11
2.15678
21
-5.40482
0
LINE
8
BLACK
6
CONTINUOUS
10
2.15678
20
-5.40482
11
2.16053
21
-5.38607
0
LINE
8
BLACK
6
CONTINUOUS
10
2.16053
20
-5.38607
11
2.16427
21
-5.37482
0
LINE
8
BLACK
6
CONTINUOUS
10
2.16427
20
-5.37482
11
2.16802
21
-5.36732
0
LINE
8
BLACK
6
CONTINUOUS
10
2.16802
20
-5.36732
11
2.17552
21
-5.35607
0
LINE
8
BLACK
6
CONTINUOUS
10
2.17552
20
-5.35607
11
2.17927
21
-5.35232
0
LINE
8
BLACK
6
CONTINUOUS
10
2.20927
20
-5.38982
11
2.20927
21
-5.44231
0
LINE
8
BLACK
6
CONTINUOUS
10
2.20927
20
-5.39732
11
2.21302
21
-5.39357
0
LINE
8
BLACK
6
CONTINUOUS
10
2.21302
20
-5.39357
11
2.22052
21
-5.38982
0
LINE
8
BLACK
6
CONTINUOUS
10
2.22052
20
-5.38982
11
2.23177
21
-5.38982
0
LINE
8
BLACK
6
CONTINUOUS
10
2.23177
20
-5.38982
11
2.23927
21
-5.39357
0
LINE
8
BLACK
6
CONTINUOUS
10
2.23927
20
-5.39357
11
2.24301
21
-5.40107
0
LINE
8
BLACK
6
CONTINUOUS
10
2.24301
20
-5.40107
11
2.24301
21
-5.44231
0
LINE
8
BLACK
6
CONTINUOUS
10
2.29176
20
-5.44231
11
2.28426
21
-5.43856
0
LINE
8
BLACK
6
CONTINUOUS
10
2.28426
20
-5.43856
11
2.28051
21
-5.43481
0
LINE
8
BLACK
6
CONTINUOUS
10
2.28051
20
-5.43481
11
2.27676
21
-5.42732
0
LINE
8
BLACK
6
CONTINUOUS
10
2.27676
20
-5.42732
11
2.27676
21
-5.40482
0
LINE
8
BLACK
6
CONTINUOUS
10
2.27676
20
-5.40482
11
2.28051
21
-5.39732
0
LINE
8
BLACK
6
CONTINUOUS
10
2.28051
20
-5.39732
11
2.28426
21
-5.39357
0
LINE
8
BLACK
6
CONTINUOUS
10
2.28426
20
-5.39357
11
2.29176
21
-5.38982
0
LINE
8
BLACK
6
CONTINUOUS
10
2.29176
20
-5.38982
11
2.30301
21
-5.38982
0
LINE
8
BLACK
6
CONTINUOUS
10
2.30301
20
-5.38982
11
2.31051
21
-5.39357
0
LINE
8
BLACK
6
CONTINUOUS
10
2.31051
20
-5.39357
11
2.31426
21
-5.39732
0
LINE
8
BLACK
6
CONTINUOUS
10
2.31426
20
-5.39732
11
2.31801
21
-5.40482
0
LINE
8
BLACK
6
CONTINUOUS
10
2.31801
20
-5.40482
11
2.31801
21
-5.42732
0
LINE
8
BLACK
6
CONTINUOUS
10
2.31801
20
-5.42732
11
2.31426
21
-5.43481
0
LINE
8
BLACK
6
CONTINUOUS
10
2.31426
20
-5.43481
11
2.31051
21
-5.43856
0
LINE
8
BLACK
6
CONTINUOUS
10
2.31051
20
-5.43856
11
2.30301
21
-5.44231
0
LINE
8
BLACK
6
CONTINUOUS
10
2.30301
20
-5.44231
11
2.29176
21
-5.44231
0
LINE
8
BLACK
6
CONTINUOUS
10
2.3405
20
-5.38982
11
2.3705
21
-5.38982
0
LINE
8
BLACK
6
CONTINUOUS
10
2.35175
20
-5.36357
11
2.35175
21
-5.43106
0
LINE
8
BLACK
6
CONTINUOUS
10
2.35175
20
-5.43106
11
2.3555
21
-5.43856
0
LINE
8
BLACK
6
CONTINUOUS
10
2.3555
20
-5.43856
11
2.363
21
-5.44231
0
LINE
8
BLACK
6
CONTINUOUS
10
2.363
20
-5.44231
11
2.3705
21
-5.44231
0
LINE
8
BLACK
6
CONTINUOUS
10
2.44399
20
-5.38982
11
2.44399
21
-5.46856
0
LINE
8
BLACK
6
CONTINUOUS
10
2.44399
20
-5.39357
11
2.45149
21
-5.38982
0
LINE
8
BLACK
6
CONTINUOUS
10
2.45149
20
-5.38982
11
2.46649
21
-5.38982
0
LINE
8
BLACK
6
CONTINUOUS
10
2.46649
20
-5.38982
11
2.47399
21
-5.39357
0
LINE
8
BLACK
6
CONTINUOUS
10
2.47399
20
-5.39357
11
2.47774
21
-5.39732
0
LINE
8
BLACK
6
CONTINUOUS
10
2.47774
20
-5.39732
11
2.48148
21
-5.40482
0
LINE
8
BLACK
6
CONTINUOUS
10
2.48148
20
-5.40482
11
2.48148
21
-5.42732
0
LINE
8
BLACK
6
CONTINUOUS
10
2.48148
20
-5.42732
11
2.47774
21
-5.43481
0
LINE
8
BLACK
6
CONTINUOUS
10
2.47774
20
-5.43481
11
2.47399
21
-5.43856
0
LINE
8
BLACK
6
CONTINUOUS
10
2.47399
20
-5.43856
11
2.46649
21
-5.44231
0
LINE
8
BLACK
6
CONTINUOUS
10
2.46649
20
-5.44231
11
2.45149
21
-5.44231
0
LINE
8
BLACK
6
CONTINUOUS
10
2.45149
20
-5.44231
11
2.44399
21
-5.43856
0
LINE
8
BLACK
6
CONTINUOUS
10
2.52648
20
-5.44231
11
2.51898
21
-5.43856
0
LINE
8
BLACK
6
CONTINUOUS
10
2.51898
20
-5.43856
11
2.51523
21
-5.43106
0
LINE
8
BLACK
6
CONTINUOUS
10
2.51523
20
-5.43106
11
2.51523
21
-5.36357
0
LINE
8
BLACK
6
CONTINUOUS
10
2.59022
20
-5.44231
11
2.59022
21
-5.40107
0
LINE
8
BLACK
6
CONTINUOUS
10
2.59022
20
-5.40107
11
2.58647
21
-5.39357
0
LINE
8
BLACK
6
CONTINUOUS
10
2.58647
20
-5.39357
11
2.57897
21
-5.38982
0
LINE
8
BLACK
6
CONTINUOUS
10
2.57897
20
-5.38982
11
2.56397
21
-5.38982
0
LINE
8
BLACK
6
CONTINUOUS
10
2.56397
20
-5.38982
11
2.55648
21
-5.39357
0
LINE
8
BLACK
6
CONTINUOUS
10
2.59022
20
-5.43856
11
2.58272
21
-5.44231
0
LINE
8
BLACK
6
CONTINUOUS
10
2.58272
20
-5.44231
11
2.56397
21
-5.44231
0
LINE
8
BLACK
6
CONTINUOUS
10
2.56397
20
-5.44231
11
2.55648
21
-5.43856
0
LINE
8
BLACK
6
CONTINUOUS
10
2.55648
20
-5.43856
11
2.55273
21
-5.43106
0
LINE
8
BLACK
6
CONTINUOUS
10
2.55273
20
-5.43106
11
2.55273
21
-5.42357
0
LINE
8
BLACK
6
CONTINUOUS
10
2.55273
20
-5.42357
11
2.55648
21
-5.41607
0
LINE
8
BLACK
6
CONTINUOUS
10
2.55648
20
-5.41607
11
2.56397
21
-5.41232
0
LINE
8
BLACK
6
CONTINUOUS
10
2.56397
20
-5.41232
11
2.58272
21
-5.41232
0
LINE
8
BLACK
6
CONTINUOUS
10
2.58272
20
-5.41232
11
2.59022
21
-5.40857
0
LINE
8
BLACK
6
CONTINUOUS
10
2.61647
20
-5.38982
11
2.64646
21
-5.38982
0
LINE
8
BLACK
6
CONTINUOUS
10
2.62772
20
-5.36357
11
2.62772
21
-5.43106
0
LINE
8
BLACK
6
CONTINUOUS
10
2.62772
20
-5.43106
11
2.63147
21
-5.43856
0
LINE
8
BLACK
6
CONTINUOUS
10
2.63147
20
-5.43856
11
2.63897
21
-5.44231
0
LINE
8
BLACK
6
CONTINUOUS
10
2.63897
20
-5.44231
11
2.64646
21
-5.44231
0
LINE
8
BLACK
6
CONTINUOUS
10
2.70271
20
-5.43856
11
2.69521
21
-5.44231
0
LINE
8
BLACK
6
CONTINUOUS
10
2.69521
20
-5.44231
11
2.68021
21
-5.44231
0
LINE
8
BLACK
6
CONTINUOUS
10
2.68021
20
-5.44231
11
2.67271
21
-5.43856
0
LINE
8
BLACK
6
CONTINUOUS
10
2.67271
20
-5.43856
11
2.66896
21
-5.43106
0
LINE
8
BLACK
6
CONTINUOUS
10
2.66896
20
-5.43106
11
2.66896
21
-5.40107
0
LINE
8
BLACK
6
CONTINUOUS
10
2.66896
20
-5.40107
11
2.67271
21
-5.39357
0
LINE
8
BLACK
6
CONTINUOUS
10
2.67271
20
-5.39357
11
2.68021
21
-5.38982
0
LINE
8
BLACK
6
CONTINUOUS
10
2.68021
20
-5.38982
11
2.69521
21
-5.38982
0
LINE
8
BLACK
6
CONTINUOUS
10
2.69521
20
-5.38982
11
2.70271
21
-5.39357
0
LINE
8
BLACK
6
CONTINUOUS
10
2.70271
20
-5.39357
11
2.70646
21
-5.40107
0
LINE
8
BLACK
6
CONTINUOUS
10
2.70646
20
-5.40107
11
2.70646
21
-5.40857
0
LINE
8
BLACK
6
CONTINUOUS
10
2.70646
20
-5.40857
11
2.66896
21
-5.41607
0
LINE
8
BLACK
6
CONTINUOUS
10
2.77395
20
-5.44231
11
2.77395
21
-5.36357
0
LINE
8
BLACK
6
CONTINUOUS
10
2.77395
20
-5.43856
11
2.76645
21
-5.44231
0
LINE
8
BLACK
6
CONTINUOUS
10
2.76645
20
-5.44231
11
2.75145
21
-5.44231
0
LINE
8
BLACK
6
CONTINUOUS
10
2.75145
20
-5.44231
11
2.74395
21
-5.43856
0
LINE
8
BLACK
6
CONTINUOUS
10
2.74395
20
-5.43856
11
2.7402
21
-5.43481
0
LINE
8
BLACK
6
CONTINUOUS
10
2.7402
20
-5.43481
11
2.73645
21
-5.42732
0
LINE
8
BLACK
6
CONTINUOUS
10
2.73645
20
-5.42732
11
2.73645
21
-5.40482
0
LINE
8
BLACK
6
CONTINUOUS
10
2.73645
20
-5.40482
11
2.7402
21
-5.39732
0
LINE
8
BLACK
6
CONTINUOUS
10
2.7402
20
-5.39732
11
2.74395
21
-5.39357
0
LINE
8
BLACK
6
CONTINUOUS
10
2.74395
20
-5.39357
11
2.75145
21
-5.38982
0
LINE
8
BLACK
6
CONTINUOUS
10
2.75145
20
-5.38982
11
2.76645
21
-5.38982
0
LINE
8
BLACK
6
CONTINUOUS
10
2.76645
20
-5.38982
11
2.77395
21
-5.39357
0
LINE
8
BLACK
6
CONTINUOUS
10
2.80394
20
-5.47231
11
2.80769
21
-5.46856
0
LINE
8
BLACK
6
CONTINUOUS
10
2.80769
20
-5.46856
11
2.81519
21
-5.45731
0
LINE
8
BLACK
6
CONTINUOUS
10
2.81519
20
-5.45731
11
2.81894
21
-5.44981
0
LINE
8
BLACK
6
CONTINUOUS
10
2.81894
20
-5.44981
11
2.82269
21
-5.43856
0
LINE
8
BLACK
6
CONTINUOUS
10
2.82269
20
-5.43856
11
2.82644
21
-5.41982
0
LINE
8
BLACK
6
CONTINUOUS
10
2.82644
20
-5.41982
11
2.82644
21
-5.40482
0
LINE
8
BLACK
6
CONTINUOUS
10
2.82644
20
-5.40482
11
2.82269
21
-5.38607
0
LINE
8
BLACK
6
CONTINUOUS
10
2.82269
20
-5.38607
11
2.81894
21
-5.37482
0
LINE
8
BLACK
6
CONTINUOUS
10
2.81894
20
-5.37482
11
2.81519
21
-5.36732
0
LINE
8
BLACK
6
CONTINUOUS
10
2.81519
20
-5.36732
11
2.80769
21
-5.35607
0
LINE
8
BLACK
6
CONTINUOUS
10
2.80769
20
-5.35607
11
2.80394
21
-5.35232
0
CIRCLE
8
BLACK
10
0.0364155
20
-5.52953
40
0.0393701
0
LINE
8
BLACK
6
CONTINUOUS
10
0.165774
20
-5.47971
11
0.214518
21
-5.47971
0
LINE
8
BLACK
6
CONTINUOUS
10
0.214518
20
-5.47971
11
0.188271
21
-5.50971
0
LINE
8
BLACK
6
CONTINUOUS
10
0.188271
20
-5.50971
11
0.19952
21
-5.50971
0
LINE
8
BLACK
6
CONTINUOUS
10
0.19952
20
-5.50971
11
0.207019
21
-5.51346
0
LINE
8
BLACK
6
CONTINUOUS
10
0.207019
20
-5.51346
11
0.210769
21
-5.51721
0
LINE
8
BLACK
6
CONTINUOUS
10
0.210769
20
-5.51721
11
0.214518
21
-5.52471
0
LINE
8
BLACK
6
CONTINUOUS
10
0.214518
20
-5.52471
11
0.214518
21
-5.54346
0
LINE
8
BLACK
6
CONTINUOUS
10
0.214518
20
-5.54346
11
0.210769
21
-5.55096
0
LINE
8
BLACK
6
CONTINUOUS
10
0.210769
20
-5.55096
11
0.207019
21
-5.55471
0
LINE
8
BLACK
6
CONTINUOUS
10
0.207019
20
-5.55471
11
0.19952
21
-5.55846
0
LINE
8
BLACK
6
CONTINUOUS
10
0.19952
20
-5.55846
11
0.177023
21
-5.55846
0
LINE
8
BLACK
6
CONTINUOUS
10
0.177023
20
-5.55846
11
0.169524
21
-5.55471
0
LINE
8
BLACK
6
CONTINUOUS
10
0.169524
20
-5.55471
11
0.165774
21
-5.55096
0
LINE
8
BLACK
6
CONTINUOUS
10
0.248264
20
-5.55096
11
0.252014
21
-5.55471
0
LINE
8
BLACK
6
CONTINUOUS
10
0.252014
20
-5.55471
11
0.248264
21
-5.55846
0
LINE
8
BLACK
6
CONTINUOUS
10
0.248264
20
-5.55846
11
0.244514
21
-5.55471
0
LINE
8
BLACK
6
CONTINUOUS
10
0.244514
20
-5.55471
11
0.248264
21
-5.55096
0
LINE
8
BLACK
6
CONTINUOUS
10
0.248264
20
-5.55096
11
0.248264
21
-5.55846
0
LINE
8
BLACK
6
CONTINUOUS
10
0.289509
20
-5.55846
11
0.304507
21
-5.55846
0
LINE
8
BLACK
6
CONTINUOUS
10
0.304507
20
-5.55846
11
0.312006
21
-5.55471
0
LINE
8
BLACK
6
CONTINUOUS
10
0.312006
20
-5.55471
11
0.315756
21
-5.55096
0
LINE
8
BLACK
6
CONTINUOUS
10
0.315756
20
-5.55096
11
0.323255
21
-5.53971
0
LINE
8
BLACK
6
CONTINUOUS
10
0.323255
20
-5.53971
11
0.327004
21
-5.52471
0
LINE
8
BLACK
6
CONTINUOUS
10
0.327004
20
-5.52471
11
0.327004
21
-5.49471
0
LINE
8
BLACK
6
CONTINUOUS
10
0.327004
20
-5.49471
11
0.323255
21
-5.48721
0
LINE
8
BLACK
6
CONTINUOUS
10
0.323255
20
-5.48721
11
0.319505
21
-5.48346
0
LINE
8
BLACK
6
CONTINUOUS
10
0.319505
20
-5.48346
11
0.312006
21
-5.47971
0
LINE
8
BLACK
6
CONTINUOUS
10
0.312006
20
-5.47971
11
0.297008
21
-5.47971
0
LINE
8
BLACK
6
CONTINUOUS
10
0.297008
20
-5.47971
11
0.289509
21
-5.48346
0
LINE
8
BLACK
6
CONTINUOUS
10
0.289509
20
-5.48346
11
0.285759
21
-5.48721
0
LINE
8
BLACK
6
CONTINUOUS
10
0.285759
20
-5.48721
11
0.28201
21
-5.49471
0
LINE
8
BLACK
6
CONTINUOUS
10
0.28201
20
-5.49471
11
0.28201
21
-5.51346
0
LINE
8
BLACK
6
CONTINUOUS
10
0.28201
20
-5.51346
11
0.285759
21
-5.52096
0
LINE
8
BLACK
6
CONTINUOUS
10
0.285759
20
-5.52096
11
0.289509
21
-5.52471
0
LINE
8
BLACK
6
CONTINUOUS
10
0.289509
20
-5.52471
11
0.297008
21
-5.52846
0
LINE
8
BLACK
6
CONTINUOUS
10
0.297008
20
-5.52846
11
0.312006
21
-5.52846
0
LINE
8
BLACK
6
CONTINUOUS
10
0.312006
20
-5.52846
11
0.319505
21
-5.52471
0
LINE
8
BLACK
6
CONTINUOUS
10
0.319505
20
-5.52471
11
0.323255
21
-5.52096
0
LINE
8
BLACK
6
CONTINUOUS
10
0.323255
20
-5.52096
11
0.327004
21
-5.51346
0
LINE
8
BLACK
6
CONTINUOUS
10
0.371999
20
-5.51346
11
0.364499
21
-5.50971
0
LINE
8
BLACK
6
CONTINUOUS
10
0.364499
20
-5.50971
11
0.36075
21
-5.50596
0
LINE
8
BLACK
6
CONTINUOUS
10
0.36075
20
-5.50596
11
0.357
21
-5.49846
0
LINE
8
BLACK
6
CONTINUOUS
10
0.357
20
-5.49846
11
0.357
21
-5.49471
0
LINE
8
BLACK
6
CONTINUOUS
10
0.357
20
-5.49471
11
0.36075
21
-5.48721
0
LINE
8
BLACK
6
CONTINUOUS
10
0.36075
20
-5.48721
11
0.364499
21
-5.48346
0
LINE
8
BLACK
6
CONTINUOUS
10
0.364499
20
-5.48346
11
0.371999
21
-5.47971
0
LINE
8
BLACK
6
CONTINUOUS
10
0.371999
20
-5.47971
11
0.386997
21
-5.47971
0
LINE
8
BLACK
6
CONTINUOUS
10
0.386997
20
-5.47971
11
0.394496
21
-5.48346
0
LINE
8
BLACK
6
CONTINUOUS
10
0.394496
20
-5.48346
11
0.398245
21
-5.48721
0
LINE
8
BLACK
6
CONTINUOUS
10
0.398245
20
-5.48721
11
0.401995
21
-5.49471
0
LINE
8
BLACK
6
CONTINUOUS
10
0.401995
20
-5.49471
11
0.401995
21
-5.49846
0
LINE
8
BLACK
6
CONTINUOUS
10
0.401995
20
-5.49846
11
0.398245
21
-5.50596
0
LINE
8
BLACK
6
CONTINUOUS
10
0.398245
20
-5.50596
11
0.394496
21
-5.50971
0
LINE
8
BLACK
6
CONTINUOUS
10
0.394496
20
-5.50971
11
0.386997
21
-5.51346
0
LINE
8
BLACK
6
CONTINUOUS
10
0.386997
20
-5.51346
11
0.371999
21
-5.51346
0
LINE
8
BLACK
6
CONTINUOUS
10
0.371999
20
-5.51346
11
0.364499
21
-5.51721
0
LINE
8
BLACK
6
CONTINUOUS
10
0.364499
20
-5.51721
11
0.36075
21
-5.52096
0
LINE
8
BLACK
6
CONTINUOUS
10
0.36075
20
-5.52096
11
0.357
21
-5.52846
0
LINE
8
BLACK
6
CONTINUOUS
10
0.357
20
-5.52846
11
0.357
21
-5.54346
0
LINE
8
BLACK
6
CONTINUOUS
10
0.357
20
-5.54346
11
0.36075
21
-5.55096
0
LINE
8
BLACK
6
CONTINUOUS
10
0.36075
20
-5.55096
11
0.364499
21
-5.55471
0
LINE
8
BLACK
6
CONTINUOUS
10
0.364499
20
-5.55471
11
0.371999
21
-5.55846
0
LINE
8
BLACK
6
CONTINUOUS
10
0.371999
20
-5.55846
11
0.386997
21
-5.55846
0
LINE
8
BLACK
6
CONTINUOUS
10
0.386997
20
-5.55846
11
0.394496
21
-5.55471
0
LINE
8
BLACK
6
CONTINUOUS
10
0.394496
20
-5.55471
11
0.398245
21
-5.55096
0
LINE
8
BLACK
6
CONTINUOUS
10
0.398245
20
-5.55096
11
0.401995
21
-5.54346
0
LINE
8
BLACK
6
CONTINUOUS
10
0.401995
20
-5.54346
11
0.401995
21
-5.52846
0
LINE
8
BLACK
6
CONTINUOUS
10
0.401995
20
-5.52846
11
0.398245
21
-5.52096
0
LINE
8
BLACK
6
CONTINUOUS
10
0.398245
20
-5.52096
11
0.394496
21
-5.51721
0
LINE
8
BLACK
6
CONTINUOUS
10
0.394496
20
-5.51721
11
0.386997
21
-5.51346
0
LINE
8
BLACK
6
CONTINUOUS
10
0.446989
20
-5.51346
11
0.43949
21
-5.50971
0
LINE
8
BLACK
6
CONTINUOUS
10
0.43949
20
-5.50971
11
0.435741
21
-5.50596
0
LINE
8
BLACK
6
CONTINUOUS
10
0.435741
20
-5.50596
11
0.431991
21
-5.49846
0
LINE
8
BLACK
6
CONTINUOUS
10
0.431991
20
-5.49846
11
0.431991
21
-5.49471
0
LINE
8
BLACK
6
CONTINUOUS
10
0.431991
20
-5.49471
11
0.435741
21
-5.48721
0
LINE
8
BLACK
6
CONTINUOUS
10
0.435741
20
-5.48721
11
0.43949
21
-5.48346
0
LINE
8
BLACK
6
CONTINUOUS
10
0.43949
20
-5.48346
11
0.446989
21
-5.47971
0
LINE
8
BLACK
6
CONTINUOUS
10
0.446989
20
-5.47971
11
0.461987
21
-5.47971
0
LINE
8
BLACK
6
CONTINUOUS
10
0.461987
20
-5.47971
11
0.469486
21
-5.48346
0
LINE
8
BLACK
6
CONTINUOUS
10
0.469486
20
-5.48346
11
0.473236
21
-5.48721
0
LINE
8
BLACK
6
CONTINUOUS
10
0.473236
20
-5.48721
11
0.476985
21
-5.49471
0
LINE
8
BLACK
6
CONTINUOUS
10
0.476985
20
-5.49471
11
0.476985
21
-5.49846
0
LINE
8
BLACK
6
CONTINUOUS
10
0.476985
20
-5.49846
11
0.473236
21
-5.50596
0
LINE
8
BLACK
6
CONTINUOUS
10
0.473236
20
-5.50596
11
0.469486
21
-5.50971
0
LINE
8
BLACK
6
CONTINUOUS
10
0.469486
20
-5.50971
11
0.461987
21
-5.51346
0
LINE
8
BLACK
6
CONTINUOUS
10
0.461987
20
-5.51346
11
0.446989
21
-5.51346
0
LINE
8
BLACK
6
CONTINUOUS
10
0.446989
20
-5.51346
11
0.43949
21
-5.51721
0
LINE
8
BLACK
6
CONTINUOUS
10
0.43949
20
-5.51721
11
0.435741
21
-5.52096
0
LINE
8
BLACK
6
CONTINUOUS
10
0.435741
20
-5.52096
11
0.431991
21
-5.52846
0
LINE
8
BLACK
6
CONTINUOUS
10
0.431991
20
-5.52846
11
0.431991
21
-5.54346
0
LINE
8
BLACK
6
CONTINUOUS
10
0.431991
20
-5.54346
11
0.435741
21
-5.55096
0
LINE
8
BLACK
6
CONTINUOUS
10
0.435741
20
-5.55096
11
0.43949
21
-5.55471
0
LINE
8
BLACK
6
CONTINUOUS
10
0.43949
20
-5.55471
11
0.446989
21
-5.55846
0
LINE
8
BLACK
6
CONTINUOUS
10
0.446989
20
-5.55846
11
0.461987
21
-5.55846
0
LINE
8
BLACK
6
CONTINUOUS
10
0.461987
20
-5.55846
11
0.469486
21
-5.55471
0
LINE
8
BLACK
6
CONTINUOUS
10
0.469486
20
-5.55471
11
0.473236
21
-5.55096
0
LINE
8
BLACK
6
CONTINUOUS
10
0.473236
20
-5.55096
11
0.476985
21
-5.54346
0
LINE
8
BLACK
6
CONTINUOUS
10
0.476985
20
-5.54346
11
0.476985
21
-5.52846
0
LINE
8
BLACK
6
CONTINUOUS
10
0.476985
20
-5.52846
11
0.473236
21
-5.52096
0
LINE
8
BLACK
6
CONTINUOUS
10
0.473236
20
-5.52096
11
0.469486
21
-5.51721
0
LINE
8
BLACK
6
CONTINUOUS
10
0.469486
20
-5.51721
11
0.461987
21
-5.51346
0
LINE
8
BLACK
6
CONTINUOUS
10
0.510731
20
-5.55846
11
0.510731
21
-5.50596
0
LINE
8
BLACK
6
CONTINUOUS
10
0.510731
20
-5.51346
11
0.514481
21
-5.50971
0
LINE
8
BLACK
6
CONTINUOUS
10
0.514481
20
-5.50971
11
0.52198
21
-5.50596
0
LINE
8
BLACK
6
CONTINUOUS
10
0.52198
20
-5.50596
11
0.533228
21
-5.50596
0
LINE
8
BLACK
6
CONTINUOUS
10
0.533228
20
-5.50596
11
0.540727
21
-5.50971
0
LINE
8
BLACK
6
CONTINUOUS
10
0.540727
20
-5.50971
11
0.544477
21
-5.51721
0
LINE
8
BLACK
6
CONTINUOUS
10
0.544477
20
-5.51721
11
0.544477
21
-5.55846
0
LINE
8
BLACK
6
CONTINUOUS
10
0.544477
20
-5.51721
11
0.548226
21
-5.50971
0
LINE
8
BLACK
6
CONTINUOUS
10
0.548226
20
-5.50971
11
0.555726
21
-5.50596
0
LINE
8
BLACK
6
CONTINUOUS
10
0.555726
20
-5.50596
11
0.566974
21
-5.50596
0
LINE
8
BLACK
6
CONTINUOUS
10
0.566974
20
-5.50596
11
0.574473
21
-5.50971
0
LINE
8
BLACK
6
CONTINUOUS
10
0.574473
20
-5.50971
11
0.578223
21
-5.51721
0
LINE
8
BLACK
6
CONTINUOUS
10
0.578223
20
-5.51721
11
0.578223
21
-5.55846
0
LINE
8
BLACK
6
CONTINUOUS
10
0.615718
20
-5.55846
11
0.615718
21
-5.50596
0
LINE
8
BLACK
6
CONTINUOUS
10
0.615718
20
-5.51346
11
0.619468
21
-5.50971
0
LINE
8
BLACK
6
CONTINUOUS
10
0.619468
20
-5.50971
11
0.626967
21
-5.50596
0
LINE
8
BLACK
6
CONTINUOUS
10
0.626967
20
-5.50596
11
0.638215
21
-5.50596
0
LINE
8
BLACK
6
CONTINUOUS
10
0.638215
20
-5.50596
11
0.645714
21
-5.50971
0
LINE
8
BLACK
6
CONTINUOUS
10
0.645714
20
-5.50971
11
0.649464
21
-5.51721
0
LINE
8
BLACK
6
CONTINUOUS
10
0.649464
20
-5.51721
11
0.649464
21
-5.55846
0
LINE
8
BLACK
6
CONTINUOUS
10
0.649464
20
-5.51721
11
0.653213
21
-5.50971
0
LINE
8
BLACK
6
CONTINUOUS
10
0.653213
20
-5.50971
11
0.660712
21
-5.50596
0
LINE
8
BLACK
6
CONTINUOUS
10
0.660712
20
-5.50596
11
0.671961
21
-5.50596
0
LINE
8
BLACK
6
CONTINUOUS
10
0.671961
20
-5.50596
11
0.67946
21
-5.50971
0
LINE
8
BLACK
6
CONTINUOUS
10
0.67946
20
-5.50971
11
0.68321
21
-5.51721
0
LINE
8
BLACK
6
CONTINUOUS
10
0.68321
20
-5.51721
11
0.68321
21
-5.55846
0
LINE
8
BLACK
6
CONTINUOUS
10
0.824192
20
-5.47597
11
0.7567
21
-5.5772
0
LINE
8
BLACK
6
CONTINUOUS
10
0.912681
20
-5.47971
11
0.92018
21
-5.47971
0
LINE
8
BLACK
6
CONTINUOUS
10
0.92018
20
-5.47971
11
0.927679
21
-5.48346
0
LINE
8
BLACK
6
CONTINUOUS
10
0.927679
20
-5.48346
11
0.931429
21
-5.48721
0
LINE
8
BLACK
6
CONTINUOUS
10
0.931429
20
-5.48721
11
0.935178
21
-5.49471
0
LINE
8
BLACK
6
CONTINUOUS
10
0.935178
20
-5.49471
11
0.938928
21
-5.50971
0
LINE
8
BLACK
6
CONTINUOUS
10
0.938928
20
-5.50971
11
0.938928
21
-5.52846
0
LINE
8
BLACK
6
CONTINUOUS
10
0.938928
20
-5.52846
11
0.935178
21
-5.54346
0
LINE
8
BLACK
6
CONTINUOUS
10
0.935178
20
-5.54346
11
0.931429
21
-5.55096
0
LINE
8
BLACK
6
CONTINUOUS
10
0.931429
20
-5.55096
11
0.927679
21
-5.55471
0
LINE
8
BLACK
6
CONTINUOUS
10
0.927679
20
-5.55471
11
0.92018
21
-5.55846
0
LINE
8
BLACK
6
CONTINUOUS
10
0.92018
20
-5.55846
11
0.912681
21
-5.55846
0
LINE
8
BLACK
6
CONTINUOUS
10
0.912681
20
-5.55846
11
0.905182
21
-5.55471
0
LINE
8
BLACK
6
CONTINUOUS
10
0.905182
20
-5.55471
11
0.901432
21
-5.55096
0
LINE
8
BLACK
6
CONTINUOUS
10
0.901432
20
-5.55096
11
0.897683
21
-5.54346
0
LINE
8
BLACK
6
CONTINUOUS
10
0.897683
20
-5.54346
11
0.893933
21
-5.52846
0
LINE
8
BLACK
6
CONTINUOUS
10
0.893933
20
-5.52846
11
0.893933
21
-5.50971
0
LINE
8
BLACK
6
CONTINUOUS
10
0.893933
20
-5.50971
11
0.897683
21
-5.49471
0
LINE
8
BLACK
6
CONTINUOUS
10
0.897683
20
-5.49471
11
0.901432
21
-5.48721
0
LINE
8
BLACK
6
CONTINUOUS
10
0.901432
20
-5.48721
11
0.905182
21
-5.48346
0
LINE
8
BLACK
6
CONTINUOUS
10
0.905182
20
-5.48346
11
0.912681
21
-5.47971
0
LINE
8
BLACK
6
CONTINUOUS
10
0.972673
20
-5.55096
11
0.976423
21
-5.55471
0
LINE
8
BLACK
6
CONTINUOUS
10
0.976423
20
-5.55471
11
0.972673
21
-5.55846
0
LINE
8
BLACK
6
CONTINUOUS
10
0.972673
20
-5.55846
11
0.968924
21
-5.55471
0
LINE
8
BLACK
6
CONTINUOUS
10
0.968924
20
-5.55471
11
0.972673
21
-5.55096
0
LINE
8
BLACK
6
CONTINUOUS
10
0.972673
20
-5.55096
11
0.972673
21
-5.55846
0
LINE
8
BLACK
6
CONTINUOUS
10
1.05141
20
-5.55846
11
1.00642
21
-5.55846
0
LINE
8
BLACK
6
CONTINUOUS
10
1.02892
20
-5.55846
11
1.02892
21
-5.47971
0
LINE
8
BLACK
6
CONTINUOUS
10
1.02892
20
-5.47971
11
1.02142
21
-5.49096
0
LINE
8
BLACK
6
CONTINUOUS
10
1.02142
20
-5.49096
11
1.01392
21
-5.49846
0
LINE
8
BLACK
6
CONTINUOUS
10
1.01392
20
-5.49846
11
1.00642
21
-5.50221
0
LINE
8
BLACK
6
CONTINUOUS
10
1.12265
20
-5.47971
11
1.08516
21
-5.47971
0
LINE
8
BLACK
6
CONTINUOUS
10
1.08516
20
-5.47971
11
1.08141
21
-5.51721
0
LINE
8
BLACK
6
CONTINUOUS
10
1.08141
20
-5.51721
11
1.08516
21
-5.51346
0
LINE
8
BLACK
6
CONTINUOUS
10
1.08516
20
-5.51346
11
1.09266
21
-5.50971
0
LINE
8
BLACK
6
CONTINUOUS
10
1.09266
20
-5.50971
11
1.11141
21
-5.50971
0
LINE
8
BLACK
6
CONTINUOUS
10
1.11141
20
-5.50971
11
1.11891
21
-5.51346
0
LINE
8
BLACK
6
CONTINUOUS
10
1.11891
20
-5.51346
11
1.12265
21
-5.51721
0
LINE
8
BLACK
6
CONTINUOUS
10
1.12265
20
-5.51721
11
1.1264
21
-5.52471
0
LINE
8
BLACK
6
CONTINUOUS
10
1.1264
20
-5.52471
11
1.1264
21
-5.54346
0
LINE
8
BLACK
6
CONTINUOUS
10
1.1264
20
-5.54346
11
1.12265
21
-5.55096
0
LINE
8
BLACK
6
CONTINUOUS
10
1.12265
20
-5.55096
11
1.11891
21
-5.55471
0
LINE
8
BLACK
6
CONTINUOUS
10
1.11891
20
-5.55471
11
1.11141
21
-5.55846
0
LINE
8
BLACK
6
CONTINUOUS
10
1.11141
20
-5.55846
11
1.09266
21
-5.55846
0
LINE
8
BLACK
6
CONTINUOUS
10
1.09266
20
-5.55846
11
1.08516
21
-5.55471
0
LINE
8
BLACK
6
CONTINUOUS
10
1.08516
20
-5.55471
11
1.08141
21
-5.55096
0
LINE
8
BLACK
6
CONTINUOUS
10
1.15265
20
-5.47971
11
1.20514
21
-5.47971
0
LINE
8
BLACK
6
CONTINUOUS
10
1.20514
20
-5.47971
11
1.1714
21
-5.55846
0
LINE
8
BLACK
6
CONTINUOUS
10
1.25014
20
-5.47971
11
1.25764
21
-5.47971
0
LINE
8
BLACK
6
CONTINUOUS
10
1.25764
20
-5.47971
11
1.26514
21
-5.48346
0
LINE
8
BLACK
6
CONTINUOUS
10
1.26514
20
-5.48346
11
1.26889
21
-5.48721
0
LINE
8
BLACK
6
CONTINUOUS
10
1.26889
20
-5.48721
11
1.27264
21
-5.49471
0
LINE
8
BLACK
6
CONTINUOUS
10
1.27264
20
-5.49471
11
1.27639
21
-5.50971
0
LINE
8
BLACK
6
CONTINUOUS
10
1.27639
20
-5.50971
11
1.27639
21
-5.52846
0
LINE
8
BLACK
6
CONTINUOUS
10
1.27639
20
-5.52846
11
1.27264
21
-5.54346
0
LINE
8
BLACK
6
CONTINUOUS
10
1.27264
20
-5.54346
11
1.26889
21
-5.55096
0
LINE
8
BLACK
6
CONTINUOUS
10
1.26889
20
-5.55096
11
1.26514
21
-5.55471
0
LINE
8
BLACK
6
CONTINUOUS
10
1.26514
20
-5.55471
11
1.25764
21
-5.55846
0
LINE
8
BLACK
6
CONTINUOUS
10
1.25764
20
-5.55846
11
1.25014
21
-5.55846
0
LINE
8
BLACK
6
CONTINUOUS
10
1.25014
20
-5.55846
11
1.24264
21
-5.55471
0
LINE
8
BLACK
6
CONTINUOUS
10
1.24264
20
-5.55471
11
1.23889
21
-5.55096
0
LINE
8
BLACK
6
CONTINUOUS
10
1.23889
20
-5.55096
11
1.23514
21
-5.54346
0
LINE
8
BLACK
6
CONTINUOUS
10
1.23514
20
-5.54346
11
1.23139
21
-5.52846
0
LINE
8
BLACK
6
CONTINUOUS
10
1.23139
20
-5.52846
11
1.23139
21
-5.50971
0
LINE
8
BLACK
6
CONTINUOUS
10
1.23139
20
-5.50971
11
1.23514
21
-5.49471
0
LINE
8
BLACK
6
CONTINUOUS
10
1.23514
20
-5.49471
11
1.23889
21
-5.48721
0
LINE
8
BLACK
6
CONTINUOUS
10
1.23889
20
-5.48721
11
1.24264
21
-5.48346
0
LINE
8
BLACK
6
CONTINUOUS
10
1.24264
20
-5.48346
11
1.25014
21
-5.47971
0
LINE
8
BLACK
6
CONTINUOUS
10
1.30638
20
-5.47971
11
1.30638
21
-5.49471
0
LINE
8
BLACK
6
CONTINUOUS
10
1.33638
20
-5.47971
11
1.33638
21
-5.49471
0
LINE
8
BLACK
6
CONTINUOUS
10
1.43987
20
-5.58845
11
1.43612
21
-5.5847
0
LINE
8
BLACK
6
CONTINUOUS
10
1.43612
20
-5.5847
11
1.42862
21
-5.57345
0
LINE
8
BLACK
6
CONTINUOUS
10
1.42862
20
-5.57345
11
1.42487
21
-5.56595
0
LINE
8
BLACK
6
CONTINUOUS
10
1.42487
20
-5.56595
11
1.42112
21
-5.55471
0
LINE
8
BLACK
6
CONTINUOUS
10
1.42112
20
-5.55471
11
1.41737
21
-5.53596
0
LINE
8
BLACK
6
CONTINUOUS
10
1.41737
20
-5.53596
11
1.41737
21
-5.52096
0
LINE
8
BLACK
6
CONTINUOUS
10
1.41737
20
-5.52096
11
1.42112
21
-5.50221
0
LINE
8
BLACK
6
CONTINUOUS
10
1.42112
20
-5.50221
11
1.42487
21
-5.49096
0
LINE
8
BLACK
6
CONTINUOUS
10
1.42487
20
-5.49096
11
1.42862
21
-5.48346
0
LINE
8
BLACK
6
CONTINUOUS
10
1.42862
20
-5.48346
11
1.43612
21
-5.47222
0
LINE
8
BLACK
6
CONTINUOUS
10
1.43612
20
-5.47222
11
1.43987
21
-5.46847
0
LINE
8
BLACK
6
CONTINUOUS
10
1.51111
20
-5.55846
11
1.46611
21
-5.55846
0
LINE
8
BLACK
6
CONTINUOUS
10
1.48861
20
-5.55846
11
1.48861
21
-5.47971
0
LINE
8
BLACK
6
CONTINUOUS
10
1.48861
20
-5.47971
11
1.48111
21
-5.49096
0
LINE
8
BLACK
6
CONTINUOUS
10
1.48111
20
-5.49096
11
1.47361
21
-5.49846
0
LINE
8
BLACK
6
CONTINUOUS
10
1.47361
20
-5.49846
11
1.46611
21
-5.50221
0
LINE
8
BLACK
6
CONTINUOUS
10
1.55985
20
-5.47971
11
1.56735
21
-5.47971
0
LINE
8
BLACK
6
CONTINUOUS
10
1.56735
20
-5.47971
11
1.57485
21
-5.48346
0
LINE
8
BLACK
6
CONTINUOUS
10
1.57485
20
-5.48346
11
1.5786
21
-5.48721
0
LINE
8
BLACK
6
CONTINUOUS
10
1.5786
20
-5.48721
11
1.58235
21
-5.49471
0
LINE
8
BLACK
6
CONTINUOUS
10
1.58235
20
-5.49471
11
1.5861
21
-5.50971
0
LINE
8
BLACK
6
CONTINUOUS
10
1.5861
20
-5.50971
11
1.5861
21
-5.52846
0
LINE
8
BLACK
6
CONTINUOUS
10
1.5861
20
-5.52846
11
1.58235
21
-5.54346
0
LINE
8
BLACK
6
CONTINUOUS
10
1.58235
20
-5.54346
11
1.5786
21
-5.55096
0
LINE
8
BLACK
6
CONTINUOUS
10
1.5786
20
-5.55096
11
1.57485
21
-5.55471
0
LINE
8
BLACK
6
CONTINUOUS
10
1.57485
20
-5.55471
11
1.56735
21
-5.55846
0
LINE
8
BLACK
6
CONTINUOUS
10
1.56735
20
-5.55846
11
1.55985
21
-5.55846
0
LINE
8
BLACK
6
CONTINUOUS
10
1.55985
20
-5.55846
11
1.55235
21
-5.55471
0
LINE
8
BLACK
6
CONTINUOUS
10
1.55235
20
-5.55471
11
1.5486
21
-5.55096
0
LINE
8
BLACK
6
CONTINUOUS
10
1.5486
20
-5.55096
11
1.54485
21
-5.54346
0
LINE
8
BLACK
6
CONTINUOUS
10
1.54485
20
-5.54346
11
1.5411
21
-5.52846
0
LINE
8
BLACK
6
CONTINUOUS
10
1.5411
20
-5.52846
11
1.5411
21
-5.50971
0
LINE
8
BLACK
6
CONTINUOUS
10
1.5411
20
-5.50971
11
1.54485
21
-5.49471
0
LINE
8
BLACK
6
CONTINUOUS
10
1.54485
20
-5.49471
11
1.5486
21
-5.48721
0
LINE
8
BLACK
6
CONTINUOUS
10
1.5486
20
-5.48721
11
1.55235
21
-5.48346
0
LINE
8
BLACK
6
CONTINUOUS
10
1.55235
20
-5.48346
11
1.55985
21
-5.47971
0
LINE
8
BLACK
6
CONTINUOUS
10
1.62359
20
-5.55846
11
1.63859
21
-5.55846
0
LINE
8
BLACK
6
CONTINUOUS
10
1.63859
20
-5.55846
11
1.64609
21
-5.55471
0
LINE
8
BLACK
6
CONTINUOUS
10
1.64609
20
-5.55471
11
1.64984
21
-5.55096
0
LINE
8
BLACK
6
CONTINUOUS
10
1.64984
20
-5.55096
11
1.65734
21
-5.53971
0
LINE
8
BLACK
6
CONTINUOUS
10
1.65734
20
-5.53971
11
1.66109
21
-5.52471
0
LINE
8
BLACK
6
CONTINUOUS
10
1.66109
20
-5.52471
11
1.66109
21
-5.49471
0
LINE
8
BLACK
6
CONTINUOUS
10
1.66109
20
-5.49471
11
1.65734
21
-5.48721
0
LINE
8
BLACK
6
CONTINUOUS
10
1.65734
20
-5.48721
11
1.65359
21
-5.48346
0
LINE
8
BLACK
6
CONTINUOUS
10
1.65359
20
-5.48346
11
1.64609
21
-5.47971
0
LINE
8
BLACK
6
CONTINUOUS
10
1.64609
20
-5.47971
11
1.63109
21
-5.47971
0
LINE
8
BLACK
6
CONTINUOUS
10
1.63109
20
-5.47971
11
1.62359
21
-5.48346
0
LINE
8
BLACK
6
CONTINUOUS
10
1.62359
20
-5.48346
11
1.61984
21
-5.48721
0
LINE
8
BLACK
6
CONTINUOUS
10
1.61984
20
-5.48721
11
1.61609
21
-5.49471
0
LINE
8
BLACK
6
CONTINUOUS
10
1.61609
20
-5.49471
11
1.61609
21
-5.51346
0
LINE
8
BLACK
6
CONTINUOUS
10
1.61609
20
-5.51346
11
1.61984
21
-5.52096
0
LINE
8
BLACK
6
CONTINUOUS
10
1.61984
20
-5.52096
11
1.62359
21
-5.52471
0
LINE
8
BLACK
6
CONTINUOUS
10
1.62359
20
-5.52471
11
1.63109
21
-5.52846
0
LINE
8
BLACK
6
CONTINUOUS
10
1.63109
20
-5.52846
11
1.64609
21
-5.52846
0
LINE
8
BLACK
6
CONTINUOUS
10
1.64609
20
-5.52846
11
1.65359
21
-5.52471
0
LINE
8
BLACK
6
CONTINUOUS
10
1.65359
20
-5.52471
11
1.65734
21
-5.52096
0
LINE
8
BLACK
6
CONTINUOUS
10
1.65734
20
-5.52096
11
1.66109
21
-5.51346
0
LINE
8
BLACK
6
CONTINUOUS
10
1.74208
20
-5.55846
11
1.74208
21
-5.47971
0
LINE
8
BLACK
6
CONTINUOUS
10
1.77582
20
-5.55846
11
1.77582
21
-5.51721
0
LINE
8
BLACK
6
CONTINUOUS
10
1.77582
20
-5.51721
11
1.77207
21
-5.50971
0
LINE
8
BLACK
6
CONTINUOUS
10
1.77207
20
-5.50971
11
1.76457
21
-5.50596
0
LINE
8
BLACK
6
CONTINUOUS
10
1.76457
20
-5.50596
11
1.75333
21
-5.50596
0
LINE
8
BLACK
6
CONTINUOUS
10
1.75333
20
-5.50596
11
1.74583
21
-5.50971
0
LINE
8
BLACK
6
CONTINUOUS
10
1.74583
20
-5.50971
11
1.74208
21
-5.51346
0
LINE
8
BLACK
6
CONTINUOUS
10
1.82457
20
-5.55846
11
1.81707
21
-5.55471
0
LINE
8
BLACK
6
CONTINUOUS
10
1.81707
20
-5.55471
11
1.81332
21
-5.55096
0
LINE
8
BLACK
6
CONTINUOUS
10
1.81332
20
-5.55096
11
1.80957
21
-5.54346
0
LINE
8
BLACK
6
CONTINUOUS
10
1.80957
20
-5.54346
11
1.80957
21
-5.52096
0
LINE
8
BLACK
6
CONTINUOUS
10
1.80957
20
-5.52096
11
1.81332
21
-5.51346
0
LINE
8
BLACK
6
CONTINUOUS
10
1.81332
20
-5.51346
11
1.81707
21
-5.50971
0
LINE
8
BLACK
6
CONTINUOUS
10
1.81707
20
-5.50971
11
1.82457
21
-5.50596
0
LINE
8
BLACK
6
CONTINUOUS
10
1.82457
20
-5.50596
11
1.83582
21
-5.50596
0
LINE
8
BLACK
6
CONTINUOUS
10
1.83582
20
-5.50596
11
1.84331
21
-5.50971
0
LINE
8
BLACK
6
CONTINUOUS
10
1.84331
20
-5.50971
11
1.84706
21
-5.51346
0
LINE
8
BLACK
6
CONTINUOUS
10
1.84706
20
-5.51346
11
1.85081
21
-5.52096
0
LINE
8
BLACK
6
CONTINUOUS
10
1.85081
20
-5.52096
11
1.85081
21
-5.54346
0
LINE
8
BLACK
6
CONTINUOUS
10
1.85081
20
-5.54346
11
1.84706
21
-5.55096
0
LINE
8
BLACK
6
CONTINUOUS
10
1.84706
20
-5.55096
11
1.84331
21
-5.55471
0
LINE
8
BLACK
6
CONTINUOUS
10
1.84331
20
-5.55471
11
1.83582
21
-5.55846
0
LINE
8
BLACK
6
CONTINUOUS
10
1.83582
20
-5.55846
11
1.82457
21
-5.55846
0
LINE
8
BLACK
6
CONTINUOUS
10
1.89581
20
-5.55846
11
1.88831
21
-5.55471
0
LINE
8
BLACK
6
CONTINUOUS
10
1.88831
20
-5.55471
11
1.88456
21
-5.54721
0
LINE
8
BLACK
6
CONTINUOUS
10
1.88456
20
-5.54721
11
1.88456
21
-5.47971
0
LINE
8
BLACK
6
CONTINUOUS
10
1.9558
20
-5.55471
11
1.9483
21
-5.55846
0
LINE
8
BLACK
6
CONTINUOUS
10
1.9483
20
-5.55846
11
1.9333
21
-5.55846
0
LINE
8
BLACK
6
CONTINUOUS
10
1.9333
20
-5.55846
11
1.9258
21
-5.55471
0
LINE
8
BLACK
6
CONTINUOUS
10
1.9258
20
-5.55471
11
1.92205
21
-5.54721
0
LINE
8
BLACK
6
CONTINUOUS
10
1.92205
20
-5.54721
11
1.92205
21
-5.51721
0
LINE
8
BLACK
6
CONTINUOUS
10
1.92205
20
-5.51721
11
1.9258
21
-5.50971
0
LINE
8
BLACK
6
CONTINUOUS
10
1.9258
20
-5.50971
11
1.9333
21
-5.50596
0
LINE
8
BLACK
6
CONTINUOUS
10
1.9333
20
-5.50596
11
1.9483
21
-5.50596
0
LINE
8
BLACK
6
CONTINUOUS
10
1.9483
20
-5.50596
11
1.9558
21
-5.50971
0
LINE
8
BLACK
6
CONTINUOUS
10
1.9558
20
-5.50971
11
1.95955
21
-5.51721
0
LINE
8
BLACK
6
CONTINUOUS
10
1.95955
20
-5.51721
11
1.95955
21
-5.52471
0
LINE
8
BLACK
6
CONTINUOUS
10
1.95955
20
-5.52471
11
1.92205
21
-5.53221
0
LINE
8
BLACK
6
CONTINUOUS
10
1.98955
20
-5.55471
11
1.99705
21
-5.55846
0
LINE
8
BLACK
6
CONTINUOUS
10
1.99705
20
-5.55846
11
2.01204
21
-5.55846
0
LINE
8
BLACK
6
CONTINUOUS
10
2.01204
20
-5.55846
11
2.01954
21
-5.55471
0
LINE
8
BLACK
6
CONTINUOUS
10
2.01954
20
-5.55471
11
2.02329
21
-5.54721
0
LINE
8
BLACK
6
CONTINUOUS
10
2.02329
20
-5.54721
11
2.02329
21
-5.54346
0
LINE
8
BLACK
6
CONTINUOUS
10
2.02329
20
-5.54346
11
2.01954
21
-5.53596
0
LINE
8
BLACK
6
CONTINUOUS
10
2.01954
20
-5.53596
11
2.01204
21
-5.53221
0
LINE
8
BLACK
6
CONTINUOUS
10
2.01204
20
-5.53221
11
2.0008
21
-5.53221
0
LINE
8
BLACK
6
CONTINUOUS
10
2.0008
20
-5.53221
11
1.9933
21
-5.52846
0
LINE
8
BLACK
6
CONTINUOUS
10
1.9933
20
-5.52846
11
1.98955
21
-5.52096
0
LINE
8
BLACK
6
CONTINUOUS
10
1.98955
20
-5.52096
11
1.98955
21
-5.51721
0
LINE
8
BLACK
6
CONTINUOUS
10
1.98955
20
-5.51721
11
1.9933
21
-5.50971
0
LINE
8
BLACK
6
CONTINUOUS
10
1.9933
20
-5.50971
11
2.0008
21
-5.50596
0
LINE
8
BLACK
6
CONTINUOUS
10
2.0008
20
-5.50596
11
2.01204
21
-5.50596
0
LINE
8
BLACK
6
CONTINUOUS
10
2.01204
20
-5.50596
11
2.01954
21
-5.50971
0
LINE
8
BLACK
6
CONTINUOUS
10
2.04954
20
-5.58845
11
2.05329
21
-5.5847
0
LINE
8
BLACK
6
CONTINUOUS
10
2.05329
20
-5.5847
11
2.06079
21
-5.57345
0
LINE
8
BLACK
6
CONTINUOUS
10
2.06079
20
-5.57345
11
2.06454
21
-5.56595
0
LINE
8
BLACK
6
CONTINUOUS
10
2.06454
20
-5.56595
11
2.06829
21
-5.55471
0
LINE
8
BLACK
6
CONTINUOUS
10
2.06829
20
-5.55471
11
2.07204
21
-5.53596
0
LINE
8
BLACK
6
CONTINUOUS
10
2.07204
20
-5.53596
11
2.07204
21
-5.52096
0
LINE
8
BLACK
6
CONTINUOUS
10
2.07204
20
-5.52096
11
2.06829
21
-5.50221
0
LINE
8
BLACK
6
CONTINUOUS
10
2.06829
20
-5.50221
11
2.06454
21
-5.49096
0
LINE
8
BLACK
6
CONTINUOUS
10
2.06454
20
-5.49096
11
2.06079
21
-5.48346
0
LINE
8
BLACK
6
CONTINUOUS
10
2.06079
20
-5.48346
11
2.05329
21
-5.47222
0
LINE
8
BLACK
6
CONTINUOUS
10
2.05329
20
-5.47222
11
2.04954
21
-5.46847
0
LINE
8
BLACK
6
CONTINUOUS
10
2.17927
20
-5.58845
11
2.17552
21
-5.5847
0
LINE
8
BLACK
6
CONTINUOUS
10
2.17552
20
-5.5847
11
2.16802
21
-5.57345
0
LINE
8
BLACK
6
CONTINUOUS
10
2.16802
20
-5.57345
11
2.16427
21
-5.56595
0
LINE
8
BLACK
6
CONTINUOUS
10
2.16427
20
-5.56595
11
2.16053
21
-5.55471
0
LINE
8
BLACK
6
CONTINUOUS
10
2.16053
20
-5.55471
11
2.15678
21
-5.53596
0
LINE
8
BLACK
6
CONTINUOUS
10
2.15678
20
-5.53596
11
2.15678
21
-5.52096
0
LINE
8
BLACK
6
CONTINUOUS
10
2.15678
20
-5.52096
11
2.16053
21
-5.50221
0
LINE
8
BLACK
6
CONTINUOUS
10
2.16053
20
-5.50221
11
2.16427
21
-5.49096
0
LINE
8
BLACK
6
CONTINUOUS
10
2.16427
20
-5.49096
11
2.16802
21
-5.48346
0
LINE
8
BLACK
6
CONTINUOUS
10
2.16802
20
-5.48346
11
2.17552
21
-5.47222
0
LINE
8
BLACK
6
CONTINUOUS
10
2.17552
20
-5.47222
11
2.17927
21
-5.46847
0
LINE
8
BLACK
6
CONTINUOUS
10
2.20927
20
-5.50596
11
2.20927
21
-5.55846
0
LINE
8
BLACK
6
CONTINUOUS
10
2.20927
20
-5.51346
11
2.21302
21
-5.50971
0
LINE
8
BLACK
6
CONTINUOUS
10
2.21302
20
-5.50971
11
2.22052
21
-5.50596
0
LINE
8
BLACK
6
CONTINUOUS
10
2.22052
20
-5.50596
11
2.23177
21
-5.50596
0
LINE
8
BLACK
6
CONTINUOUS
10
2.23177
20
-5.50596
11
2.23927
21
-5.50971
0
LINE
8
BLACK
6
CONTINUOUS
10
2.23927
20
-5.50971
11
2.24301
21
-5.51721
0
LINE
8
BLACK
6
CONTINUOUS
10
2.24301
20
-5.51721
11
2.24301
21
-5.55846
0
LINE
8
BLACK
6
CONTINUOUS
10
2.29176
20
-5.55846
11
2.28426
21
-5.55471
0
LINE
8
BLACK
6
CONTINUOUS
10
2.28426
20
-5.55471
11
2.28051
21
-5.55096
0
LINE
8
BLACK
6
CONTINUOUS
10
2.28051
20
-5.55096
11
2.27676
21
-5.54346
0
LINE
8
BLACK
6
CONTINUOUS
10
2.27676
20
-5.54346
11
2.27676
21
-5.52096
0
LINE
8
BLACK
6
CONTINUOUS
10
2.27676
20
-5.52096
11
2.28051
21
-5.51346
0
LINE
8
BLACK
6
CONTINUOUS
10
2.28051
20
-5.51346
11
2.28426
21
-5.50971
0
LINE
8
BLACK
6
CONTINUOUS
10
2.28426
20
-5.50971
11
2.29176
21
-5.50596
0
LINE
8
BLACK
6
CONTINUOUS
10
2.29176
20
-5.50596
11
2.30301
21
-5.50596
0
LINE
8
BLACK
6
CONTINUOUS
10
2.30301
20
-5.50596
11
2.31051
21
-5.50971
0
LINE
8
BLACK
6
CONTINUOUS
10
2.31051
20
-5.50971
11
2.31426
21
-5.51346
0
LINE
8
BLACK
6
CONTINUOUS
10
2.31426
20
-5.51346
11
2.31801
21
-5.52096
0
LINE
8
BLACK
6
CONTINUOUS
10
2.31801
20
-5.52096
11
2.31801
21
-5.54346
0
LINE
8
BLACK
6
CONTINUOUS
10
2.31801
20
-5.54346
11
2.31426
21
-5.55096
0
LINE
8
BLACK
6
CONTINUOUS
10
2.31426
20
-5.55096
11
2.31051
21
-5.55471
0
LINE
8
BLACK
6
CONTINUOUS
10
2.31051
20
-5.55471
11
2.30301
21
-5.55846
0
LINE
8
BLACK
6
CONTINUOUS
10
2.30301
20
-5.55846
11
2.29176
21
-5.55846
0
LINE
8
BLACK
6
CONTINUOUS
10
2.3405
20
-5.50596
11
2.3705
21
-5.50596
0
LINE
8
BLACK
6
CONTINUOUS
10
2.35175
20
-5.47971
11
2.35175
21
-5.54721
0
LINE
8
BLACK
6
CONTINUOUS
10
2.35175
20
-5.54721
11
2.3555
21
-5.55471
0
LINE
8
BLACK
6
CONTINUOUS
10
2.3555
20
-5.55471
11
2.363
21
-5.55846
0
LINE
8
BLACK
6
CONTINUOUS
10
2.363
20
-5.55846
11
2.3705
21
-5.55846
0
LINE
8
BLACK
6
CONTINUOUS
10
2.44399
20
-5.50596
11
2.44399
21
-5.5847
0
LINE
8
BLACK
6
CONTINUOUS
10
2.44399
20
-5.50971
11
2.45149
21
-5.50596
0
LINE
8
BLACK
6
CONTINUOUS
10
2.45149
20
-5.50596
11
2.46649
21
-5.50596
0
LINE
8
BLACK
6
CONTINUOUS
10
2.46649
20
-5.50596
11
2.47399
21
-5.50971
0
LINE
8
BLACK
6
CONTINUOUS
10
2.47399
20
-5.50971
11
2.47774
21
-5.51346
0
LINE
8
BLACK
6
CONTINUOUS
10
2.47774
20
-5.51346
11
2.48148
21
-5.52096
0
LINE
8
BLACK
6
CONTINUOUS
10
2.48148
20
-5.52096
11
2.48148
21
-5.54346
0
LINE
8
BLACK
6
CONTINUOUS
10
2.48148
20
-5.54346
11
2.47774
21
-5.55096
0
LINE
8
BLACK
6
CONTINUOUS
10
2.47774
20
-5.55096
11
2.47399
21
-5.55471
0
LINE
8
BLACK
6
CONTINUOUS
10
2.47399
20
-5.55471
11
2.46649
21
-5.55846
0
LINE
8
BLACK
6
CONTINUOUS
10
2.46649
20
-5.55846
11
2.45149
21
-5.55846
0
LINE
8
BLACK
6
CONTINUOUS
10
2.45149
20
-5.55846
11
2.44399
21
-5.55471
0
LINE
8
BLACK
6
CONTINUOUS
10
2.52648
20
-5.55846
11
2.51898
21
-5.55471
0
LINE
8
BLACK
6
CONTINUOUS
10
2.51898
20
-5.55471
11
2.51523
21
-5.54721
0
LINE
8
BLACK
6
CONTINUOUS
10
2.51523
20
-5.54721
11
2.51523
21
-5.47971
0
LINE
8
BLACK
6
CONTINUOUS
10
2.59022
20
-5.55846
11
2.59022
21
-5.51721
0
LINE
8
BLACK
6
CONTINUOUS
10
2.59022
20
-5.51721
11
2.58647
21
-5.50971
0
LINE
8
BLACK
6
CONTINUOUS
10
2.58647
20
-5.50971
11
2.57897
21
-5.50596
0
LINE
8
BLACK
6
CONTINUOUS
10
2.57897
20
-5.50596
11
2.56397
21
-5.50596
0
LINE
8
BLACK
6
CONTINUOUS
10
2.56397
20
-5.50596
11
2.55648
21
-5.50971
0
LINE
8
BLACK
6
CONTINUOUS
10
2.59022
20
-5.55471
11
2.58272
21
-5.55846
0
LINE
8
BLACK
6
CONTINUOUS
10
2.58272
20
-5.55846
11
2.56397
21
-5.55846
0
LINE
8
BLACK
6
CONTINUOUS
10
2.56397
20
-5.55846
11
2.55648
21
-5.55471
0
LINE
8
BLACK
6
CONTINUOUS
10
2.55648
20
-5.55471
11
2.55273
21
-5.54721
0
LINE
8
BLACK
6
CONTINUOUS
10
2.55273
20
-5.54721
11
2.55273
21
-5.53971
0
LINE
8
BLACK
6
CONTINUOUS
10
2.55273
20
-5.53971
11
2.55648
21
-5.53221
0
LINE
8
BLACK
6
CONTINUOUS
10
2.55648
20
-5.53221
11
2.56397
21
-5.52846
0
LINE
8
BLACK
6
CONTINUOUS
10
2.56397
20
-5.52846
11
2.58272
21
-5.52846
0
LINE
8
BLACK
6
CONTINUOUS
10
2.58272
20
-5.52846
11
2.59022
21
-5.52471
0
LINE
8
BLACK
6
CONTINUOUS
10
2.61647
20
-5.50596
11
2.64646
21
-5.50596
0
LINE
8
BLACK
6
CONTINUOUS
10
2.62772
20
-5.47971
11
2.62772
21
-5.54721
0
LINE
8
BLACK
6
CONTINUOUS
10
2.62772
20
-5.54721
11
2.63147
21
-5.55471
0
LINE
8
BLACK
6
CONTINUOUS
10
2.63147
20
-5.55471
11
2.63897
21
-5.55846
0
LINE
8
BLACK
6
CONTINUOUS
10
2.63897
20
-5.55846
11
2.64646
21
-5.55846
0
LINE
8
BLACK
6
CONTINUOUS
10
2.70271
20
-5.55471
11
2.69521
21
-5.55846
0
LINE
8
BLACK
6
CONTINUOUS
10
2.69521
20
-5.55846
11
2.68021
21
-5.55846
0
LINE
8
BLACK
6
CONTINUOUS
10
2.68021
20
-5.55846
11
2.67271
21
-5.55471
0
LINE
8
BLACK
6
CONTINUOUS
10
2.67271
20
-5.55471
11
2.66896
21
-5.54721
0
LINE
8
BLACK
6
CONTINUOUS
10
2.66896
20
-5.54721
11
2.66896
21
-5.51721
0
LINE
8
BLACK
6
CONTINUOUS
10
2.66896
20
-5.51721
11
2.67271
21
-5.50971
0
LINE
8
BLACK
6
CONTINUOUS
10
2.67271
20
-5.50971
11
2.68021
21
-5.50596
0
LINE
8
BLACK
6
CONTINUOUS
10
2.68021
20
-5.50596
11
2.69521
21
-5.50596
0
LINE
8
BLACK
6
CONTINUOUS
10
2.69521
20
-5.50596
11
2.70271
21
-5.50971
0
LINE
8
BLACK
6
CONTINUOUS
10
2.70271
20
-5.50971
11
2.70646
21
-5.51721
0
LINE
8
BLACK
6
CONTINUOUS
10
2.70646
20
-5.51721
11
2.70646
21
-5.52471
0
LINE
8
BLACK
6
CONTINUOUS
10
2.70646
20
-5.52471
11
2.66896
21
-5.53221
0
LINE
8
BLACK
6
CONTINUOUS
10
2.77395
20
-5.55846
11
2.77395
21
-5.47971
0
LINE
8
BLACK
6
CONTINUOUS
10
2.77395
20
-5.55471
11
2.76645
21
-5.55846
0
LINE
8
BLACK
6
CONTINUOUS
10
2.76645
20
-5.55846
11
2.75145
21
-5.55846
0
LINE
8
BLACK
6
CONTINUOUS
10
2.75145
20
-5.55846
11
2.74395
21
-5.55471
0
LINE
8
BLACK
6
CONTINUOUS
10
2.74395
20
-5.55471
11
2.7402
21
-5.55096
0
LINE
8
BLACK
6
CONTINUOUS
10
2.7402
20
-5.55096
11
2.73645
21
-5.54346
0
LINE
8
BLACK
6
CONTINUOUS
10
2.73645
20
-5.54346
11
2.73645
21
-5.52096
0
LINE
8
BLACK
6
CONTINUOUS
10
2.73645
20
-5.52096
11
2.7402
21
-5.51346
0
LINE
8
BLACK
6
CONTINUOUS
10
2.7402
20
-5.51346
11
2.74395
21
-5.50971
0
LINE
8
BLACK
6
CONTINUOUS
10
2.74395
20
-5.50971
11
2.75145
21
-5.50596
0
LINE
8
BLACK
6
CONTINUOUS
10
2.75145
20
-5.50596
11
2.76645
21
-5.50596
0
LINE
8
BLACK
6
CONTINUOUS
10
2.76645
20
-5.50596
11
2.77395
21
-5.50971
0
LINE
8
BLACK
6
CONTINUOUS
10
2.80394
20
-5.58845
11
2.80769
21
-5.5847
0
LINE
8
BLACK
6
CONTINUOUS
10
2.80769
20
-5.5847
11
2.81519
21
-5.57345
0
LINE
8
BLACK
6
CONTINUOUS
10
2.81519
20
-5.57345
11
2.81894
21
-5.56595
0
LINE
8
BLACK
6
CONTINUOUS
10
2.81894
20
-5.56595
11
2.82269
21
-5.55471
0
LINE
8
BLACK
6
CONTINUOUS
10
2.82269
20
-5.55471
11
2.82644
21
-5.53596
0
LINE
8
BLACK
6
CONTINUOUS
10
2.82644
20
-5.53596
11
2.82644
21
-5.52096
0
LINE
8
BLACK
6
CONTINUOUS
10
2.82644
20
-5.52096
11
2.82269
21
-5.50221
0
LINE
8
BLACK
6
CONTINUOUS
10
2.82269
20
-5.50221
11
2.81894
21
-5.49096
0
LINE
8
BLACK
6
CONTINUOUS
10
2.81894
20
-5.49096
11
2.81519
21
-5.48346
0
LINE
8
BLACK
6
CONTINUOUS
10
2.81519
20
-5.48346
11
2.80769
21
-5.47222
0
LINE
8
BLACK
6
CONTINUOUS
10
2.80769
20
-5.47222
11
2.80394
21
-5.46847
  0
ENDSEC
  0
EOF
