M48
; DRILL file {KiCad (6.99.0-5337-gc57e6db79a-dirty)} date Wed 22 Feb 2023 10:35:35 PM EST
; FORMAT={-:-/ absolute / inch / decimal}
; #@! TF.CreationDate,2023-02-22T22:35:35-05:00
; #@! TF.GenerationSoftware,Kicad,Pcbnew,(6.99.0-5337-gc57e6db79a-dirty)
; #@! TF.FileFunction,NonPlated,1,2,NPTH
FMAT,2
INCH
; #@! TA.AperFunction,NonPlated,NPTH,ComponentDrill
T1C0.0689
; #@! TA.AperFunction,NonPlated,NPTH,ComponentDrill
T2C0.1570
%
G90
G05
T1
X0.2309Y-0.7939
X0.2309Y-3.412
X0.3244Y-1.9159
X0.5114Y-2.664
X0.6049Y-4.9081
X0.6309Y-0.7939
X0.6309Y-3.412
X0.6738Y-4.16
X0.7244Y-1.9159
X0.9114Y-2.664
X0.9789Y-3.412
X1.0049Y-4.9081
X1.0738Y-4.16
X1.1659Y-0.7939
X1.1659Y-1.9159
X1.353Y-4.9081
X1.3789Y-3.412
X1.4465Y-2.664
X1.5659Y-0.7939
X1.5659Y-1.9159
X1.727Y-3.412
X1.753Y-4.9081
X1.8465Y-2.664
X1.914Y-1.9159
X2.101Y-4.16
X2.101Y-4.9081
X2.127Y-3.412
X2.1945Y-2.664
X2.288Y-0.7939
X2.314Y-1.9159
X2.475Y-3.412
X2.501Y-4.16
X2.501Y-4.9081
X2.5945Y-2.664
X2.662Y-1.9159
X2.688Y-0.7939
X2.849Y-4.16
X2.875Y-3.412
X2.9425Y-2.664
X3.062Y-1.9159
X3.223Y-0.7939
X3.223Y-3.412
X3.223Y-4.9081
X3.249Y-4.16
X3.3425Y-2.664
X3.41Y-1.9159
X3.597Y-4.16
X3.623Y-0.7939
X3.623Y-3.412
X3.623Y-4.9081
X3.6906Y-2.664
X3.81Y-1.9159
X3.9711Y-3.412
X3.997Y-4.16
X4.0906Y-2.664
X4.1581Y-0.7939
X4.1581Y-1.9159
X4.3451Y-4.16
X4.3711Y-3.412
X4.4386Y-2.664
X4.5581Y-0.7939
X4.5581Y-1.9159
X4.7191Y-3.412
X4.7451Y-4.16
X4.8386Y-2.664
X4.9061Y-1.9159
X4.9061Y-4.9081
X5.0931Y-0.7939
X5.0931Y-4.16
X5.1191Y-3.412
X5.1866Y-2.664
X5.3061Y-1.9159
X5.3061Y-4.9081
X5.4671Y-3.412
X5.4931Y-0.7939
X5.4931Y-4.16
X5.5866Y-2.664
X5.6541Y-1.9159
X5.8411Y-4.16
X5.8671Y-3.412
X5.9346Y-2.664
X6.0281Y-0.7939
X6.0541Y-1.9159
X6.2152Y-3.412
X6.2411Y-4.16
X6.3346Y-2.664
X6.4022Y-1.9159
X6.4281Y-0.7939
X6.5892Y-4.16
X6.6152Y-3.412
X6.6827Y-2.664
X6.7762Y-4.9081
X6.8022Y-1.9159
X6.9632Y-3.412
X6.9892Y-4.16
X7.0827Y-2.664
X7.1502Y-1.9159
X7.1762Y-4.9081
X7.2437Y-0.7939
X7.3372Y-4.16
X7.3632Y-3.412
X7.4307Y-2.664
X7.5502Y-1.9159
X7.6437Y-0.7939
X7.7112Y-3.412
X7.7372Y-4.16
X7.8307Y-2.664
X7.8982Y-1.9159
X8.0852Y-4.16
X8.0852Y-4.9081
X8.1112Y-3.412
X8.1787Y-0.7939
X8.1787Y-2.664
X8.2982Y-1.9159
X8.4593Y-3.412
X8.4852Y-4.16
X8.4852Y-4.9081
X8.5787Y-0.7939
X8.5787Y-2.664
X8.6463Y-1.9159
X8.8333Y-4.16
X8.8333Y-4.9081
X8.8593Y-3.412
X8.9268Y-2.664
X9.0463Y-1.9159
X9.1138Y-0.7939
X9.2073Y-3.412
X9.2333Y-4.16
X9.2333Y-4.9081
X9.3268Y-2.664
X9.3943Y-1.9159
X9.5138Y-0.7939
X9.5813Y-4.16
X9.6073Y-3.412
X9.6748Y-2.664
X9.7943Y-1.9159
X9.9553Y-3.412
X9.9813Y-4.16
X10.0488Y-0.7939
X10.0748Y-2.664
X10.1423Y-1.9159
X10.3553Y-3.412
X10.4488Y-0.7939
X10.5423Y-1.9159
X10.7033Y-4.16
X10.7033Y-4.9081
X10.9839Y-0.7939
X10.9839Y-1.9159
X11.0146Y-2.838
X11.0146Y-3.238
X11.1033Y-4.16
X11.1033Y-4.9081
X11.3839Y-0.7939
X11.3839Y-1.9159
X12.0124Y-4.16
X12.0124Y-4.9081
X12.3864Y-0.7939
X12.3864Y-1.9159
X12.4124Y-4.16
X12.4124Y-4.9081
X12.7604Y-3.412
X12.7604Y-4.16
X12.7604Y-4.9081
X12.7864Y-0.7939
X12.7864Y-1.9159
X13.1344Y-0.7939
X13.1344Y-1.9159
X13.1604Y-3.412
X13.1604Y-4.16
X13.1604Y-4.9081
X13.5085Y-3.412
X13.5085Y-4.16
X13.5085Y-4.9081
X13.5344Y-0.7939
X13.5344Y-1.9159
X13.9085Y-3.412
X13.9085Y-4.16
X13.9085Y-4.9081
X14.4435Y-1.9159
X14.4435Y-2.664
X14.4435Y-3.412
X14.4435Y-4.16
X14.4435Y-4.9081
X14.8435Y-1.9159
X14.8435Y-2.664
X14.8435Y-3.412
X14.8435Y-4.16
X14.8435Y-4.9081
X15.1915Y-1.9159
X15.1915Y-2.664
X15.1915Y-3.412
X15.1915Y-4.16
X15.1915Y-4.9081
X15.5915Y-1.9159
X15.5915Y-2.664
X15.5915Y-3.412
X15.5915Y-4.16
X15.5915Y-4.9081
X15.9396Y-1.9159
X15.9396Y-2.664
X15.9396Y-3.412
X15.9396Y-4.16
X15.9396Y-4.9081
X16.3396Y-1.9159
X16.3396Y-2.664
X16.3396Y-3.412
X16.3396Y-4.16
X16.3396Y-4.9081
X16.6876Y-1.9159
X16.6876Y-2.664
X16.6876Y-3.412
X16.6876Y-4.16
X16.6876Y-4.9081
X17.0876Y-1.9159
X17.0876Y-2.664
X17.0876Y-3.412
X17.0876Y-4.16
X17.0876Y-4.9081
T2
X0.4309Y-0.7939
X0.4309Y-3.412
X0.5244Y-1.9159
X0.7114Y-2.664
X0.8049Y-4.9081
X0.8738Y-4.16
X1.1789Y-3.412
X1.3659Y-0.7939
X1.3659Y-1.9159
X1.553Y-4.9081
X1.6465Y-2.664
X1.927Y-3.412
X2.114Y-1.9159
X2.301Y-4.16
X2.301Y-4.9081
X2.3945Y-2.664
X2.488Y-0.7939
X2.675Y-3.412
X2.862Y-1.9159
X3.049Y-4.16
X3.1425Y-2.664
X3.423Y-0.7939
X3.423Y-3.412
X3.423Y-4.9081
X3.61Y-1.9159
X3.797Y-4.16
X3.8906Y-2.664
X4.1711Y-3.412
X4.3581Y-0.7939
X4.3581Y-1.9159
X4.5451Y-4.16
X4.6386Y-2.664
X4.9191Y-3.412
X5.1061Y-1.9159
X5.1061Y-4.9081
X5.2931Y-0.7939
X5.2931Y-4.16
X5.3866Y-2.664
X5.6671Y-3.412
X5.8541Y-1.9159
X6.0411Y-4.16
X6.1346Y-2.664
X6.2281Y-0.7939
X6.4152Y-3.412
X6.6022Y-1.9159
X6.7892Y-4.16
X6.8827Y-2.664
X6.9762Y-4.9081
X7.1632Y-3.412
X7.3502Y-1.9159
X7.4437Y-0.7939
X7.5372Y-4.16
X7.6307Y-2.664
X7.9112Y-3.412
X8.0982Y-1.9159
X8.2852Y-4.16
X8.2852Y-4.9081
X8.3787Y-0.7939
X8.3787Y-2.664
X8.6593Y-3.412
X8.8463Y-1.9159
X9.0333Y-4.16
X9.0333Y-4.9081
X9.1268Y-2.664
X9.3138Y-0.7939
X9.4073Y-3.412
X9.5943Y-1.9159
X9.7813Y-4.16
X9.8748Y-2.664
X10.1553Y-3.412
X10.2488Y-0.7939
X10.3423Y-1.9159
X10.9033Y-4.16
X10.9033Y-4.9081
X11.0146Y-3.038
X11.1839Y-0.7939
X11.1839Y-1.9159
X12.2124Y-4.16
X12.2124Y-4.9081
X12.5864Y-0.7939
X12.5864Y-1.9159
X12.9604Y-3.412
X12.9604Y-4.16
X12.9604Y-4.9081
X13.3344Y-0.7939
X13.3344Y-1.9159
X13.7085Y-3.412
X13.7085Y-4.16
X13.7085Y-4.9081
X14.6435Y-1.9159
X14.6435Y-2.664
X14.6435Y-3.412
X14.6435Y-4.16
X14.6435Y-4.9081
X15.3915Y-1.9159
X15.3915Y-2.664
X15.3915Y-3.412
X15.3915Y-4.16
X15.3915Y-4.9081
X16.1396Y-1.9159
X16.1396Y-2.664
X16.1396Y-3.412
X16.1396Y-4.16
X16.1396Y-4.9081
X16.8876Y-1.9159
X16.8876Y-2.664
X16.8876Y-3.412
X16.8876Y-4.16
X16.8876Y-4.9081
T0
M30
