M48
; DRILL file {KiCad (6.99.0-5337-gc57e6db79a-dirty)} date Wed 22 Feb 2023 10:35:35 PM EST
; FORMAT={-:-/ absolute / inch / decimal}
; #@! TF.CreationDate,2023-02-22T22:35:35-05:00
; #@! TF.GenerationSoftware,Kicad,Pcbnew,(6.99.0-5337-gc57e6db79a-dirty)
; #@! TF.FileFunction,Plated,1,2,PTH
FMAT,2
INCH
; #@! TA.AperFunction,Plated,PTH,ViaDrill
T1C0.0157
; #@! TA.AperFunction,Plated,PTH,ComponentDrill
T2C0.0354
; #@! TA.AperFunction,Plated,PTH,ComponentDrill
T3C0.0579
; #@! TA.AperFunction,Plated,PTH,ComponentDrill
T4C0.0787
; #@! TA.AperFunction,Plated,PTH,ViaDrill
T5C0.1772
%
G90
G05
T1
X1.065Y-3.1043
X1.0886Y-2.9429
X1.2008Y-1.502
X1.2008Y-1.6535
X1.215Y-4.5543
X1.2603Y-4.5985
X1.3425Y-2.2323
X1.3543Y-2.3602
X1.5571Y-1.3248
X1.8366Y-1.3681
X1.9547Y-3.752
X1.9587Y-3.0591
X2.0217Y-3.8819
X2.0276Y-2.1811
X2.0728Y-2.9193
X2.0748Y-1.4508
X2.0787Y-1.5965
X2.1142Y-2.3543
X2.1201Y-1.0098
X2.122Y-0.9498
X2.1378Y-4.5925
X2.1398Y-4.4646
X2.3642Y-4.4173
X2.4035Y-1.3169
X2.5787Y-1.3327
X2.5827Y-3.0984
X2.6004Y-2.9724
X2.7874Y-1.4902
X2.8701Y-3.7579
X2.874Y-3.872
X2.8819Y-4.4685
X2.9272Y-2.2264
X2.9488Y-2.3425
X3.0768Y-2.9469
X3.1004Y-0.9409
X3.1024Y-1.0246
X3.2421Y-4.4488
X3.2461Y-4.6063
X3.3642Y-4.4862
X3.372Y-1.4154
X3.3799Y-3.7736
X3.5217Y-2.1909
X3.5256Y-3.0866
X3.5295Y-3.9114
X3.5374Y-1.6102
X3.5531Y-1.4764
X3.6161Y-2.9252
X3.6575Y-2.3661
X3.6732Y-4.4685
X3.8996Y-1.3917
X4.0394Y-2.9252
X4.065Y-1.4488
X4.0748Y-0.9488
X4.0827Y-1.6102
X4.0925Y-1.0669
X4.2106Y-3.7461
X4.2441Y-4.4626
X4.2677Y-2.1693
X4.2736Y-4.5906
X4.2933Y-3.0945
X4.3051Y-3.9154
X4.3228Y-2.9291
X4.3701Y-2.3602
X4.3898Y-1.3425
X4.4783Y-4.4862
X4.6634Y-2.9409
X4.7323Y-1.3957
X4.7854Y-3.1083
X4.7953Y-2.9272
X4.9528Y-1.628
X4.9547Y-1.4508
X5.0177Y-0.9449
X5.0374Y-1.0777
X5.128Y-4.4626
X5.1299Y-3.748
X5.1378Y-1.3484
X5.1398Y-3.8937
X5.189Y-2.2106
X5.2028Y-2.3465
X5.4252Y-2.9193
X5.4646Y-1.378
X5.5453Y-3.0945
X5.5492Y-2.937
X5.7028Y-1.4744
X5.7028Y-1.6201
X5.872Y-3.7835
X5.8819Y-2.2106
X5.8957Y-1.1024
X5.8976Y-2.3386
X5.9016Y-0.9409
X5.9626Y-4.4843
X6.0256Y-1.3661
X6.25Y-2.9311
X6.2913Y-1.3661
X6.4272Y-3.0768
X6.4311Y-3.7421
X6.5039Y-1.6122
X6.5138Y-3.9154
X6.5177Y-2.1752
X6.5295Y-2.9567
X6.5492Y-1.4803
X6.5906Y-4.4193
X6.6161Y-2.3701
X6.6417Y-4.6004
X6.7598Y-4.4626
X6.811Y-2.8839
X6.8386Y-1.313
X6.9921Y-2.9528
X7.0157Y-1.3661
X7.0965Y-2.9331
X7.0965Y-3.1201
X7.1634Y-1.6319
X7.1713Y-1.4626
X7.2323Y-3.7933
X7.2953Y-3.9134
X7.313Y-0.9429
X7.3248Y-1.1309
X7.3858Y-2.3661
X7.3957Y-2.2008
X7.435Y-4.4764
X7.4685Y-1.311
X7.6437Y-2.9311
X7.8051Y-1.2835
X7.8642Y-2.9252
X7.8642Y-3.1004
X7.9388Y-1.6124
X7.9449Y-1.5039
X8.061Y-4.4173
X8.0748Y-2.1988
X8.0846Y-3.7283
X8.122Y-4.6142
X8.1378Y-2.3465
X8.3031Y-1.3642
X8.3268Y-0.9498
X8.3268Y-4.4764
X8.3583Y-1.1486
X8.6831Y-3.0571
X8.6969Y-2.9764
X8.7756Y-3.7992
X8.7933Y-3.8898
X8.8051Y-4.4862
X8.8209Y-1.6732
X8.874Y-2.2362
X8.878Y-1.5748
X8.8996Y-2.3287
X8.9173Y-4.4951
X8.9173Y-4.5787
X9.0512Y-1.2461
X9.061Y-3.6024
X9.1909Y-0.937
X9.2087Y-1.1663
X9.2283Y-2.1102
X9.2303Y-2.9075
X9.3217Y-4.2925
X9.4705Y-3.0689
X9.5177Y-3.6378
X9.5354Y-2.9685
X9.5571Y-1.3012
X9.561Y-1.5738
X9.563Y-3.7972
X9.563Y-3.8917
X9.5689Y-2.2283
X9.5748Y-2.3189
X9.5906Y-1.5138
X9.7677Y-2.0965
X9.7807Y-4.4071
X9.8051Y-0.9498
X9.811Y-1.1929
X9.8327Y-2.8819
X9.9843Y-1.3248
X10.0Y-0.9154
X10.0177Y-3.0453
X10.0689Y-3.6811
X10.0894Y-0.503
X10.1339Y-2.9783
X10.1427Y-0.3986
X10.3016Y-4.3146
X10.3287Y-2.3681
X10.3366Y-1.5846
X10.3366Y-2.437
X10.3937Y-1.5
X10.4157Y-4.0008
X10.5039Y-2.5217
X10.5217Y-0.9075
X10.6126Y-4.5886
X10.6157Y-4.4744
X10.6417Y-3.7874
X10.7067Y-1.1929
X10.7126Y-3.876
X10.8583Y-0.9469
X10.9075Y-2.3681
X10.9114Y-2.4547
X11.0866Y-4.3362
X11.1142Y-3.5846
X11.1693Y-1.3543
X11.5Y-3.1476
X11.6043Y-3.1122
X11.6205Y-4.1992
X11.6319Y-3.1929
X11.7106Y-1.9291
X11.7205Y-2.5807
X11.75Y-3.0315
X11.7564Y-2.4149
X11.7736Y-1.8583
X11.7825Y-1.3209
X11.8041Y-2.326
X11.8189Y-2.7067
X11.8417Y-4.5236
X11.8681Y-2.0906
X11.8685Y-1.8549
X11.9301Y-2.6449
X11.9429Y-3.1024
X11.9716Y-1.6701
X11.9764Y-2.7067
X11.9801Y-1.7231
X11.9801Y-2.3831
X11.9801Y-2.5131
X12.0Y-3.3681
X12.0007Y-0.8545
X12.0217Y-3.0295
X12.035Y-3.1169
X12.0492Y-3.7972
X12.0551Y-1.9331
X12.0591Y-3.3154
X12.0591Y-3.876
X12.0679Y-1.5748
X12.0748Y-3.1988
X12.0768Y-1.3917
X12.0778Y-1.5059
X12.1004Y-2.2982
X12.1122Y-2.4459
X12.1457Y-1.8317
X12.1693Y-0.4105
X12.1693Y-0.4892
X12.1693Y-0.9321
X12.1722Y-1.2037
X12.1752Y-2.122
X12.2248Y-3.0819
X12.261Y-3.3059
X12.372Y-2.3731
X12.3976Y-1.5453
X12.4098Y-2.4045
X12.4291Y-2.5463
X12.44Y-3.1506
X12.4409Y-1.2018
X12.4587Y-0.935
X12.4646Y-1.5492
X12.4852Y-2.9469
X12.4957Y-2.3731
X12.5276Y-2.4075
X12.6909Y-3.8051
X12.6909Y-3.8898
X12.7185Y-2.2382
X12.7358Y-4.5236
X12.7717Y-1.3524
X12.8406Y-3.0827
X12.8465Y-2.3071
X12.8465Y-2.4685
X12.8465Y-2.9941
X12.9646Y-3.6909
X12.9961Y-0.8543
X13.0217Y-1.5266
X13.0217Y-1.5886
X13.061Y-1.5266
X13.0798Y-2.4843
X13.1102Y-1.5886
X13.1339Y-1.2205
X13.1934Y-1.2195
X13.3415Y-2.4715
X13.3719Y-3.8101
X13.4095Y-3.8651
X13.4252Y-0.9498
X13.4705Y-0.9321
X13.4921Y-1.3524
X13.5531Y-1.2372
X13.628Y-0.5591
X13.6417Y-0.7598
X13.6535Y-0.874
X13.7122Y-0.3927
X13.7402Y-0.4689
X13.8425Y-4.5059
X13.8583Y-2.0551
X13.9232Y-2.498
X13.9248Y-0.5878
X13.9409Y-2.7008
X13.9852Y-1.8189
X13.9882Y-2.2037
X14.0Y-0.7079
X14.1018Y-3.063
X14.1401Y-2.9823
X14.1559Y-3.628
X14.1649Y-0.4102
X14.1929Y-4.3071
X14.2149Y-3.1443
X14.2165Y-2.6358
X14.2165Y-2.7972
X14.2177Y-1.3057
X14.2193Y-0.4435
X14.2244Y-2.1555
X14.2264Y-1.9409
X14.2327Y-0.6362
X14.2331Y-2.2874
X14.2334Y-3.6556
X14.2404Y-0.6748
X14.2539Y-3.1492
X14.2583Y-3.3961
X14.2689Y-0.8677
X14.2776Y-2.9902
X14.2974Y-0.6469
X14.3118Y-0.8504
X14.3232Y-0.9321
X14.3248Y-3.0433
X14.3307Y-2.2402
X14.3327Y-2.9449
X14.3386Y-2.3563
X14.3453Y-0.5504
X14.3484Y-3.8287
X14.3504Y-4.6398
X14.3524Y-3.7008
X14.3543Y-4.5394
X14.3622Y-1.7618
X14.3787Y-0.9146
X14.3889Y-1.2432
X14.3906Y-0.5858
X14.3917Y-2.0492
X14.3957Y-0.4563
X14.4276Y-1.4232
X14.4732Y-1.3358
X14.4735Y-0.5798
X14.4941Y-0.3973
X14.4941Y-0.6138
X14.5224Y-0.427
X14.528Y-0.8138
X14.565Y-0.427
X14.5705Y-1.2307
X14.5741Y-1.4834
X14.5955Y-0.5773
X14.5955Y-0.703
X14.611Y-0.7583
X14.6366Y-0.674
X14.6368Y-0.5784
X14.6414Y-0.4612
X14.6499Y-0.764
X14.6898Y-0.7476
X14.7051Y-1.0807
X14.7059Y-0.5469
X14.72Y-0.6197
X14.7205Y-3.6988
X14.7421Y-4.4823
X14.7448Y-0.5531
X14.7913Y-2.8917
X14.7965Y-1.1858
X14.8304Y-0.5447
X14.8677Y-1.2488
X14.8929Y-0.9376
X14.9148Y-0.6301
X14.9189Y-0.7622
X14.9272Y-0.8323
X14.9445Y-0.6043
X14.9545Y-1.3607
X14.9827Y-0.8953
X14.9954Y-1.5012
X15.0121Y-1.3031
X15.0252Y-0.865
X15.0346Y-0.6004
X15.0427Y-1.4585
X15.0484Y-0.6945
X15.0612Y-0.4829
X15.0693Y-0.6307
X15.0886Y-4.5433
X15.0945Y-3.7382
X15.0945Y-4.6339
X15.0984Y-2.25
X15.0994Y-0.4925
X15.1Y-0.9358
X15.1024Y-2.3366
X15.1024Y-3.8445
X15.1083Y-3.002
X15.1092Y-0.6117
X15.1102Y-3.0886
X15.122Y-0.4476
X15.1445Y-0.7742
X15.1488Y-1.3043
X15.153Y-0.8565
X15.1543Y-1.3862
X15.1584Y-1.1068
X15.1587Y-0.9337
X15.1596Y-0.463
X15.1685Y-1.05
X15.1705Y-0.7447
X15.1724Y-1.2728
X15.1902Y-0.6
X15.2139Y-0.9119
X15.2196Y-0.8706
X15.2207Y-0.7607
X15.2207Y-0.7152
X15.2209Y-1.6252
X15.2237Y-0.625
X15.2272Y-1.5018
X15.2551Y-0.54
X15.2677Y-2.1555
X15.2724Y-0.9618
X15.2976Y-1.427
X15.3055Y-1.2705
X15.313Y-4.4665
X15.3437Y-0.54
X15.3457Y-0.7972
X15.3465Y-3.6811
X15.3646Y-1.265
X15.3745Y-0.9624
X15.3799Y-1.5209
X15.383Y-0.5406
X15.3851Y-0.7559
X15.3921Y-1.0374
X15.3991Y-0.5026
X15.4171Y-0.9159
X15.4224Y-0.9657
X15.4787Y-0.8878
X15.5Y-2.8701
X15.5433Y-1.1965
X15.5795Y-0.7394
X15.5854Y-0.6701
X15.5866Y-1.1201
X15.5929Y-1.2657
X15.6028Y-1.5177
X15.6031Y-0.9555
X15.6886Y-0.8091
X15.8209Y-2.9882
X15.8248Y-2.2421
X15.8268Y-4.5394
X15.8327Y-2.3268
X15.8327Y-3.8248
X15.8346Y-3.0709
X15.8346Y-3.7362
X15.8362Y-0.6433
X15.8484Y-4.622
X15.8693Y-1.0654
X15.8732Y-0.7781
X15.8819Y-0.8602
X15.8906Y-1.2189
X15.9572Y-0.6052
X15.9685Y-1.5581
X15.9898Y-0.6272
X16.0031Y-0.7407
X16.0268Y-1.3102
X16.0484Y-1.0201
X16.072Y-0.851
X16.0728Y-2.1594
X16.1053Y-3.128
X16.127Y-2.4291
X16.1407Y-2.9813
X16.1496Y-3.6969
X16.2539Y-0.898
X16.3827Y-0.6295
X16.4272Y-0.5118
X16.4396Y-1.7055
X16.4793Y-1.5748
X16.5524Y-1.1831
X16.5917Y-0.6482
X16.6024Y-2.0295
X16.6039Y-1.2606
X16.6063Y-2.0925
X16.6063Y-4.2638
X16.6102Y-4.3524
X16.6142Y-2.7717
X16.6161Y-2.8563
X16.6201Y-3.5256
X16.6201Y-3.6122
X16.6319Y-1.7264
X16.6724Y-0.9573
X16.6884Y-1.0181
X16.7687Y-1.0181
X16.8185Y-0.9835
X16.861Y-1.0216
X16.9965Y-0.961
T2
X11.8671Y-1.6219
X11.8671Y-1.6719
X11.8671Y-1.7219
X11.8671Y-1.7719
X11.8671Y-2.4093
X11.8671Y-2.4593
X11.8671Y-2.5093
X11.8671Y-2.5593
X11.8671Y-3.1967
X11.8671Y-3.2467
X11.8671Y-3.2967
X11.8671Y-3.3467
T3
X0.2809Y-0.6939
X0.2809Y-3.312
X0.3276Y-0.6394
X0.3276Y-3.2575
X0.3744Y-1.8159
X0.4211Y-1.7614
X0.5309Y-0.5939
X0.5309Y-3.212
X0.5614Y-2.564
X0.5638Y-0.6266
X0.5638Y-3.2447
X0.6081Y-2.5094
X0.6244Y-1.7159
X0.6549Y-4.8081
X0.6573Y-1.7486
X0.7016Y-4.7535
X0.7238Y-4.06
X0.7705Y-4.0055
X0.8114Y-2.464
X0.8443Y-2.4967
X0.9049Y-4.7081
X0.9378Y-4.7407
X0.9738Y-3.96
X1.0067Y-3.9927
X1.0289Y-3.312
X1.0756Y-3.2575
X1.2159Y-0.6939
X1.2159Y-1.8159
X1.2626Y-0.6394
X1.2626Y-1.7614
X1.2789Y-3.212
X1.3118Y-3.2447
X1.403Y-4.8081
X1.4496Y-4.7535
X1.4659Y-0.5939
X1.4659Y-1.7159
X1.4965Y-2.564
X1.4988Y-0.6266
X1.4988Y-1.7486
X1.5431Y-2.5094
X1.653Y-4.7081
X1.6858Y-4.7407
X1.7465Y-2.464
X1.777Y-3.312
X1.7793Y-2.4967
X1.8236Y-3.2575
X1.964Y-1.8159
X2.0106Y-1.7614
X2.027Y-3.212
X2.0598Y-3.2447
X2.151Y-4.06
X2.151Y-4.8081
X2.1976Y-4.0055
X2.1976Y-4.7535
X2.214Y-1.7159
X2.2445Y-2.564
X2.2469Y-1.7486
X2.2911Y-2.5094
X2.338Y-0.6939
X2.3846Y-0.6394
X2.401Y-3.96
X2.401Y-4.7081
X2.4339Y-3.9927
X2.4339Y-4.7407
X2.4945Y-2.464
X2.525Y-3.312
X2.5274Y-2.4967
X2.5717Y-3.2575
X2.588Y-0.5939
X2.6209Y-0.6266
X2.712Y-1.8159
X2.7587Y-1.7614
X2.775Y-3.212
X2.8079Y-3.2447
X2.899Y-4.06
X2.9457Y-4.0055
X2.962Y-1.7159
X2.9925Y-2.564
X2.9949Y-1.7486
X3.0392Y-2.5094
X3.149Y-3.96
X3.1819Y-3.9927
X3.2425Y-2.464
X3.273Y-0.6939
X3.273Y-3.312
X3.273Y-4.8081
X3.2754Y-2.4967
X3.3197Y-0.6394
X3.3197Y-3.2575
X3.3197Y-4.7535
X3.46Y-1.8159
X3.5067Y-1.7614
X3.523Y-0.5939
X3.523Y-3.212
X3.523Y-4.7081
X3.5559Y-0.6266
X3.5559Y-3.2447
X3.5559Y-4.7407
X3.647Y-4.06
X3.6937Y-4.0055
X3.71Y-1.7159
X3.7406Y-2.564
X3.7429Y-1.7486
X3.7872Y-2.5094
X3.897Y-3.96
X3.9299Y-3.9927
X3.9906Y-2.464
X4.0211Y-3.312
X4.0234Y-2.4967
X4.0677Y-3.2575
X4.2081Y-0.6939
X4.2081Y-1.8159
X4.2547Y-0.6394
X4.2547Y-1.7614
X4.2711Y-3.212
X4.3039Y-3.2447
X4.3951Y-4.06
X4.4417Y-4.0055
X4.4581Y-0.5939
X4.4581Y-1.7159
X4.4886Y-2.564
X4.4909Y-0.6266
X4.4909Y-1.7486
X4.5352Y-2.5094
X4.6451Y-3.96
X4.678Y-3.9927
X4.7386Y-2.464
X4.7691Y-3.312
X4.7715Y-2.4967
X4.8157Y-3.2575
X4.9561Y-1.8159
X4.9561Y-4.8081
X5.0028Y-1.7614
X5.0028Y-4.7535
X5.0191Y-3.212
X5.052Y-3.2447
X5.1431Y-0.6939
X5.1431Y-4.06
X5.1898Y-0.6394
X5.1898Y-4.0055
X5.2061Y-1.7159
X5.2061Y-4.7081
X5.2366Y-2.564
X5.239Y-1.7486
X5.239Y-4.7407
X5.2833Y-2.5094
X5.3931Y-0.5939
X5.3931Y-3.96
X5.426Y-0.6266
X5.426Y-3.9927
X5.4866Y-2.464
X5.5171Y-3.312
X5.5195Y-2.4967
X5.5638Y-3.2575
X5.7041Y-1.8159
X5.7508Y-1.7614
X5.7671Y-3.212
X5.8Y-3.2447
X5.8911Y-4.06
X5.9378Y-4.0055
X5.9541Y-1.7159
X5.9846Y-2.564
X5.987Y-1.7486
X6.0313Y-2.5094
X6.0781Y-0.6939
X6.1248Y-0.6394
X6.1411Y-3.96
X6.174Y-3.9927
X6.2346Y-2.464
X6.2652Y-3.312
X6.2675Y-2.4967
X6.3118Y-3.2575
X6.3281Y-0.5939
X6.361Y-0.6266
X6.4522Y-1.8159
X6.4988Y-1.7614
X6.5152Y-3.212
X6.548Y-3.2447
X6.6392Y-4.06
X6.6858Y-4.0055
X6.7022Y-1.7159
X6.7327Y-2.564
X6.735Y-1.7486
X6.7793Y-2.5094
X6.8262Y-4.8081
X6.8728Y-4.7535
X6.8892Y-3.96
X6.922Y-3.9927
X6.9827Y-2.464
X7.0132Y-3.312
X7.0156Y-2.4967
X7.0598Y-3.2575
X7.0762Y-4.7081
X7.1091Y-4.7407
X7.2002Y-1.8159
X7.2469Y-1.7614
X7.2632Y-3.212
X7.2937Y-0.6939
X7.2961Y-3.2447
X7.3404Y-0.6394
X7.3872Y-4.06
X7.4339Y-4.0055
X7.4502Y-1.7159
X7.4807Y-2.564
X7.4831Y-1.7486
X7.5274Y-2.5094
X7.5437Y-0.5939
X7.5766Y-0.6266
X7.6372Y-3.96
X7.6701Y-3.9927
X7.7307Y-2.464
X7.7612Y-3.312
X7.7636Y-2.4967
X7.8079Y-3.2575
X7.9482Y-1.8159
X7.9949Y-1.7614
X8.0112Y-3.212
X8.0441Y-3.2447
X8.1352Y-4.06
X8.1352Y-4.8081
X8.1819Y-4.0055
X8.1819Y-4.7535
X8.1982Y-1.7159
X8.2287Y-0.6939
X8.2287Y-2.564
X8.2311Y-1.7486
X8.2754Y-0.6394
X8.2754Y-2.5094
X8.3852Y-3.96
X8.3852Y-4.7081
X8.4181Y-3.9927
X8.4181Y-4.7407
X8.4787Y-0.5939
X8.4787Y-2.464
X8.5093Y-3.312
X8.5116Y-0.6266
X8.5116Y-2.4967
X8.5559Y-3.2575
X8.6963Y-1.8159
X8.7429Y-1.7614
X8.7593Y-3.212
X8.7921Y-3.2447
X8.8833Y-4.06
X8.8833Y-4.8081
X8.9299Y-4.0055
X8.9299Y-4.7535
X8.9463Y-1.7159
X8.9768Y-2.564
X8.9791Y-1.7486
X9.0234Y-2.5094
X9.1333Y-3.96
X9.1333Y-4.7081
X9.1638Y-0.6939
X9.1661Y-3.9927
X9.1661Y-4.7407
X9.2104Y-0.6394
X9.2268Y-2.464
X9.2573Y-3.312
X9.2596Y-2.4967
X9.3039Y-3.2575
X9.4138Y-0.5939
X9.4443Y-1.8159
X9.4467Y-0.6266
X9.4909Y-1.7614
X9.5073Y-3.212
X9.5402Y-3.2447
X9.6313Y-4.06
X9.678Y-4.0055
X9.6943Y-1.7159
X9.7248Y-2.564
X9.7272Y-1.7486
X9.7715Y-2.5094
X9.8813Y-3.96
X9.9142Y-3.9927
X9.9748Y-2.464
X10.0053Y-3.312
X10.0077Y-2.4967
X10.052Y-3.2575
X10.0988Y-0.6939
X10.1455Y-0.6394
X10.1923Y-1.8159
X10.239Y-1.7614
X10.2553Y-3.212
X10.2882Y-3.2447
X10.3488Y-0.5939
X10.3817Y-0.6266
X10.4423Y-1.7159
X10.4752Y-1.7486
X10.7533Y-4.06
X10.7533Y-4.8081
X10.8Y-4.0055
X10.8Y-4.7535
X11.0033Y-3.96
X11.0033Y-4.7081
X11.0339Y-0.6939
X11.0339Y-1.8159
X11.0362Y-3.9927
X11.0362Y-4.7407
X11.0805Y-0.6394
X11.0805Y-1.7614
X11.1146Y-2.888
X11.1691Y-2.9346
X11.1819Y-3.1709
X11.2146Y-3.138
X11.2839Y-0.5939
X11.2839Y-1.7159
X11.3167Y-0.6266
X11.3167Y-1.7486
X12.0624Y-4.06
X12.0624Y-4.8081
X12.1091Y-4.0055
X12.1091Y-4.7535
X12.3124Y-3.96
X12.3124Y-4.7081
X12.3453Y-3.9927
X12.3453Y-4.7407
X12.4364Y-0.6939
X12.4364Y-1.8159
X12.4831Y-0.6394
X12.4831Y-1.7614
X12.6864Y-0.5939
X12.6864Y-1.7159
X12.7193Y-0.6266
X12.7193Y-1.7486
X12.8104Y-3.312
X12.8104Y-4.06
X12.8104Y-4.8081
X12.8571Y-3.2575
X12.8571Y-4.0055
X12.8571Y-4.7535
X13.0604Y-3.212
X13.0604Y-3.96
X13.0604Y-4.7081
X13.0933Y-3.2447
X13.0933Y-3.9927
X13.0933Y-4.7407
X13.1844Y-0.6939
X13.1844Y-1.8159
X13.2311Y-0.6394
X13.2311Y-1.7614
X13.4344Y-0.5939
X13.4344Y-1.7159
X13.4673Y-0.6266
X13.4673Y-1.7486
X13.5585Y-3.312
X13.5585Y-4.06
X13.5585Y-4.8081
X13.6051Y-3.2575
X13.6051Y-4.0055
X13.6051Y-4.7535
X13.8085Y-3.212
X13.8085Y-3.96
X13.8085Y-4.7081
X13.8413Y-3.2447
X13.8413Y-3.9927
X13.8413Y-4.7407
X14.4935Y-1.8159
X14.4935Y-2.564
X14.4935Y-3.312
X14.4935Y-4.06
X14.4935Y-4.8081
X14.5402Y-1.7614
X14.5402Y-2.5094
X14.5402Y-3.2575
X14.5402Y-4.0055
X14.5402Y-4.7535
X14.7435Y-1.7159
X14.7435Y-2.464
X14.7435Y-3.212
X14.7435Y-3.96
X14.7435Y-4.7081
X14.7764Y-1.7486
X14.7764Y-2.4967
X14.7764Y-3.2447
X14.7764Y-3.9927
X14.7764Y-4.7407
X15.2415Y-1.8159
X15.2415Y-2.564
X15.2415Y-3.312
X15.2415Y-4.06
X15.2415Y-4.8081
X15.2882Y-1.7614
X15.2882Y-2.5094
X15.2882Y-3.2575
X15.2882Y-4.0055
X15.2882Y-4.7535
X15.4915Y-1.7159
X15.4915Y-2.464
X15.4915Y-3.212
X15.4915Y-3.96
X15.4915Y-4.7081
X15.5244Y-1.7486
X15.5244Y-2.4967
X15.5244Y-3.2447
X15.5244Y-3.9927
X15.5244Y-4.7407
X15.9896Y-1.8159
X15.9896Y-2.564
X15.9896Y-3.312
X15.9896Y-4.06
X15.9896Y-4.8081
X16.0362Y-1.7614
X16.0362Y-2.5094
X16.0362Y-3.2575
X16.0362Y-4.0055
X16.0362Y-4.7535
X16.2396Y-1.7159
X16.2396Y-2.464
X16.2396Y-3.212
X16.2396Y-3.96
X16.2396Y-4.7081
X16.2724Y-1.7486
X16.2724Y-2.4967
X16.2724Y-3.2447
X16.2724Y-3.9927
X16.2724Y-4.7407
X16.7376Y-1.8159
X16.7376Y-2.564
X16.7376Y-3.312
X16.7376Y-4.06
X16.7376Y-4.8081
X16.7843Y-1.7614
X16.7843Y-2.5094
X16.7843Y-3.2575
X16.7843Y-4.0055
X16.7843Y-4.7535
X16.9876Y-1.7159
X16.9876Y-2.464
X16.9876Y-3.212
X16.9876Y-3.96
X16.9876Y-4.7081
X17.0205Y-1.7486
X17.0205Y-2.4967
X17.0205Y-3.2447
X17.0205Y-3.9927
X17.0205Y-4.7407
T4
X0.2715Y-0.6384
X0.2715Y-3.2565
X0.365Y-1.7604
X0.552Y-2.5085
X0.5864Y-0.599
X0.5864Y-3.2171
X0.6455Y-4.7526
X0.6799Y-1.7211
X0.7144Y-4.0045
X0.8669Y-2.4691
X0.9604Y-4.7132
X1.0195Y-3.2565
X1.0293Y-3.9652
X1.2065Y-0.6384
X1.2065Y-1.7604
X1.3344Y-3.2171
X1.3935Y-4.7526
X1.487Y-2.5085
X1.5215Y-0.599
X1.5215Y-1.7211
X1.7085Y-4.7132
X1.7675Y-3.2565
X1.802Y-2.4691
X1.9545Y-1.7604
X2.0825Y-3.2171
X2.1415Y-4.0045
X2.1415Y-4.7526
X2.235Y-2.5085
X2.2695Y-1.7211
X2.3285Y-0.6384
X2.4565Y-3.9652
X2.4565Y-4.7132
X2.5156Y-3.2565
X2.55Y-2.4691
X2.6435Y-0.599
X2.7026Y-1.7604
X2.8305Y-3.2171
X2.8896Y-4.0045
X2.9831Y-2.5085
X3.0175Y-1.7211
X3.2045Y-3.9652
X3.2636Y-0.6384
X3.2636Y-3.2565
X3.2636Y-4.7526
X3.298Y-2.4691
X3.4506Y-1.7604
X3.5785Y-0.599
X3.5785Y-3.2171
X3.5785Y-4.7132
X3.6376Y-4.0045
X3.7311Y-2.5085
X3.7656Y-1.7211
X3.9526Y-3.9652
X4.0116Y-3.2565
X4.0461Y-2.4691
X4.1986Y-0.6384
X4.1986Y-1.7604
X4.3266Y-3.2171
X4.3856Y-4.0045
X4.4791Y-2.5085
X4.5136Y-0.599
X4.5136Y-1.7211
X4.7006Y-3.9652
X4.7596Y-3.2565
X4.7941Y-2.4691
X4.9467Y-1.7604
X4.9467Y-4.7526
X5.0746Y-3.2171
X5.1337Y-0.6384
X5.1337Y-4.0045
X5.2272Y-2.5085
X5.2616Y-1.7211
X5.2616Y-4.7132
X5.4486Y-0.599
X5.4486Y-3.9652
X5.5077Y-3.2565
X5.5421Y-2.4691
X5.6947Y-1.7604
X5.8226Y-3.2171
X5.8817Y-4.0045
X5.9752Y-2.5085
X6.0096Y-1.7211
X6.0687Y-0.6384
X6.1967Y-3.9652
X6.2557Y-3.2565
X6.2902Y-2.4691
X6.3837Y-0.599
X6.4427Y-1.7604
X6.5707Y-3.2171
X6.6297Y-4.0045
X6.7232Y-2.5085
X6.7577Y-1.7211
X6.8167Y-4.7526
X6.9447Y-3.9652
X7.0037Y-3.2565
X7.0382Y-2.4691
X7.1317Y-4.7132
X7.1907Y-1.7604
X7.2843Y-0.6384
X7.3187Y-3.2171
X7.3778Y-4.0045
X7.4713Y-2.5085
X7.5057Y-1.7211
X7.5992Y-0.599
X7.6927Y-3.9652
X7.7518Y-3.2565
X7.7862Y-2.4691
X7.9388Y-1.7604
X8.0667Y-3.2171
X8.1258Y-4.0045
X8.1258Y-4.7526
X8.2193Y-0.6384
X8.2193Y-2.5085
X8.2537Y-1.7211
X8.4407Y-3.9652
X8.4407Y-4.7132
X8.4998Y-3.2565
X8.5343Y-0.599
X8.5343Y-2.4691
X8.6868Y-1.7604
X8.8148Y-3.2171
X8.8738Y-4.0045
X8.8738Y-4.7526
X8.9673Y-2.5085
X9.0018Y-1.7211
X9.1543Y-0.6384
X9.1888Y-3.9652
X9.1888Y-4.7132
X9.2478Y-3.2565
X9.2823Y-2.4691
X9.4348Y-1.7604
X9.4693Y-0.599
X9.5628Y-3.2171
X9.6219Y-4.0045
X9.7154Y-2.5085
X9.7498Y-1.7211
X9.9368Y-3.9652
X9.9959Y-3.2565
X10.0303Y-2.4691
X10.0894Y-0.6384
X10.1829Y-1.7604
X10.3108Y-3.2171
X10.4043Y-0.599
X10.4978Y-1.7211
X10.7439Y-4.0045
X10.7439Y-4.7526
X11.0244Y-0.6384
X11.0244Y-1.7604
X11.0589Y-3.9652
X11.0589Y-4.7132
X11.1701Y-2.8785
X11.2094Y-3.1935
X11.3394Y-0.599
X11.3394Y-1.7211
X12.053Y-4.0045
X12.053Y-4.7526
X12.3679Y-3.9652
X12.3679Y-4.7132
X12.427Y-0.6384
X12.427Y-1.7604
X12.7419Y-0.599
X12.7419Y-1.7211
X12.801Y-3.2565
X12.801Y-4.0045
X12.801Y-4.7526
X13.1159Y-3.2171
X13.1159Y-3.9652
X13.1159Y-4.7132
X13.175Y-0.6384
X13.175Y-1.7604
X13.49Y-0.599
X13.49Y-1.7211
X13.549Y-3.2565
X13.549Y-4.0045
X13.549Y-4.7526
X13.864Y-3.2171
X13.864Y-3.9652
X13.864Y-4.7132
X14.4841Y-1.7604
X14.4841Y-2.5085
X14.4841Y-3.2565
X14.4841Y-4.0045
X14.4841Y-4.7526
X14.799Y-1.7211
X14.799Y-2.4691
X14.799Y-3.2171
X14.799Y-3.9652
X14.799Y-4.7132
X15.2321Y-1.7604
X15.2321Y-2.5085
X15.2321Y-3.2565
X15.2321Y-4.0045
X15.2321Y-4.7526
X15.547Y-1.7211
X15.547Y-2.4691
X15.547Y-3.2171
X15.547Y-3.9652
X15.547Y-4.7132
X15.9801Y-1.7604
X15.9801Y-2.5085
X15.9801Y-3.2565
X15.9801Y-4.0045
X15.9801Y-4.7526
X16.2951Y-1.7211
X16.2951Y-2.4691
X16.2951Y-3.2171
X16.2951Y-3.9652
X16.2951Y-4.7132
X16.7281Y-1.7604
X16.7281Y-2.5085
X16.7281Y-3.2565
X16.7281Y-4.0045
X16.7281Y-4.7526
X17.0431Y-1.7211
X17.0431Y-2.4691
X17.0431Y-3.2171
X17.0431Y-3.9652
X17.0431Y-4.7132
T5
X6.8327Y-0.7697
T0
M30
