%TF.GenerationSoftware,KiCad,Pcbnew,(6.99.0-5337-gc57e6db79a-dirty)*%
%TF.CreationDate,2023-02-22T22:35:33-05:00*%
%TF.ProjectId,necpc8801typea,6e656370-6338-4383-9031-74797065612e,rev?*%
%TF.SameCoordinates,Original*%
%TF.FileFunction,Soldermask,Top*%
%TF.FilePolarity,Negative*%
%FSLAX46Y46*%
G04 Gerber Fmt 4.6, Leading zero omitted, Abs format (unit mm)*
G04 Created by KiCad (PCBNEW (6.99.0-5337-gc57e6db79a-dirty)) date 2023-02-22 22:35:33*
%MOMM*%
%LPD*%
G01*
G04 APERTURE LIST*
%ADD10R,1.000000X1.500000*%
%ADD11O,1.800000X1.070000*%
%ADD12R,1.800000X1.070000*%
%ADD13C,1.750000*%
%ADD14C,3.987800*%
%TA.AperFunction,Profile*%
%ADD15C,0.150000*%
%TD*%
%TA.AperFunction,Profile*%
%ADD16C,0.050000*%
%TD*%
%TA.AperFunction,Profile*%
%ADD17C,0.200000*%
%TD*%
G04 APERTURE END LIST*
D10*
%TO.C,LED1*%
X303024999Y-40649999D03*
D11*
X301424999Y-43734999D03*
D10*
X299824999Y-40649999D03*
D11*
X301424999Y-41194999D03*
D12*
X301424999Y-42464999D03*
D10*
X299824999Y-45549999D03*
D11*
X301424999Y-45004999D03*
D10*
X303024999Y-45549999D03*
%TD*%
%TO.C,LED2*%
X303024999Y-60649999D03*
D11*
X301424999Y-63734999D03*
D10*
X299824999Y-60649999D03*
D11*
X301424999Y-61194999D03*
D12*
X301424999Y-62464999D03*
D10*
X299824999Y-65549999D03*
D11*
X301424999Y-65004999D03*
D10*
X303024999Y-65549999D03*
%TD*%
%TO.C,LED3*%
X303024999Y-80649999D03*
D11*
X301424999Y-83734999D03*
D10*
X299824999Y-80649999D03*
D11*
X301424999Y-81194999D03*
D12*
X301424999Y-82464999D03*
D10*
X299824999Y-85549999D03*
D11*
X301424999Y-85004999D03*
D10*
X303024999Y-85549999D03*
%TD*%
D13*
%TO.C,SW_REXTRA_1*%
X271865000Y-124665000D03*
D14*
X276945000Y-124665000D03*
D13*
X282025000Y-124665000D03*
%TD*%
%TO.C,SW_L_1*%
X195865000Y-86665000D03*
D14*
X200945000Y-86665000D03*
D13*
X206025000Y-86665000D03*
%TD*%
%TO.C,SW_ARRREXT1*%
X343115000Y-124665000D03*
D14*
X348195000Y-124665000D03*
D13*
X353275000Y-124665000D03*
%TD*%
%TO.C,SW_TAB_1*%
X12990000Y-67665000D03*
D14*
X18070000Y-67665000D03*
D13*
X23150000Y-67665000D03*
%TD*%
%TO.C,SW_KP7_1*%
X366865000Y-67665000D03*
D14*
X371945000Y-67665000D03*
D13*
X377025000Y-67665000D03*
%TD*%
%TO.C,SW_9_1*%
X181615000Y-48665000D03*
D14*
X186695000Y-48665000D03*
D13*
X191775000Y-48665000D03*
%TD*%
%TO.C,SW_ARRLEXT1*%
X305115000Y-124665000D03*
D14*
X310195000Y-124665000D03*
D13*
X315275000Y-124665000D03*
%TD*%
%TO.C,SW_KP4_1*%
X366865000Y-86665000D03*
D14*
X371945000Y-86665000D03*
D13*
X377025000Y-86665000D03*
%TD*%
%TO.C,SW_1_1*%
X29615000Y-48665000D03*
D14*
X34695000Y-48665000D03*
D13*
X39775000Y-48665000D03*
%TD*%
%TO.C,SW_RLD_1*%
X333615000Y-20165000D03*
D14*
X338695000Y-20165000D03*
D13*
X343775000Y-20165000D03*
%TD*%
%TO.C,SW_EQ_1*%
X238615000Y-48665000D03*
D14*
X243695000Y-48665000D03*
D13*
X248775000Y-48665000D03*
%TD*%
%TO.C,SW_RIGHT_1*%
X343115000Y-105665000D03*
D14*
X348195000Y-105665000D03*
D13*
X353275000Y-105665000D03*
%TD*%
%TO.C,SW_KPCOM_1*%
X385865000Y-124665000D03*
D14*
X390945000Y-124665000D03*
D13*
X396025000Y-124665000D03*
%TD*%
%TO.C,SW_HS_1*%
X224365000Y-124665000D03*
D14*
X229445000Y-124665000D03*
D13*
X234525000Y-124665000D03*
%TD*%
%TO.C,SW_YEN_1*%
X257615000Y-48665000D03*
D14*
X262695000Y-48665000D03*
D13*
X267775000Y-48665000D03*
%TD*%
%TO.C,SW_F6_1*%
X183990000Y-20165000D03*
D14*
X189070000Y-20165000D03*
D13*
X194150000Y-20165000D03*
%TD*%
%TO.C,SW_KPPLUS_1*%
X423865000Y-86665000D03*
D14*
X428945000Y-86665000D03*
D13*
X434025000Y-86665000D03*
%TD*%
%TO.C,SW_F7_1*%
X207740000Y-20165000D03*
D14*
X212820000Y-20165000D03*
D13*
X217900000Y-20165000D03*
%TD*%
%TO.C,SW_Y_1*%
X131740000Y-67665000D03*
D14*
X136820000Y-67665000D03*
D13*
X141900000Y-67665000D03*
%TD*%
%TO.C,SW_F_1*%
X100865000Y-86665000D03*
D14*
X105945000Y-86665000D03*
D13*
X111025000Y-86665000D03*
%TD*%
%TO.C,SW_V_1*%
X110365000Y-105665000D03*
D14*
X115445000Y-105665000D03*
D13*
X120525000Y-105665000D03*
%TD*%
%TO.C,SW_X_1*%
X72365000Y-105665000D03*
D14*
X77445000Y-105665000D03*
D13*
X82525000Y-105665000D03*
%TD*%
%TO.C,SW_B_1*%
X129365000Y-105665000D03*
D14*
X134445000Y-105665000D03*
D13*
X139525000Y-105665000D03*
%TD*%
%TO.C,SW_KP2_1*%
X385865000Y-105665000D03*
D14*
X390945000Y-105665000D03*
D13*
X396025000Y-105665000D03*
%TD*%
%TO.C,SW_2_1*%
X48615000Y-48665000D03*
D14*
X53695000Y-48665000D03*
D13*
X58775000Y-48665000D03*
%TD*%
%TO.C,SW_COMMA_1*%
X186365000Y-105665000D03*
D14*
X191445000Y-105665000D03*
D13*
X196525000Y-105665000D03*
%TD*%
%TO.C,SW_PC_1*%
X205365000Y-124665000D03*
D14*
X210445000Y-124665000D03*
D13*
X215525000Y-124665000D03*
%TD*%
%TO.C,SW_URG_1*%
X252865000Y-86665000D03*
D14*
X257945000Y-86665000D03*
D13*
X263025000Y-86665000D03*
%TD*%
%TO.C,SW_E_1*%
X74740000Y-67665000D03*
D14*
X79820000Y-67665000D03*
D13*
X84900000Y-67665000D03*
%TD*%
%TO.C,SW_U_1*%
X150740000Y-67665000D03*
D14*
X155820000Y-67665000D03*
D13*
X160900000Y-67665000D03*
%TD*%
%TO.C,SW_J_1*%
X157865000Y-86665000D03*
D14*
X162945000Y-86665000D03*
D13*
X168025000Y-86665000D03*
%TD*%
%TO.C,SW_SUP_1*%
X34365000Y-124665000D03*
D14*
X39445000Y-124665000D03*
D13*
X44525000Y-124665000D03*
%TD*%
%TO.C,SW_F10_1*%
X278990000Y-20165000D03*
D14*
X284070000Y-20165000D03*
D13*
X289150000Y-20165000D03*
%TD*%
%TO.C,SW_M_1*%
X167365000Y-105665000D03*
D14*
X172445000Y-105665000D03*
D13*
X177525000Y-105665000D03*
%TD*%
%TO.C,SW_COPY_1*%
X29615000Y-20165000D03*
D14*
X34695000Y-20165000D03*
D13*
X39775000Y-20165000D03*
%TD*%
%TO.C,SW_ENT_1*%
X279770000Y-72085000D03*
D14*
X279770000Y-77165000D03*
D13*
X279770000Y-82245000D03*
%TD*%
%TO.C,SW_W_1*%
X55740000Y-67665000D03*
D14*
X60820000Y-67665000D03*
D13*
X65900000Y-67665000D03*
%TD*%
%TO.C,SW_5_1*%
X105615000Y-48665000D03*
D14*
X110695000Y-48665000D03*
D13*
X115775000Y-48665000D03*
%TD*%
%TO.C,SW_S_1*%
X62865000Y-86665000D03*
D14*
X67945000Y-86665000D03*
D13*
X73025000Y-86665000D03*
%TD*%
%TO.C,SW_CTRL_1*%
X5865000Y-86665000D03*
D14*
X10945000Y-86665000D03*
D13*
X16025000Y-86665000D03*
%TD*%
%TO.C,SW_LSH_1*%
X17115000Y-105665000D03*
D14*
X22195000Y-105665000D03*
D13*
X27275000Y-105665000D03*
%TD*%
%TO.C,SW_R_1*%
X93740000Y-67665000D03*
D14*
X98820000Y-67665000D03*
D13*
X103900000Y-67665000D03*
%TD*%
%TO.C,SW_D_1*%
X81865000Y-86665000D03*
D14*
X86945000Y-86665000D03*
D13*
X92025000Y-86665000D03*
%TD*%
%TO.C,SW_P_1*%
X207740000Y-67665000D03*
D14*
X212820000Y-67665000D03*
D13*
X217900000Y-67665000D03*
%TD*%
%TO.C,SW_C_1*%
X91365000Y-105665000D03*
D14*
X96445000Y-105665000D03*
D13*
X101525000Y-105665000D03*
%TD*%
%TO.C,SW_O_1*%
X188740000Y-67665000D03*
D14*
X193820000Y-67665000D03*
D13*
X198900000Y-67665000D03*
%TD*%
%TO.C,SW_F2_1*%
X81865000Y-20165000D03*
D14*
X86945000Y-20165000D03*
D13*
X92025000Y-20165000D03*
%TD*%
%TO.C,SW_F8_1*%
X231490000Y-20165000D03*
D14*
X236570000Y-20165000D03*
D13*
X241650000Y-20165000D03*
%TD*%
%TO.C,SW_FULL_1*%
X214865000Y-86665000D03*
D14*
X219945000Y-86665000D03*
D13*
X225025000Y-86665000D03*
%TD*%
%TO.C,SW_ESC_1*%
X8240000Y-48665000D03*
D14*
X13320000Y-48665000D03*
D13*
X18400000Y-48665000D03*
%TD*%
%TO.C,SW_0_1*%
X200615000Y-48665000D03*
D14*
X205695000Y-48665000D03*
D13*
X210775000Y-48665000D03*
%TD*%
%TO.C,SW_KPEQ_1*%
X423865000Y-105665000D03*
D14*
X428945000Y-105665000D03*
D13*
X434025000Y-105665000D03*
%TD*%
%TO.C,SW_WOW_1*%
X245740000Y-67665000D03*
D14*
X250820000Y-67665000D03*
D13*
X255900000Y-67665000D03*
%TD*%
%TO.C,SW_KPCLR_1*%
X366865000Y-48665000D03*
D14*
X371945000Y-48665000D03*
D13*
X377025000Y-48665000D03*
%TD*%
%TO.C,SW_BS_1*%
X278990000Y-48665000D03*
D14*
X284070000Y-48665000D03*
D13*
X289150000Y-48665000D03*
%TD*%
%TO.C,SW_KP9_1*%
X404865000Y-67665000D03*
D14*
X409945000Y-67665000D03*
D13*
X415025000Y-67665000D03*
%TD*%
%TO.C,SW_K_1*%
X176865000Y-86665000D03*
D14*
X181945000Y-86665000D03*
D13*
X187025000Y-86665000D03*
%TD*%
%TO.C,SW_Q_1*%
X36740000Y-67665000D03*
D14*
X41820000Y-67665000D03*
D13*
X46900000Y-67665000D03*
%TD*%
%TO.C,SW_DEL_1*%
X333615000Y-48665000D03*
D14*
X338695000Y-48665000D03*
D13*
X343775000Y-48665000D03*
%TD*%
%TO.C,SW_MINUS_1*%
X219615000Y-48665000D03*
D14*
X224695000Y-48665000D03*
D13*
X229775000Y-48665000D03*
%TD*%
%TO.C,SW_KPPER_1*%
X404865000Y-124665000D03*
D14*
X409945000Y-124665000D03*
D13*
X415025000Y-124665000D03*
%TD*%
%TO.C,SW_Z_1*%
X53365000Y-105665000D03*
D14*
X58445000Y-105665000D03*
D13*
X63525000Y-105665000D03*
%TD*%
%TO.C,SW_F9_1*%
X255240000Y-20165000D03*
D14*
X260320000Y-20165000D03*
D13*
X265400000Y-20165000D03*
%TD*%
%TO.C,SW_F4_1*%
X129365000Y-20165000D03*
D14*
X134445000Y-20165000D03*
D13*
X139525000Y-20165000D03*
%TD*%
%TO.C,SW_A_1*%
X43865000Y-86665000D03*
D14*
X48945000Y-86665000D03*
D13*
X54025000Y-86665000D03*
%TD*%
%TO.C,SW_LEFT_1*%
X305115000Y-105665000D03*
D14*
X310195000Y-105665000D03*
D13*
X315275000Y-105665000D03*
%TD*%
%TO.C,SW_KPMULT_1*%
X423865000Y-67665000D03*
D14*
X428945000Y-67665000D03*
D13*
X434025000Y-67665000D03*
%TD*%
%TO.C,SW_KP5_1*%
X385865000Y-86665000D03*
D14*
X390945000Y-86665000D03*
D13*
X396025000Y-86665000D03*
%TD*%
%TO.C,SW_ARRDEXT1*%
X324115000Y-124665000D03*
D14*
X329195000Y-124665000D03*
D13*
X334275000Y-124665000D03*
%TD*%
%TO.C,SW_AT_1*%
X226740000Y-67665000D03*
D14*
X231820000Y-67665000D03*
D13*
X236900000Y-67665000D03*
%TD*%
%TO.C,SW_ALT_1*%
X53365000Y-124665000D03*
D14*
X58445000Y-124665000D03*
D13*
X63525000Y-124665000D03*
%TD*%
%TO.C,SW_STP_1*%
X5865000Y-20165000D03*
D14*
X10945000Y-20165000D03*
D13*
X16025000Y-20165000D03*
%TD*%
%TO.C,SW_ARRUPEXT_1*%
X343115000Y-86665000D03*
D14*
X348195000Y-86665000D03*
D13*
X353275000Y-86665000D03*
%TD*%
%TO.C,SW_AMOG_1*%
X243365000Y-105665000D03*
D14*
X248445000Y-105665000D03*
D13*
X253525000Y-105665000D03*
%TD*%
%TO.C,SW_KP1_1*%
X366865000Y-105665000D03*
D14*
X371945000Y-105665000D03*
D13*
X377025000Y-105665000D03*
%TD*%
%TO.C,SW_KPDIV_1*%
X423865000Y-48665000D03*
D14*
X428945000Y-48665000D03*
D13*
X434025000Y-48665000D03*
%TD*%
%TO.C,SW_H_1*%
X138865000Y-86665000D03*
D14*
X143945000Y-86665000D03*
D13*
X149025000Y-86665000D03*
%TD*%
%TO.C,SW_8_1*%
X162615000Y-48665000D03*
D14*
X167695000Y-48665000D03*
D13*
X172775000Y-48665000D03*
%TD*%
%TO.C,SW_T_1*%
X112740000Y-67665000D03*
D14*
X117820000Y-67665000D03*
D13*
X122900000Y-67665000D03*
%TD*%
%TO.C,SW_KPMIN_1*%
X404865000Y-48665000D03*
D14*
X409945000Y-48665000D03*
D13*
X415025000Y-48665000D03*
%TD*%
%TO.C,SW_N_1*%
X148365000Y-105665000D03*
D14*
X153445000Y-105665000D03*
D13*
X158525000Y-105665000D03*
%TD*%
%TO.C,SW_F5_1*%
X153115000Y-20165000D03*
D14*
X158195000Y-20165000D03*
D13*
X163275000Y-20165000D03*
%TD*%
%TO.C,SW_KPHELP_1*%
X385865000Y-48665000D03*
D14*
X390945000Y-48665000D03*
D13*
X396025000Y-48665000D03*
%TD*%
%TO.C,SW_SMCH_1*%
X233865000Y-86665000D03*
D14*
X238945000Y-86665000D03*
D13*
X244025000Y-86665000D03*
%TD*%
%TO.C,SW_KP0_1*%
X366865000Y-124665000D03*
D14*
X371945000Y-124665000D03*
D13*
X377025000Y-124665000D03*
%TD*%
%TO.C,SW_KP3_1*%
X404865000Y-105665000D03*
D14*
X409945000Y-105665000D03*
D13*
X415025000Y-105665000D03*
%TD*%
%TO.C,SW_SP3_1*%
X172115000Y-124665000D03*
D14*
X177195000Y-124665000D03*
D13*
X182275000Y-124665000D03*
%TD*%
%TO.C,SW_SP1_1*%
X81865000Y-124665000D03*
D14*
X86945000Y-124665000D03*
D13*
X92025000Y-124665000D03*
%TD*%
%TO.C,SW_4_1*%
X86615000Y-48665000D03*
D14*
X91695000Y-48665000D03*
D13*
X96775000Y-48665000D03*
%TD*%
%TO.C,SW_RLU_1*%
X314615000Y-20165000D03*
D14*
X319695000Y-20165000D03*
D13*
X324775000Y-20165000D03*
%TD*%
%TO.C,SW_7_1*%
X143615000Y-48665000D03*
D14*
X148695000Y-48665000D03*
D13*
X153775000Y-48665000D03*
%TD*%
%TO.C,SW_F1_1*%
X58115000Y-20165000D03*
D14*
X63195000Y-20165000D03*
D13*
X68275000Y-20165000D03*
%TD*%
%TO.C,SW_SLASH_1*%
X224365000Y-105665000D03*
D14*
X229445000Y-105665000D03*
D13*
X234525000Y-105665000D03*
%TD*%
%TO.C,SW_UP_1*%
X324115000Y-86665000D03*
D14*
X329195000Y-86665000D03*
D13*
X334275000Y-86665000D03*
%TD*%
%TO.C,SW_6_1*%
X124615000Y-48665000D03*
D14*
X129695000Y-48665000D03*
D13*
X134775000Y-48665000D03*
%TD*%
%TO.C,SW_CAPS_1*%
X24865000Y-86665000D03*
D14*
X29945000Y-86665000D03*
D13*
X35025000Y-86665000D03*
%TD*%
%TO.C,SW_INS_1*%
X314615000Y-48665000D03*
D14*
X319695000Y-48665000D03*
D13*
X324775000Y-48665000D03*
%TD*%
%TO.C,SW_3_1*%
X67615000Y-48665000D03*
D14*
X72695000Y-48665000D03*
D13*
X77775000Y-48665000D03*
%TD*%
%TO.C,SW_KPENT_1*%
X423865000Y-124665000D03*
D14*
X428945000Y-124665000D03*
D13*
X434025000Y-124665000D03*
%TD*%
%TO.C,SW_DOWN_1*%
X324115000Y-105665000D03*
D14*
X329195000Y-105665000D03*
D13*
X334275000Y-105665000D03*
%TD*%
%TO.C,SW_PER_1*%
X205365000Y-105665000D03*
D14*
X210445000Y-105665000D03*
D13*
X215525000Y-105665000D03*
%TD*%
%TO.C,SW_SP2_1*%
X124615000Y-124665000D03*
D14*
X129695000Y-124665000D03*
D13*
X134775000Y-124665000D03*
%TD*%
%TO.C,SW_LCTRLEX_1*%
X15365000Y-124665000D03*
D14*
X20445000Y-124665000D03*
D13*
X25525000Y-124665000D03*
%TD*%
%TO.C,SW_G_1*%
X119865000Y-86665000D03*
D14*
X124945000Y-86665000D03*
D13*
X130025000Y-86665000D03*
%TD*%
%TO.C,SW_I_1*%
X169740000Y-67665000D03*
D14*
X174820000Y-67665000D03*
D13*
X179900000Y-67665000D03*
%TD*%
%TO.C,SW_KP6_1*%
X404865000Y-86665000D03*
D14*
X409945000Y-86665000D03*
D13*
X415025000Y-86665000D03*
%TD*%
%TO.C,SW_KP8_1*%
X385865000Y-67665000D03*
D14*
X390945000Y-67665000D03*
D13*
X396025000Y-67665000D03*
%TD*%
%TO.C,SW_RSH_1*%
X271865000Y-105665000D03*
D14*
X276945000Y-105665000D03*
D13*
X282025000Y-105665000D03*
%TD*%
%TO.C,SW_F3_1*%
X105615000Y-20165000D03*
D14*
X110695000Y-20165000D03*
D13*
X115775000Y-20165000D03*
%TD*%
D15*
X434000000Y-131000000D02*
G75*
G03*
X437000000Y-128000000I0J3000000D01*
G01*
X2000000Y-128000000D02*
G75*
G03*
X5000000Y-131000000I3000000J0D01*
G01*
D16*
X5000000Y-131000000D02*
X238000000Y-131000000D01*
X437000000Y-128000000D02*
X437000000Y-11000000D01*
X2000000Y-11000000D02*
X2000000Y-128000000D01*
X434000000Y-8000000D02*
X5000000Y-8000000D01*
D17*
X238000000Y-131000000D02*
G75*
G03*
X242000000Y-127000000I0J4000000D01*
G01*
X265000000Y-121000000D02*
G75*
G03*
X261000000Y-117000000I-4000000J0D01*
G01*
X242000000Y-127000000D02*
X242000000Y-121000000D01*
D15*
X5000000Y-8000001D02*
G75*
G03*
X2000001Y-11000000I-16670J-2983329D01*
G01*
D17*
X265000000Y-121000000D02*
X265000000Y-127000000D01*
D15*
X437000000Y-11000000D02*
G75*
G03*
X434000000Y-8000000I-3000000J0D01*
G01*
D17*
X246000000Y-117000000D02*
G75*
G03*
X242000000Y-121000000I0J-4000000D01*
G01*
X246000000Y-117000000D02*
X261000000Y-117000000D01*
X226100990Y-34400000D02*
G75*
G03*
X226100990Y-34400000I-5500000J0D01*
G01*
D16*
X269000000Y-131000000D02*
X434000000Y-131000000D01*
D17*
X265000000Y-127000000D02*
G75*
G03*
X269000000Y-131000000I4000000J0D01*
G01*
D16*
X250550000Y-131000000D02*
X250550000Y-131000000D01*
M02*
